<svg class="u-pointer" xmlns="http://www.w3.org/2000/svg" width="25.785" height="25.787" viewBox="0 0 25.785 25.787"><path fill="#817E7E" d="M12.893 0C5.771 0 0 5.773 0 12.894c0 7.122 5.771 12.894 12.893 12.894s12.893-5.771 12.893-12.894C25.785 5.773 20.014 0 12.893 0m0 23.26c-5.717 0-10.367-4.65-10.367-10.366 0-5.717 4.65-10.367 10.367-10.367 5.716 0 10.367 4.65 10.367 10.367 0 5.716-4.652 10.366-10.367 10.366M8.924 8.924c-.7.7-.7 1.834 0 2.532.697.7 1.831.7 2.531 0 .7-.698.7-1.832 0-2.532s-1.834-.7-2.531 0m5.406 5.408c-.7.698-.7 1.832 0 2.532s1.834.7 2.531 0c.7-.7.7-1.834 0-2.532-.697-.7-1.831-.7-2.531 0m0-5.408a1.79 1.79 0 1 0 2.533 2.532 1.79 1.79 0 0 0-2.533-2.532m-5.407 5.407c-.7.7-.7 1.832 0 2.532s1.834.7 2.532 0c.7-.698.7-1.832 0-2.532-.698-.7-1.832-.7-2.532 0"/></svg>