<svg xmlns="http://www.w3.org/2000/svg" viewBox="-272 274.5 296.8 46.8"><path fill="#413F3F" d="M-243.4 315.5l-25-38h-3.6v43h3.2v-38.1l24.9 38.1h3.6v-43h-3.1zm15.4-38h4.2v4.2h-4.2zm.5 12.7h3.2v30.3h-3.2zm26 28.1c-2.9 0-5.2-.9-6.7-2.5-2.7-2.9-3.3-6.5-3.3-10.4 0-3.9.6-7.5 3.3-10.4 1.6-1.6 3.8-2.6 6.7-2.6 4.6 0 7.9 3.1 8.6 7.3h3.2c-.7-6.1-5.4-10.3-11.7-10.3-3.8 0-6.8 1.5-8.9 3.6-3.2 3.2-4.2 7.2-4.2 12.4s1.1 9.2 4.2 12.4c2.1 2.1 5.2 3.6 8.9 3.6 6.4 0 11-4.5 11.8-10.4h-3.2c-.8 4-4 7.3-8.7 7.3zm31.2-28.9c-4.2 0-7.8 1.8-10.3 5.3-2.4 3.2-3 7-3 10.8 0 4.6 1.4 8.6 3.9 11.5 2.2 2.5 5.3 4.3 9.6 4.3 3.5 0 6.5-1.3 8.7-3.5 1.7-1.6 3-3.8 3.4-6.4h-3.2c-.4 1.8-1.2 3.2-2.3 4.3-1.6 1.7-3.9 2.7-6.6 2.7-3.3 0-5.6-1.2-7.3-3.2-1.9-2.3-3.1-5.6-3.2-9.1h23.2l.1-2c0-7.7-4.8-14.7-13-14.7zm-10.2 13.9c0-6 3.9-11 10.2-11 6.2 0 9.8 5.3 9.9 11h-20.1zm62.5-6.2l-8.1-1c-3.9-.5-7.6-2.4-7.6-7.5 0-2.8 1.3-4.8 2.9-6.2 2.1-1.8 5.1-2.6 8.2-2.6 3.9 0 7.5 1.4 9.3 3.7 1.4 1.6 2.1 3.3 2.4 5.5h3.2c-.2-3.1-1.5-5.3-3.3-7.5-2.4-2.8-7-4.7-11.6-4.7-4 0-7.9 1.3-10.6 3.8-2.2 2-3.8 4.5-3.8 8.1 0 6.6 4.5 10.1 10.6 10.9l8 1c5.2.7 8.4 4.2 8.4 8.4 0 2.7-1 4.7-2.5 6.2-2.4 2.2-6.1 3.2-9.8 3.2-3.6 0-7.2-1.2-9.5-3.5-1.6-1.7-2.9-4.1-3.2-6.6h-3.3c.3 3.3 1.8 6.3 3.9 8.6 2.9 3 7.1 4.6 12 4.6 5 0 9.3-1.3 12.2-4.2 2-2 3.4-4.5 3.4-8.2.1-6.3-4.5-11.1-11.2-12zm33.8-7.7c-4.2 0-8.6 2.5-10.2 6.4v-19h-3v43.8h3v-15.2c0-6.5 2.6-13.1 10.1-13.1 5.5 0 7.8 3.2 7.8 8.4v19.8h3v-20c-.1-6.8-3.8-11.1-10.7-11.1zm21.8-11.9h4.2v4.2h-4.2zm.5 12.7h3.2v30.3h-3.2zm18.5 6.1l-.4-6.1h-2.7v30.3h3v-14.6c0-6.4 2.1-13.2 9.6-13.2 1 0 2 .1 3 .3v-3c-1-.2-2-.2-3-.2-4.1.1-8.1 2.3-9.5 6.5zm25.3 15.6v-19h9.4v-2.8h-9.4V281l-3 .7v8.4h-6.1v2.8h6.1V312c0 5.3 2.2 8.9 7.8 8.9 1.7 0 3.3-.4 5-.7v-2.7c-1.6.3-3.2.5-4.8.5-4.1.1-5-2.5-5-6.1zm30-37.4c-7.1 0-12.9 5.8-12.9 12.9s5.8 12.9 12.9 12.9 12.9-5.8 12.9-12.9-5.8-12.9-12.9-12.9zm0 23.3c-5.7 0-10.4-4.7-10.4-10.4S6.2 277 11.9 277s10.4 4.7 10.4 10.4-4.7 10.4-10.4 10.4z"/><circle fill="#413F3F" cx="9.2" cy="284.7" r="1.8"/><circle fill="#413F3F" cx="14.6" cy="290.1" r="1.8"/><circle fill="#413F3F" cx="14.6" cy="284.7" r="1.8"/><circle fill="#413F3F" cx="9.2" cy="290.1" r="1.8"/></svg>