<svg xmlns="http://www.w3.org/2000/svg" viewBox="-239 346.9 35.6 35.6"><path d="M-215 364.7c0-3.2-2.6-5.8-5.8-5.8-3.2 0-5.8 2.5-5.8 5.8 0 3.2 2.6 5.8 5.8 5.8 3.2-.1 5.8-2.6 5.8-5.8m7.2-9.5c0 .4-.4.9-.9.9h-2.6c-.4 0-.9-.4-.9-.9v-2.6c0-.5.4-.9.9-.9h2.6c.5 0 .9.4.9.9v2.6zm-2.3-6h-21.3c-2.7 0-4.8 2.2-4.8 4.8v5.3h7.8c1.7-2.4 4.5-4 7.6-4 3.2 0 5.9 1.5 7.6 4h7.8V354c.1-2.6-2.1-4.8-4.7-4.8m-1.3 15.5c0 5.1-4.2 9.4-9.4 9.4s-9.4-4.2-9.4-9.4c0-.6.1-1.2.1-1.8h-6.3v12.4c0 2.7 2.2 4.9 4.8 4.9h21.3c2.7 0 4.8-2.2 4.8-4.9v-12.4h-6.3c.3.6.4 1.1.4 1.8"/></svg>