<svg xmlns="http://www.w3.org/2000/svg" width="275.457" height="56.693" viewBox="0 0 275.457 56.693"><path d="M83.529 32.612h10.979l-5.544-14.434zM114.707 17.422h-6.587v21.849h6.587c1.908 0 3.779-.683 5.075-1.908 2.376-2.303 2.556-5.976 2.556-9.034 0-3.06-.18-6.732-2.556-8.999-1.296-1.224-3.167-1.908-5.075-1.908M185.018 16.954c-1.979 0-3.852.684-5.184 1.979-2.52 2.412-2.629 6.372-2.629 9.396 0 3.023.109 7.019 2.629 9.43 1.332 1.296 3.205 1.979 5.184 1.979s3.852-.684 5.184-1.979c2.52-2.411 2.627-6.407 2.627-9.43 0-3.024-.107-6.984-2.627-9.396-1.333-1.295-3.206-1.979-5.184-1.979M212.003 17.35h-7.451v11.158h7.451c4.211 0 6.659-1.943 6.659-5.579 0-3.636-2.448-5.579-6.659-5.579"/><path d="M0 56.693h275.457V0H0v56.693zm48.815-15.586h-2.051l-5.003-10.87H32.87v10.87h-1.872V15.586h9.323c5.579 0 8.603 2.916 8.603 7.343 0 3.348-2.088 5.976-5.291 6.84l5.182 11.338zm23.962-23.721H58.344v9.359H71.05v1.8H58.344v10.762h14.433v1.8H56.436V15.586h16.341v1.8zm25.006 23.721l-2.592-6.731H82.845l-2.52 6.731h-1.943l9.682-25.521H89.9l9.79 25.521h-1.907zm23.367-2.519c-1.511 1.475-3.744 2.519-6.443 2.519h-8.459V15.586h8.459c2.699 0 4.932 1.044 6.443 2.52 2.808 2.7 3.096 6.659 3.096 10.223 0 3.563-.288 7.558-3.096 10.259m46.186 2.519h-1.835V18.286l-9.323 22.461h-1.656L145.2 18.466v22.641h-1.836V15.586h2.628l9.431 22.676 9.251-22.676h2.663v25.521zm24.232-2.123c-1.583 1.511-3.779 2.591-6.551 2.591s-4.967-1.08-6.551-2.591c-2.88-2.772-3.203-6.983-3.203-10.655s.323-7.847 3.203-10.619c1.584-1.511 3.779-2.592 6.551-2.592s4.968 1.081 6.551 2.592c2.88 2.772 3.203 6.947 3.203 10.619s-.323 7.882-3.203 10.655m28.929 2.123h-2.052l-5.003-10.87h-8.89v10.87h-1.873V15.586h9.323c5.579 0 8.603 2.916 8.603 7.343 0 3.348-2.087 5.976-5.291 6.84l5.183 11.338zm23.962-23.721h-14.435v9.359h12.706v1.8h-12.706v10.762h14.435v1.8h-16.342V15.586h16.342v1.8z"/><path d="M40.321 17.35H32.87v11.158h7.451c4.211 0 6.659-1.943 6.659-5.579 0-3.636-2.448-5.579-6.659-5.579"/></svg>