<svg xmlns="http://www.w3.org/2000/svg" width="275.457" height="56.693" viewBox="0 0 275.457 56.693"><path fill="#FFF" d="M83.529 32.612h10.979l-5.544-14.434zm31.178-15.19h-6.587v21.85h6.587c1.908 0 3.779-.684 5.075-1.908 2.376-2.303 2.556-5.976 2.556-9.034 0-3.06-.18-6.731-2.556-8.999-1.296-1.225-3.167-1.909-5.075-1.909m70.311-.468c-1.979 0-3.852.685-5.184 1.979-2.52 2.412-2.629 6.372-2.629 9.396s.109 7.02 2.629 9.431c1.332 1.296 3.205 1.979 5.184 1.979s3.853-.684 5.185-1.979c2.521-2.411 2.627-6.407 2.627-9.431s-.106-6.983-2.627-9.396c-1.334-1.295-3.207-1.979-5.185-1.979m26.985.396h-7.45v11.157h7.45c4.211 0 6.659-1.942 6.659-5.578s-2.448-5.579-6.659-5.579"/><path fill="#FFF" d="M0 56.693h275.457V0H0v56.693zm48.815-15.586h-2.051l-5.003-10.87H32.87v10.87h-1.872V15.586h9.323c5.579 0 8.603 2.916 8.603 7.344 0 3.348-2.088 5.976-5.291 6.84l5.182 11.337zm23.962-23.721H58.344v9.358H71.05v1.8H58.344v10.763h14.433v1.8H56.436V15.586h16.341v1.8zm25.006 23.721l-2.592-6.731H82.845l-2.52 6.731h-1.943l9.682-25.521H89.9l9.79 25.521h-1.907zm23.367-2.519c-1.511 1.476-3.744 2.52-6.443 2.52h-8.459V15.586h8.459c2.699 0 4.932 1.044 6.443 2.521 2.808 2.7 3.096 6.659 3.096 10.223s-.288 7.557-3.096 10.258m46.186 2.519h-1.835V18.286l-9.323 22.461h-1.656L145.2 18.466v22.642h-1.837V15.586h2.629l9.431 22.677 9.251-22.677h2.663l-.001 25.521zm24.232-2.123c-1.584 1.511-3.779 2.591-6.551 2.591-2.772 0-4.968-1.08-6.552-2.591-2.88-2.772-3.202-6.983-3.202-10.655s.322-7.847 3.202-10.619c1.584-1.511 3.779-2.592 6.552-2.592 2.771 0 4.967 1.081 6.551 2.592 2.879 2.772 3.203 6.947 3.203 10.619s-.324 7.882-3.203 10.655m28.929 2.123h-2.052l-5.004-10.87h-8.89v10.87h-1.872V15.586h9.322c5.579 0 8.604 2.916 8.604 7.344 0 3.348-2.088 5.976-5.291 6.84l5.183 11.337zm23.962-23.721h-14.436v9.358h12.707v1.8h-12.707v10.763h14.436v1.8h-16.342V15.586h16.342v1.8z"/><path fill="#FFF" d="M40.321 17.35H32.87v11.157h7.451c4.211 0 6.659-1.942 6.659-5.578s-2.448-5.579-6.659-5.579"/></svg>