<svg xmlns="http://www.w3.org/2000/svg" width="159.278" height="29.022" viewBox="0 0 159.278 29.022"><path d="M126.561 11.848c0-1.62-1.08-2.25-2.593-2.25h-3.4v4.482h3.4c1.513 0 2.593-.612 2.593-2.232M49.253 11.542c0-1.332-1.08-1.998-2.304-1.998h-3.527v4.014h3.581c1.332 0 2.25-.594 2.25-2.016M47.04 14.961h-3.618v4.445h3.582c1.404 0 2.538-.683 2.538-2.194 0-1.422-1.152-2.251-2.502-2.251M110.166 9.418c-.864 0-1.711.324-2.322.954-1.044 1.08-1.098 2.808-1.098 4.14 0 1.331.054 3.059 1.098 4.139.611.629 1.458.953 2.322.953.863 0 1.709-.324 2.322-.953 1.043-1.08 1.096-2.809 1.096-4.139 0-1.332-.053-3.06-1.096-4.14-.613-.63-1.459-.954-2.322-.954"/><path d="M0 29.022h159.278V0H0v29.022zm23.937-9.183c-.882.863-2.25 1.277-3.618 1.277-1.548 0-2.79-.432-3.653-1.224-.81-.756-1.368-1.854-1.368-3.06h1.674c0 .756.377 1.512.899 2.016.576.559 1.548.792 2.448.792.972 0 1.8-.198 2.376-.737.396-.36.648-.811.648-1.494 0-.989-.63-1.818-2.142-2.051l-2.016-.307c-1.908-.287-3.401-1.349-3.401-3.383 0-.954.432-1.872 1.116-2.52.882-.828 2.015-1.26 3.347-1.26 1.242 0 2.466.414 3.312 1.224a3.834 3.834 0 0 1 1.224 2.736h-1.674a2.664 2.664 0 0 0-.63-1.602c-.486-.558-1.26-.882-2.25-.882-.918 0-1.71.252-2.267.882-.324.378-.522.81-.522 1.386 0 1.152.953 1.674 1.907 1.8.72.09 1.422.216 2.124.324 2.124.306 3.545 1.602 3.545 3.617 0 1.062-.45 1.854-1.079 2.466m13.755-3.636c0 3.186-1.8 4.914-4.661 4.914-2.862 0-4.662-1.728-4.662-4.914V8.122h1.602v8.117c0 2.034.846 3.384 3.06 3.384 2.213 0 3.059-1.351 3.059-3.384V8.122h1.602v8.081zm12.515 3.51c-.719.774-1.943 1.17-3.203 1.17h-5.147V8.122h5.093c1.188 0 2.412.396 3.114 1.17.503.558.827 1.206.827 2.124 0 1.224-.647 2.394-1.835 2.826 1.313.432 2.123 1.727 2.123 3.078 0 1.025-.414 1.798-.972 2.393m16.879 1.17h-1.53V10.12l-3.96 10.583h-1.26L56.377 10.03v10.853h-1.53V8.122h2.304l3.851 10.385 3.834-10.385h2.25v12.761zm6.012 0H71.46V8.122h1.638v12.761zM85.449 9.616h-3.797v11.267h-1.62V9.616h-3.798V8.122h9.215v1.494zm17.136-.018h-6.66v4.158h5.939v1.512h-5.939v5.615h-1.602V8.122h8.262v1.476zm11.018 10.169c-.918.9-2.16 1.368-3.438 1.368-1.279 0-2.521-.468-3.438-1.368-1.387-1.35-1.639-3.221-1.639-5.255s.252-3.906 1.639-5.255c.917-.9 2.158-1.369 3.438-1.369 1.277 0 2.52.469 3.438 1.369 1.385 1.349 1.637 3.221 1.637 5.255s-.252 3.905-1.637 5.255m12.904 1.116l-2.412-5.31h-3.527v5.31h-1.602V8.122h5.002c1.494 0 2.539.414 3.24 1.135.612.647 1.008 1.475 1.008 2.591s-.359 1.872-.972 2.52c-.378.396-.918.702-1.53.9l2.557 5.615h-1.764zm17.56 0h-1.53V10.12l-3.96 10.583h-1.259l-3.96-10.672v10.853h-1.53V8.122h2.305l3.852 10.385 3.833-10.385h2.25v12.761z"/></svg>