<svg xmlns="http://www.w3.org/2000/svg" width="35.635" height="35.635" viewBox="0 0 35.635 35.635"><path d="M27.083 13.82l.01.566c0 5.796-4.415 12.482-12.484 12.482a12.34 12.34 0 0 1-6.721-1.98c.338.045.689.067 1.045.067a8.816 8.816 0 0 0 5.448-1.88 4.396 4.396 0 0 1-4.098-3.047 4.1 4.1 0 0 0 .825.079c.402 0 .794-.058 1.152-.154a4.383 4.383 0 0 1-3.51-4.293v-.059a4.312 4.312 0 0 0 1.979.547 4.376 4.376 0 0 1-1.945-3.645c0-.804.215-1.564.597-2.208a12.437 12.437 0 0 0 9.036 4.58 4.252 4.252 0 0 1-.107-1.002 4.382 4.382 0 0 1 4.381-4.381c1.262 0 2.401.534 3.207 1.38a8.783 8.783 0 0 0 2.784-1.056 4.368 4.368 0 0 1-1.934 2.426 8.962 8.962 0 0 0 2.521-.695 9.019 9.019 0 0 1-2.186 2.273M18.208 0C8.379 0 .399 7.98.399 17.809c0 9.847 7.98 17.826 17.81 17.826 9.843 0 17.825-7.979 17.825-17.826C36.034 7.97 28.051 0 18.208 0"/></svg>