<svg id="Layer_2" data-name="Layer 2" xmlns="http://www.w3.org/2000/svg" viewBox="0 0 296.79 46.75"><defs><style>.cls-1{fill:#413f3f;}</style></defs><title>niceshirt</title><polygon class="cls-1" points="28.56 40.99 3.58 2.96 0 2.96 0 45.96 3.15 45.96 3.15 7.88 28.08 45.96 31.66 45.96 31.66 2.96 28.56 2.96 28.56 40.99"/><rect class="cls-1" x="43.97" y="2.96" width="4.25" height="4.25"/><rect class="cls-1" x="44.52" y="15.64" width="3.21" height="30.32"/><path class="cls-1" d="M70.53,43.78a9,9,0,0,1-6.73-2.55c-2.73-2.85-3.34-6.49-3.34-10.43s0.61-7.52,3.34-10.37a9,9,0,0,1,6.73-2.61,8.4,8.4,0,0,1,8.55,7.28h3.15A11.29,11.29,0,0,0,70.53,14.85a12.37,12.37,0,0,0-8.91,3.58c-3.15,3.15-4.25,7.22-4.25,12.37S58.46,40,61.62,43.17a12.37,12.37,0,0,0,8.91,3.58A11.7,11.7,0,0,0,82.36,36.38H79.14A8.61,8.61,0,0,1,70.53,43.78Z" transform="translate(0 0)"/><path class="cls-1" d="M101.71,14.85A12.33,12.33,0,0,0,91.4,20.13c-2.36,3.21-3,7-3,10.8a17.5,17.5,0,0,0,3.88,11.52,12.3,12.3,0,0,0,9.64,4.3,12.13,12.13,0,0,0,8.67-3.52,11.28,11.28,0,0,0,3.4-6.37h-3.15a8.5,8.5,0,0,1-2.31,4.3,9,9,0,0,1-6.61,2.67,9.11,9.11,0,0,1-7.34-3.21,14.6,14.6,0,0,1-3.15-9.1h23.17c0-.73.06-1.27,0.06-2C114.69,21.89,109.89,14.85,101.71,14.85ZM91.52,28.74c0-6,3.94-11,10.19-11s9.77,5.28,9.89,11H91.52Z" transform="translate(0 0)"/><path class="cls-1" d="M154,22.61l-8.13-1c-3.94-.48-7.58-2.43-7.58-7.52a8.09,8.09,0,0,1,2.91-6.25,12.51,12.51,0,0,1,8.19-2.61c3.94,0,7.46,1.39,9.34,3.7a9.91,9.91,0,0,1,2.37,5.46h3.21a12.4,12.4,0,0,0-3.27-7.46c-2.43-2.85-7-4.73-11.64-4.73a16,16,0,0,0-10.61,3.76,10.59,10.59,0,0,0-3.76,8.13c0,6.61,4.49,10.07,10.55,10.85l8,1c5.15,0.67,8.37,4.24,8.37,8.37a8.23,8.23,0,0,1-2.55,6.19c-2.36,2.24-6.07,3.21-9.77,3.21a13.25,13.25,0,0,1-9.46-3.52,11.69,11.69,0,0,1-3.15-6.61h-3.27a14.5,14.5,0,0,0,3.88,8.55c2.85,3,7.1,4.61,12,4.61s9.28-1.34,12.19-4.18a11,11,0,0,0,3.4-8.25C165.27,28.25,160.72,23.46,154,22.61Z" transform="translate(0 0)"/><path class="cls-1" d="M187.77,14.85a11.33,11.33,0,0,0-10.25,6.37v-19h-3V46h3V30.8c0-6.55,2.61-13.1,10.07-13.1,5.52,0,7.82,3.15,7.82,8.43V46h3V26C198.44,19.16,194.74,14.85,187.77,14.85Z" transform="translate(0 0)"/><rect class="cls-1" x="209.6" y="2.96" width="4.25" height="4.25"/><rect class="cls-1" x="210.15" y="15.64" width="3.21" height="30.32"/><path class="cls-1" d="M228.64,21.77l-0.36-6.13h-2.67V46h3V31.41c0-6.37,2.06-13.16,9.64-13.16a12.39,12.39,0,0,1,3,.3v-3a16.22,16.22,0,0,0-3-.18C234,15.34,230,17.58,228.64,21.77Z" transform="translate(0 0)"/><path class="cls-1" d="M253.87,37.41v-19h9.4V15.64h-9.4V6.54l-3,.73v8.37h-6.06v2.79h6.06v19.1c0,5.28,2.18,8.86,7.82,8.86a24,24,0,0,0,5-.73V43a25.8,25.8,0,0,1-4.79.55C254.84,43.54,253.87,41,253.87,37.41Z" transform="translate(0 0)"/><path class="cls-1" d="M283.89,0A12.89,12.89,0,1,0,296.79,12.9,12.89,12.89,0,0,0,283.89,0Zm0,23.26A10.37,10.37,0,1,1,294.26,12.9,10.38,10.38,0,0,1,283.89,23.26Z" transform="translate(0 0)"/><circle class="cls-1" cx="281.19" cy="10.19" r="1.79" transform="translate(75.15 201.82) rotate(-45)"/><circle class="cls-1" cx="286.6" cy="15.6" r="1.79" transform="translate(72.91 207.22) rotate(-45)"/><circle class="cls-1" cx="286.6" cy="10.19" r="1.79" transform="translate(76.74 205.64) rotate(-45)"/><circle class="cls-1" cx="281.19" cy="15.6" r="1.79" transform="translate(71.33 203.4) rotate(-45)"/></svg>