<?xml version="1.0" standalone="no"?>
<!DOCTYPE svg PUBLIC "-//W3C//DTD SVG 1.1//EN" "http://www.w3.org/Graphics/SVG/1.1/DTD/svg11.dtd" >
<svg xmlns="http://www.w3.org/2000/svg">
<metadata>
Copyright   : Copyright c Laurenz Brunner www.lineto.com 2004 All rights reserved
Designer    : Laurenz Brunner
Foundry URL : www.lineto.com
</metadata>
<defs>
<font id="AkkuratProItalic" horiz-adv-x="1138" >
<font-face units-per-em="2048" ascent="1604" descent="-444" />
<missing-glyph horiz-adv-x="454" />
<glyph unicode="&#xfb01;" horiz-adv-x="1280" d="M78 889l26 147h187l35 197q18 109 105 180.5t218 71.5q86 0 211 -39l-26 -148q-100 37 -177 37q-61 0 -106 -35.5t-55 -93.5l-31 -170h301l-27 -147h-301l-155 -889h-174l157 889h-188zM788 0l185 1036h178l-184 -1036h-179zM1001 1274l37 205h203l-37 -205h-203z" />
<glyph unicode="&#xfb02;" horiz-adv-x="1316" d="M78 889l26 147h187l35 197q18 109 105 180.5t218 71.5q86 0 211 -39l-26 -148q-100 37 -177 37q-61 0 -106 -35.5t-55 -93.5l-31 -170h301l-27 -147h-301l-155 -889h-174l157 889h-188zM821 176q0 29 13 98l213 1205h174l-222 -1246q-2 -8 -2 -22q0 -72 78 -72 q43 0 82 13l-24 -142q-55 -23 -123 -22q-94 0 -144 55q-45 51 -45 133z" />
<glyph unicode=" "  horiz-adv-x="454" />
<glyph unicode="&#x09;" horiz-adv-x="454" />
<glyph unicode="&#xa0;" horiz-adv-x="454" />
<glyph unicode="!" horiz-adv-x="669" d="M133 0l41 223h219l-41 -223h-219zM258 440l47 553l82 459h217l-82 -459l-145 -553h-119z" />
<glyph unicode="&#x22;" horiz-adv-x="901" d="M252 887l10 313l45 252h199l-45 -252l-101 -313h-108zM598 887l10 313l45 252h199l-45 -252l-100 -313h-109z" />
<glyph unicode="#" horiz-adv-x="1503" d="M74 391l28 150h283l107 342h-265l29 151h283l123 389h153l-121 -389h324l121 389h153l-121 -389h256l-26 -151h-279l-106 -342h258l-29 -150h-276l-123 -391h-154l123 391h-323l-123 -391h-154l121 391h-262zM539 541h323l107 342h-324z" />
<glyph unicode="$" d="M14 449q0 31 2 47h179q-2 -16 -2 -50q0 -223 237 -278l88 498l-74 22q-135 41 -212.5 128t-77.5 210q0 188 152.5 307t350.5 119l31 186h119l-35 -198q156 -31 254 -142.5t98 -267.5h-182q0 98 -51 165t-146 87l-81 -471l59 -14q133 -33 225 -129.5t92 -225.5 q0 -205 -153 -327q-139 -113 -367 -117l-33 -188h-120l36 198q-174 31 -281.5 149t-107.5 292zM334 1036q0 -125 158 -176l57 -18l78 452q-123 -4 -208 -72.5t-85 -185.5zM549 158q121 2 215 72.5t94 187.5q0 150 -186 207l-39 12z" />
<glyph unicode="%" horiz-adv-x="1888" d="M186 1010q0 94 30 191t87 161q109 119 260 119q139 0 222 -88t83 -226q0 -221 -116 -350q-111 -121 -260 -121q-139 0 -222.5 88.5t-83.5 225.5zM250 41l1306 1450l93 -88l-1307 -1452zM342 1014q0 -82 40 -131t120 -49q55 0 104 38q51 43 78 127t27 164q0 82 -39 131 t-119 49q-57 0 -107 -38q-51 -41 -77.5 -126t-26.5 -165zM1026 287q0 94 29.5 191t87.5 161q109 119 258 119q139 0 222 -88t83 -226q0 -221 -117 -350q-111 -121 -258 -121q-139 0 -222 88.5t-83 225.5zM1182 291q0 -82 39 -131t118 -49q57 0 107 39q51 43 76.5 125.5 t25.5 164.5t-37.5 131.5t-117.5 49.5q-59 0 -109 -39q-51 -41 -76.5 -125t-25.5 -166z" />
<glyph unicode="&#x26;" horiz-adv-x="1501" d="M100 344q0 156 95.5 262.5t261.5 194.5l-54 76q-72 106 -71 215q0 168 113.5 277.5t295.5 109.5q152 0 243 -91.5t91 -207.5q0 -125 -68.5 -218.5t-179.5 -150.5q-82 -41 -122 -63l247 -342q96 133 131 403h310l-23 -150h-149q-18 -100 -65.5 -204.5t-111.5 -178.5 l199 -276h-211l-100 141q-72 -70 -185.5 -119t-244.5 -49q-160 0 -281 101.5t-121 269.5zM274 360q0 -100 69 -162.5t171 -62.5q203 0 328 131l-299 416q-14 -10 -47 -26.5t-47 -24.5q-175 -105 -175 -271zM510 1104q0 -80 55 -160q37 -51 56 -78l94 47q188 94 188 256 q0 59 -47 110.5t-129 51.5q-96 0 -156.5 -64.5t-60.5 -162.5z" />
<glyph unicode="'" horiz-adv-x="534" d="M240 887l12 313l45 252h197l-45 -252l-99 -313h-110z" />
<glyph unicode="(" horiz-adv-x="612" d="M100 440q0 127 23 258q45 252 177 487.5t327 389.5l92 -94q-369 -340 -449 -809q-23 -121 -22 -254q0 -336 168 -660l-121 -55q-195 315 -195 737z" />
<glyph unicode=")" horiz-adv-x="610" d="M-129 -225q371 373 453 837q23 125 22 260q0 328 -166 637l115 68q199 -303 199 -727q0 -133 -21 -250q-45 -254 -178 -500.5t-328 -416.5z" />
<glyph unicode="*" horiz-adv-x="1083" d="M186 1055l74 155l291 -123l29 338h180l-74 -338l322 123l34 -163l-337 -82l167 -265l-149 -94l-133 281l-234 -281l-125 103l258 260z" />
<glyph unicode="+" horiz-adv-x="1386" d="M109 549v141h491v506h143v-506h494v-141h-494v-539h-143v539h-491z" />
<glyph unicode="," horiz-adv-x="593" d="M2 -225q84 35 120 85t52 140h-131l43 240h254l-43 -240q-41 -236 -258 -322z" />
<glyph unicode="-" horiz-adv-x="886" d="M106 537l29 161h608l-28 -161h-609z" />
<glyph unicode="." horiz-adv-x="593" d="M47 0l43 244h244l-43 -244h-244z" />
<glyph unicode="/" horiz-adv-x="808" d="M-102 -27l890 1506h146l-891 -1506h-145z" />
<glyph unicode="0" d="M66 442q0 119 34 312q25 141 47.5 228t81 197.5t144.5 178.5q119 94 276 94q190 0 305 -121q119 -125 119 -348q0 -129 -33 -311q-39 -213 -95 -359.5t-179 -244.5q-121 -94 -277 -95q-166 0 -284 105q-139 124 -139 364zM244 438q0 -135 61.5 -220t190.5 -85 q76 0 136 37t95 86t63.5 132t40 137.5t25.5 138.5q2 16 4 24q37 221 37 299q0 135 -61.5 220t-190.5 85q-76 0 -136 -36.5t-95 -86t-63.5 -132.5t-40 -137t-25.5 -138q-2 -16 -4 -25q-37 -221 -37 -299z" />
<glyph unicode="1" d="M264 981l35 201l393 241h168l-252 -1423h-176l213 1219z" />
<glyph unicode="2" d="M-18 0l26 156l729 690q123 117 123 254q0 74 -51 129q-63 66 -178 65q-90 0 -164 -62.5t-94 -174.5h-180q23 174 149.5 284.5t302.5 110.5q190 0 299 -109q94 -98 94 -233q0 -197 -184 -371l-602 -575h616l-26 -164h-860z" />
<glyph unicode="3" d="M45 367q0 20 4 65h180q-4 -37 -4 -53q0 -115 68.5 -181.5t185.5 -66.5q127 0 208 86t81 213q0 109 -68.5 168t-179.5 59h-86l29 162h84q133 0 219 66.5t86 195.5q0 96 -67.5 154.5t-166.5 58.5q-106 0 -177.5 -64.5t-92.5 -170.5h-176q0 59 36 134t83 122 q135 137 342 137q164 0 282.5 -96t118.5 -256q0 -125 -75.5 -230.5t-194.5 -144.5q86 -39 133 -123t47 -182q0 -193 -138 -320t-333 -127q-186 0 -307 105t-121 289z" />
<glyph unicode="4" d="M-16 303l30 182l709 938h195l-730 -962h476l73 424h178l-73 -424h190l-26 -158h-193l-53 -303h-176l53 303h-653z" />
<glyph unicode="5" d="M76 377q0 41 2 61h174q-2 -18 -2 -55q0 -115 70.5 -182.5t183.5 -67.5q145 0 232 119t87 270q0 121 -65.5 191.5t-186.5 70.5q-141 0 -227 -104l-188 39l166 704h778l-31 -157h-623l-104 -432q96 104 281 104q176 0 277 -109.5t101 -285.5q0 -238 -140 -404t-374 -166 q-176 0 -293.5 111t-117.5 293z" />
<glyph unicode="6" d="M90 449q0 117 29 284q31 184 76 319.5t129 233.5q139 164 352 164q209 0 317 -143q72 -96 72 -222h-178q0 80 -51 138q-61 70 -174 69q-104 0 -181 -69q-72 -63 -109.5 -171t-66.5 -257q41 63 126 102t179 39q184 0 293 -113.5t109 -296.5q0 -274 -197 -442 q-127 -111 -309 -111q-174 0 -287 111q-129 123 -129 365zM264 403q0 -121 68.5 -196.5t189.5 -75.5q98 0 178 66q63 53 98.5 138t35.5 175q0 123 -68 197.5t-191 74.5q-109 0 -184 -69q-127 -113 -127 -310z" />
<glyph unicode="7" d="M88 0l825 1266h-731l29 157h924l-29 -157l-821 -1266h-197z" />
<glyph unicode="8" d="M47 360q0 135 80 246t211 156q-66 45 -104.5 117.5t-38.5 156.5q0 168 124 289q133 127 332 127q190 0 310 -119q100 -100 100 -237q0 -123 -70.5 -225.5t-185.5 -149.5q72 -37 119 -122t47 -179q0 -188 -146 -322q-135 -125 -340 -125q-207 0 -327 123 q-111 114 -111 264zM225 369q0 -111 77 -176.5t190 -65.5q131 0 217 85t86 214q0 111 -77 176.5t-188 65.5q-131 0 -218 -85t-87 -214zM371 1036q0 -104 69.5 -162.5t173.5 -58.5q115 0 193 78t78 190q0 100 -72 157.5t-172 57.5q-115 0 -192.5 -74.5t-77.5 -187.5z" />
<glyph unicode="9" d="M70 334l2 35h174v-27q0 -86 63 -149q61 -59 164 -60q100 0 178 72q117 102 178 424q-41 -63 -126 -101.5t-179 -38.5q-197 0 -309 144q-90 113 -90 266q0 274 199 442q127 111 311 111q252 0 358 -209q53 -106 54 -266q0 -117 -29 -285q-33 -186 -76 -320t-127 -233 q-139 -164 -354 -164q-213 0 -322 148q-69 92 -69 211zM303 915q0 -100 47 -172q68 -100 209 -100q100 0 182 68q129 109 129 311q0 98 -47 170q-70 102 -205 102q-100 0 -184 -69q-131 -111 -131 -310z" />
<glyph unicode=":" horiz-adv-x="614" d="M76 -2l41 225h227l-41 -225h-227zM219 809l41 227h227l-41 -227h-227z" />
<glyph unicode=";" horiz-adv-x="614" d="M31 -213q78 33 111.5 80t47.5 133h-116l39 225h227l-39 -225q-20 -117 -74.5 -188.5t-165.5 -114.5zM217 805l39 229h227l-39 -229h-227z" />
<glyph unicode="&#x3c;" horiz-adv-x="958" d="M72 625l651 649l100 -98l-551 -551l551 -551l-98 -101z" />
<glyph unicode="=" horiz-adv-x="1409" d="M178 274v158h987v-158h-987zM178 705v157h987v-157h-987z" />
<glyph unicode="&#x3e;" horiz-adv-x="958" d="M152 74l550 551l-550 551l100 98l651 -649l-653 -652z" />
<glyph unicode="?" horiz-adv-x="1013" d="M94 1051q33 182 142 290q137 137 358 138q186 0 301 -111q98 -94 98 -238q0 -168 -129 -303q-47 -49 -143 -111.5t-133 -101.5q-66 -70 -84 -176l-8 -51h-160l8 72q16 156 100 246q41 45 133.5 105t129.5 97q37 35 53 54.5t34.5 63.5t18.5 97q0 70 -45 125 q-61 74 -184 74q-127 0 -205 -75t-98 -195h-187zM244 0l39 225h219l-39 -225h-219z" />
<glyph unicode="@" horiz-adv-x="1849" d="M125 580q0 385 255 642t646 257q299 0 503 -179.5t204 -474.5q0 -135 -45.5 -262t-131.5 -211q-63 -61 -125.5 -92t-152.5 -31q-70 0 -119 34t-61 81q-100 -115 -260 -115q-115 0 -197 82q-94 90 -94 240q0 197 110.5 344t298.5 147q63 0 121 -27.5t86 -80.5l51 86h138 l-127 -508q-8 -37 -8 -57q0 -80 79 -80q76 0 146 69q125 123 125 381q0 231 -158 365.5t-393 134.5q-211 0 -377 -104.5t-254 -273.5t-88 -367q0 -274 174 -439.5t453 -165.5q231 0 428 97l-29 -160q-180 -88 -412 -88q-332 0 -559 206t-227 550zM719 565q0 -84 40 -136 t122 -52q115 0 172 109.5t57 238.5q0 82 -42 129t-122 47q-74 0 -135 -70q-92 -104 -92 -266z" />
<glyph unicode="A" horiz-adv-x="1259" d="M-115 0l768 1452h213l260 -1452h-182l-57 344h-633l-176 -344h-193zM342 516h514l-127 754z" />
<glyph unicode="B" horiz-adv-x="1368" d="M76 0l256 1452h573q172 0 279.5 -97.5t107.5 -256.5q0 -117 -78.5 -222.5t-187.5 -132.5q80 -31 134 -118.5t54 -180.5q0 -217 -151.5 -330.5t-370.5 -113.5h-616zM285 168h426q135 0 226 74.5t91 210.5q0 100 -69.5 160.5t-174.5 60.5h-409zM403 834h406q123 0 207 66.5 t84 186.5q0 92 -63.5 147.5t-159.5 55.5h-394z" />
<glyph unicode="C" horiz-adv-x="1265" d="M82 518q0 219 68.5 442.5t205.5 356.5q168 162 400 162q221 0 362 -148q133 -139 133 -338h-188q0 141 -92 230q-84 82 -226 82q-147 0 -262 -115q-102 -102 -158.5 -297t-56.5 -365q0 -168 85 -274.5t249 -106.5q152 0 246 95q88 84 113 184h190q-43 -203 -205 -332 q-152 -121 -354 -121q-233 0 -371.5 153.5t-138.5 391.5z" />
<glyph unicode="D" horiz-adv-x="1378" d="M76 0l256 1452h465q227 0 361 -147.5t134 -376.5q0 -215 -66.5 -430t-199.5 -344q-160 -154 -422 -154h-528zM289 168h338q168 0 274 106q100 98 154.5 288t54.5 356q0 160 -88 263t-246 103h-291z" />
<glyph unicode="E" horiz-adv-x="1265" d="M76 0l254 1452h958l-28 -168h-775l-79 -442h686l-31 -170h-682l-90 -504h782l-27 -168h-968z" />
<glyph unicode="F" horiz-adv-x="1191" d="M76 0l256 1452h932l-29 -168h-748l-84 -475h672l-31 -168h-671l-113 -641h-184z" />
<glyph unicode="G" horiz-adv-x="1353" d="M82 518q0 225 66.5 444.5t205.5 352.5q170 164 406 164q219 0 362 -140q68 -66 105 -155.5t37 -177.5h-185q0 78 -36.5 146.5t-102.5 107.5q-76 45 -195 45q-147 0 -264 -117q-104 -104 -158.5 -296t-54.5 -364q0 -199 103 -295q90 -86 233 -86q186 0 295 129.5 t143 325.5h-385l31 168h551l-137 -770h-133v141q-66 -82 -166.5 -125t-210.5 -43q-215 0 -352 131q-158 148 -158 414z" />
<glyph unicode="H" horiz-adv-x="1466" d="M76 0l256 1452h184l-106 -604h690l106 604h185l-256 -1452h-185l119 670h-690l-119 -670h-184z" />
<glyph unicode="I" horiz-adv-x="595" d="M76 0l256 1452h188l-256 -1452h-188z" />
<glyph unicode="J" horiz-adv-x="1038" d="M-41 340q0 53 10 100h181q-8 -53 -9 -82q0 -211 205 -211q100 0 169 69t87 171l189 1065h184l-191 -1081q-31 -180 -150.5 -289t-301.5 -109q-168 0 -273 105q-100 100 -100 262z" />
<glyph unicode="K" horiz-adv-x="1355" d="M76 0l256 1452h184l-135 -766l788 766h238l-571 -553l364 -899h-201l-305 762l-360 -350l-74 -412h-184z" />
<glyph unicode="L" horiz-adv-x="1097" d="M76 0l256 1452h184l-225 -1282h698l-31 -170h-882z" />
<glyph unicode="M" horiz-adv-x="1800" d="M76 0l256 1452h256l225 -1182l641 1182h270l-256 -1452h-178l221 1225l-663 -1205h-143l-240 1215l-211 -1235h-178z" />
<glyph unicode="N" horiz-adv-x="1503" d="M76 0l256 1452h209l497 -1192l205 1192h184l-256 -1452h-208l-498 1188l-205 -1188h-184z" />
<glyph unicode="O" horiz-adv-x="1341" d="M82 518q0 219 69.5 442.5t206.5 356.5q168 162 392 162q238 0 371.5 -155t133.5 -390q0 -221 -66.5 -443.5t-203.5 -355.5q-168 -162 -393 -162q-233 0 -371.5 153.5t-138.5 391.5zM268 528q0 -168 85 -274.5t249 -106.5q143 0 256 113q102 102 155.5 296t53.5 368 q0 168 -83 274.5t-245 106.5q-139 0 -254 -115q-102 -102 -159.5 -297t-57.5 -365z" />
<glyph unicode="P" horiz-adv-x="1275" d="M76 0l256 1452h526q182 0 303 -98.5t121 -276.5q0 -238 -152.5 -375t-392.5 -137h-379l-98 -565h-184zM389 729h354q158 0 253.5 89t95.5 245q0 113 -76 168t-193 55h-336z" />
<glyph unicode="Q" horiz-adv-x="1341" d="M82 518q0 219 69.5 442.5t206.5 356.5q168 162 392 162q238 0 371.5 -155t133.5 -390q0 -219 -67.5 -441.5t-202.5 -357.5l-8 -8l113 -170l-134 -92l-110 170q-117 -61 -254 -62q-233 0 -371.5 153.5t-138.5 391.5zM268 528q0 -168 85 -274.5t249 -106.5q84 0 150 35 l-142 217l129 93l138 -211q94 106 142 291.5t48 351.5q0 168 -83 274.5t-245 106.5q-139 0 -254 -115q-102 -102 -159.5 -297t-57.5 -365z" />
<glyph unicode="R" horiz-adv-x="1355" d="M76 0l256 1452h547q188 0 304.5 -108.5t116.5 -276.5q0 -199 -133 -322q-84 -78 -213 -112l199 -633h-192l-189 608h-405l-107 -608h-184zM397 772h377q158 0 246 77t88 218q0 100 -67.5 159.5t-188.5 59.5h-365z" />
<glyph unicode="S" horiz-adv-x="1288" d="M43 483h190q0 -135 74 -223q100 -119 309 -119q164 0 258 92q72 68 72 168q0 76 -51 134.5t-154 85.5l-221 55q-147 37 -234 126t-87 234q0 207 178 336q143 104 348 105q268 0 405 -183q88 -117 89 -278h-191q0 88 -43 158q-84 135 -278 135q-145 0 -236 -82 q-82 -72 -82 -174q0 -156 182 -199l232 -57q156 -39 246 -137.5t90 -235.5q0 -182 -119 -297q-154 -154 -426 -154q-291 0 -442 185q-109 135 -109 325z" />
<glyph unicode="T" horiz-adv-x="1097" d="M121 1282l31 170h1048l-31 -170h-432l-223 -1282h-186l225 1282h-432z" />
<glyph unicode="U" horiz-adv-x="1417" d="M139 432q0 70 13 137l155 883h185l-160 -903q-10 -61 -10 -111q0 -143 85 -217t236.5 -74t249.5 95.5t125 249.5l170 960h184l-170 -965q-41 -233 -189.5 -373.5t-379.5 -140.5q-221 0 -357.5 125t-136.5 334z" />
<glyph unicode="V" horiz-adv-x="1163" d="M117 1452h180l182 -1223l608 1223h199l-749 -1452h-187z" />
<glyph unicode="W" horiz-adv-x="1748" d="M178 1452h172l23 -1178l534 1158h164l139 -1151l430 1171h175l-545 -1452h-187l-135 1171l-530 -1171h-203z" />
<glyph unicode="X" horiz-adv-x="1187" d="M-109 0l588 733l-323 719h194l260 -588l463 588h207l-580 -719l330 -733h-194l-265 596l-469 -596h-211z" />
<glyph unicode="Y" horiz-adv-x="1136" d="M113 1452h186l260 -690l500 690h207l-641 -864l-103 -588h-186l106 588z" />
<glyph unicode="Z" horiz-adv-x="1253" d="M-39 0l33 182l1010 1100h-809l30 170h1030l-32 -184l-1014 -1100h840l-31 -168h-1057z" />
<glyph unicode="[" horiz-adv-x="628" d="M43 -233l315 1783h385l-22 -127h-244l-270 -1529h244l-23 -127h-385z" />
<glyph unicode="\" horiz-adv-x="811" d="M143 1479h136l358 -1506h-135z" />
<glyph unicode="]" horiz-adv-x="628" d="M-139 -233l22 127h242l270 1529h-241l22 127h385l-315 -1783h-385z" />
<glyph unicode="^" horiz-adv-x="1101" d="M145 829l344 650h156l344 -650h-182l-240 461l-241 -461h-181z" />
<glyph unicode="_" horiz-adv-x="1107" d="M-80 0h1014v-123h-1014v123z" />
<glyph unicode="`" horiz-adv-x="483" d="M129 1335l111 142l305 -252l-72 -92z" />
<glyph unicode="a" horiz-adv-x="1161" d="M53 416q0 145 50.5 283.5t146.5 232.5q135 131 315 131q86 0 162 -39q84 -43 121 -121l51 133h143l-182 -1036h-133v154q-43 -78 -131 -129.5t-176 -51.5q-156 0 -252 103q-115 121 -115 340zM231 416q0 -147 66 -223q59 -70 149 -70q102 0 183.5 84t121.5 200.5 t40 235.5q0 102 -39 170q-59 100 -177 100q-109 0 -196 -88q-72 -74 -110 -188.5t-38 -220.5z" />
<glyph unicode="b" horiz-adv-x="1193" d="M57 0l260 1479h175l-95 -543q111 127 293 127q84 0 160 -36t123 -97q92 -123 92 -309q0 -152 -55.5 -298.5t-155.5 -238.5q-121 -111 -293 -111q-92 0 -178 45t-129 127l-51 -145h-146zM311 422q0 -127 60.5 -213t185.5 -86q102 0 182 76q74 70 111 186.5t37 235.5 q0 123 -59.5 207.5t-178.5 84.5q-84 0 -151 -51q-121 -90 -162 -260q-25 -102 -25 -180z" />
<glyph unicode="c" horiz-adv-x="1067" d="M53 399q0 166 53.5 312.5t175 249t291.5 102.5t283 -99.5t113 -269.5q0 -6 -1 -16t-1 -16h-179q0 4 1.5 11t1.5 11q0 102 -61.5 165.5t-164.5 63.5q-113 0 -196 -88q-70 -72 -104 -187.5t-34 -231.5q0 -143 78 -220q68 -63 168 -63q94 0 162 55t98 148h174 q-25 -154 -151.5 -253.5t-290.5 -99.5q-184 0 -300 118t-116 308z" />
<glyph unicode="d" horiz-adv-x="1193" d="M61 416q0 139 48.5 274t138.5 230q137 143 332 143q92 0 176 -44t116 -126l103 586h176l-260 -1479h-146v131q-51 -78 -135 -118t-176 -40q-168 0 -274 133q-99 122 -99 310zM242 416q0 -123 57 -208t176 -85q84 0 156 55q117 88 157 256q25 102 25 180q0 129 -55.5 214 t-179.5 85q-98 0 -181 -77q-76 -72 -115.5 -187.5t-39.5 -232.5z" />
<glyph unicode="e" horiz-adv-x="1103" d="M53 432q0 139 50.5 271.5t142.5 222.5q137 137 338 137q182 0 293 -119q113 -121 112 -313q0 -86 -20 -168h-736q-2 -18 -2 -55q0 -129 70 -207t193 -78q80 0 144 45t99 123h181q-47 -147 -167 -232.5t-276 -85.5q-236 0 -350 185q-72 118 -72 274zM256 612h555 q2 14 2 39q0 113 -63.5 188.5t-176.5 75.5q-117 0 -208 -96q-74 -74 -109 -207z" />
<glyph unicode="f" horiz-adv-x="741" d="M78 889l26 147h187l35 197q18 109 105 180.5t218 71.5q86 0 211 -39l-26 -148q-100 37 -177 37q-61 0 -106 -35.5t-55 -93.5l-31 -170h301l-27 -147h-301l-155 -889h-174l157 889h-188z" />
<glyph unicode="g" horiz-adv-x="1077" d="M-41 -176q0 80 52 150.5t132 101.5q-80 55 -80 135q0 92 74 164q33 31 99 61q-94 98 -95 232q0 184 148 303q115 92 282 92q127 0 220 -55q70 131 215 131q41 0 73 -9l-24 -141q-18 6 -54 6q-86 0 -118 -65q70 -84 69 -205q0 -184 -141 -305q-113 -96 -291 -96 q-102 0 -178 34q-61 -14 -98 -55q-25 -25 -25 -59q0 -31 24.5 -52.5t65.5 -25.5l297 -31q133 -14 216 -84.5t83 -179.5q0 -129 -92 -221q-133 -131 -428 -131q-240 0 -354 123q-72 76 -72 182zM117 -158q0 -55 43 -102q72 -74 235 -74q207 0 289 82q47 47 47 111 q0 115 -178 133l-262 28q-78 -12 -126 -57t-48 -121zM313 668q0 -96 60.5 -150.5t156.5 -54.5q106 0 177 74.5t71 183.5q0 94 -61.5 147.5t-157.5 53.5q-109 0 -177.5 -75t-68.5 -179z" />
<glyph unicode="h" horiz-adv-x="1177" d="M57 0l260 1479h175l-101 -572q55 72 144.5 114t181.5 42q145 0 227 -82q72 -72 72 -199q0 -43 -17 -147l-112 -635h-174l110 623q14 78 15 114q0 86 -39 125q-47 47 -135 47q-72 0 -139.5 -45t-110.5 -110q-68 -102 -92 -248l-91 -506h-174z" />
<glyph unicode="i" horiz-adv-x="548" d="M57 0l185 1036h178l-184 -1036h-179zM270 1274l37 205h203l-37 -205h-203z" />
<glyph unicode="j" horiz-adv-x="571" d="M-242 -387l25 135q63 -37 133 -37q109 0 129 111l215 1214h176l-217 -1229q-20 -117 -90 -181t-178 -64q-97 0 -193 51zM285 1274l37 205h202l-37 -205h-202z" />
<glyph unicode="k" horiz-adv-x="1101" d="M57 0l262 1479h175l-168 -953l546 510h220q-188 -174 -447 -413l303 -623h-186l-246 504l-233 -219l-52 -285h-174z" />
<glyph unicode="l" horiz-adv-x="587" d="M92 176q0 29 12 98l213 1205h175l-222 -1246q-2 -8 -2 -22q0 -72 78 -72q43 0 82 13l-25 -142q-55 -23 -122 -22q-94 0 -144 55q-45 51 -45 133z" />
<glyph unicode="m" horiz-adv-x="1765" d="M57 0l183 1036h141v-135q104 162 311 162q109 0 182.5 -52.5t92.5 -140.5q53 84 146 138.5t204 54.5q156 0 235 -107q51 -66 52 -168q0 -51 -9 -94l-122 -694h-175l117 659q8 43 8 91q0 158 -168 157q-84 0 -168 -73q-100 -86 -137 -283l-98 -551h-174l117 659q8 43 8 91 q0 158 -168 157q-84 0 -168 -73q-100 -86 -137 -283l-99 -551h-174z" />
<glyph unicode="n" horiz-adv-x="1177" d="M57 0l183 1036h141v-143q55 78 148.5 124t187.5 46q145 0 227 -82q72 -72 72 -199q0 -43 -17 -147l-112 -635h-174l110 623q14 78 15 114q0 86 -39 125q-47 47 -135 47q-72 0 -139.5 -45t-110.5 -110q-68 -102 -92 -248l-91 -506h-174z" />
<glyph unicode="o" horiz-adv-x="1110" d="M53 406q0 121 32 234.5t93.5 209.5t164.5 154.5t232 58.5q193 0 308 -137q100 -119 100 -295q0 -121 -31.5 -234.5t-93 -210t-165 -155t-232.5 -58.5q-193 0 -307 138q-101 119 -101 295zM231 410q0 -123 61.5 -205t182.5 -82q115 0 194 88t107.5 195.5t28.5 220.5 q0 123 -61.5 204.5t-182.5 81.5q-115 0 -193.5 -88t-107.5 -195t-29 -220z" />
<glyph unicode="p" horiz-adv-x="1187" d="M-18 -444l260 1480h143v-123q49 72 131 111t172 39q82 0 158 -37t123 -100q92 -123 92 -305q0 -158 -52.5 -301.5t-169 -245t-276.5 -101.5q-94 0 -179 44t-128 128l-102 -589h-172zM315 422q0 -129 59.5 -214t184.5 -85q98 0 180 78q143 135 144 420q0 125 -56.5 209.5 t-175.5 84.5q-90 0 -157 -51q-139 -104 -172 -360q-7 -41 -7 -82z" />
<glyph unicode="q" horiz-adv-x="1171" d="M53 416q0 156 56.5 300t177.5 245.5t280 101.5q92 0 174 -46t113 -126l51 145h148l-260 -1478h-177l97 542q-100 -127 -291 -127q-168 0 -275 133q-94 117 -94 310zM231 416q0 -125 56.5 -210t175.5 -85q86 0 158 55q111 84 153 258q25 102 25 180q0 131 -55.5 215 t-178.5 84q-96 0 -180 -79q-76 -72 -115 -186.5t-39 -231.5z" />
<glyph unicode="r" horiz-adv-x="784" d="M57 0l183 1036h141v-149q49 80 130 121t175 41q66 0 117 -15l-29 -170q-49 18 -108 19q-96 0 -181 -64q-123 -94 -166 -323l-88 -496h-174z" />
<glyph unicode="s" horiz-adv-x="1046" d="M33 311v37h174v-29q0 -78 67 -137q72 -63 201 -63q106 0 178 61q53 47 54 113q0 102 -132 133l-196 47q-102 25 -160 80q-76 72 -76 173q0 148 121 247q113 90 285 90q104 0 198.5 -42t141.5 -124q49 -86 49 -172h-176q0 66 -41 117q-61 78 -189 78q-115 0 -176 -68 q-41 -45 -41 -102q0 -49 33 -80t78 -41q121 -27 242 -60q96 -25 155.5 -92t59.5 -162q0 -152 -119 -247q-115 -94 -299 -95q-248 0 -367 150q-65 82 -65 188z" />
<glyph unicode="t" horiz-adv-x="784" d="M59 887l27 149h205l47 264l184 54l-57 -318h305l-29 -149h-303l-96 -549q-10 -61 -10 -94q0 -106 129 -107q88 0 176 39l-27 -145q-92 -45 -210.5 -45t-186.5 73q-57 63 -57 162q0 49 10 107l98 559h-205z" />
<glyph unicode="u" horiz-adv-x="1175" d="M100 287q0 53 9 102l114 647h174l-112 -637q-6 -39 -6 -77q0 -90 49 -144q47 -51 137 -51q96 0 180 88q96 106 133 315l90 506h174l-182 -1036h-143v133q-49 -76 -134 -118t-171 -42q-131 0 -215 74q-97 84 -97 240z" />
<glyph unicode="v" horiz-adv-x="972" d="M53 1036h172l154 -831l432 831h190l-557 -1036h-188z" />
<glyph unicode="w" horiz-adv-x="1556" d="M129 1036h170l55 -786l396 774h141l131 -778l342 790h180l-463 -1036h-163l-134 788l-403 -788h-170z" />
<glyph unicode="x" horiz-adv-x="1015" d="M-92 0l450 535l-260 501h187l200 -391l328 391h215l-455 -518l283 -518h-188l-213 412l-338 -412h-209z" />
<glyph unicode="y" horiz-adv-x="1017" d="M-131 -375l25 135q80 -49 151 -49q88 0 133 82l121 219l-227 1024h182l168 -811l432 811h193l-711 -1296q-98 -178 -266 -178q-107 0 -201 63z" />
<glyph unicode="z" horiz-adv-x="1007" d="M-29 0l29 154l717 731h-588l27 151h807l-29 -153l-717 -731h602l-28 -152h-820z" />
<glyph unicode="{" horiz-adv-x="706" d="M70 586l26 147q74 -4 147.5 40t86.5 114l65 354q31 168 120 239.5t253 71.5h53l-22 -129h-54q-106 0 -150 -49t-65 -160l-59 -329q-16 -88 -77.5 -149.5t-153.5 -76.5v-4q82 -20 122.5 -81.5t26.5 -147.5l-53 -313q-8 -53 -8 -78q0 -96 48 -123t152 -27l-22 -129h-55 q-266 0 -267 252q0 55 9 96l51 291q14 86 -27 129q-57 62 -147 62z" />
<glyph unicode="|" horiz-adv-x="542" d="M201 -244v1796h141v-1796h-141z" />
<glyph unicode="}" horiz-adv-x="706" d="M-129 -244l23 129h53q102 0 149 53.5t66 155.5l59 330q16 88 82 151.5t158 77.5v4q-188 47 -154 256l49 283q23 131 -17 179t-175 48l22 129h56q319 0 264 -317l-57 -322q-14 -96 22 -135q53 -55 152 -55l-27 -148q-90 4 -157.5 -47t-82.5 -133l-53 -301 q-31 -184 -112.5 -261t-266.5 -77h-53z" />
<glyph unicode="~" horiz-adv-x="1300" d="M117 614q90 94 155.5 127t145.5 33q74 0 164 -35q25 -10 77 -33.5t78 -33.5q43 -16 80 -17q51 0 94 18.5t105 80.5l102 -117q-92 -94 -157.5 -127t-143.5 -33q-96 0 -239 70q-111 53 -162 53q-49 0 -93 -18.5t-106 -81.5z" />
<glyph unicode="&#xa1;" horiz-adv-x="669" d="M66 -422l81 459l146 553h119l-47 -553l-82 -459h-217zM276 807l41 223h220l-41 -223h-220z" />
<glyph unicode="&#xa2;" d="M127 600q0 119 29.5 230.5t87 207t155 156.5t217.5 70l33 188h125l-35 -197q135 -25 219 -120t84 -240q0 -6 -1 -16.5t-1 -16.5h-178q0 4 1 11.5t1 11.5q0 82 -40 140t-111 79l-140 -780q86 8 147.5 62t90.5 140h174q-25 -152 -150.5 -251t-287.5 -101l-31 -174h-125 l33 188q-137 35 -217 144.5t-80 267.5zM305 606q0 -143 78 -219q35 -33 70 -45l135 768q-82 -16 -146 -84q-70 -72 -103.5 -187.5t-33.5 -232.5z" />
<glyph unicode="&#xa3;" d="M-10 0l28 162q158 2 187 164l61 352h-164l27 149h164l43 248q29 172 142.5 275.5t281.5 103.5q152 0 247 -89t95 -228q0 -31 -6 -58h-174q6 43 6 45q0 84 -49.5 130t-137.5 46q-94 0 -153.5 -68.5t-75.5 -156.5l-43 -248h330l-27 -149h-328l-65 -367q-25 -129 -113 -151 v-4h422q78 0 125 46t61 120h173q-18 -156 -121 -239t-271 -83h-665z" />
<glyph unicode="&#xa4;" d="M-2 106l162 140q-86 123 -86 274.5t86 274.5l-162 133l135 135l137 -158q119 82 266.5 82t264.5 -82l141 160l133 -137l-160 -133q86 -123 86 -274.5t-86 -274.5l160 -140l-131 -131l-143 160q-119 -84 -264 -84q-141 0 -265 84l-141 -160zM240 520q0 -127 79.5 -218 t217.5 -91q139 0 218 87t79 222q0 131 -81 219t-216 88q-145 0 -221 -85t-76 -222z" />
<glyph unicode="&#xa5;" d="M80 346l20 125h338l33 186h-338l23 125h247l-251 641h182l246 -632l454 632h203l-479 -641h270l-22 -125h-361l-33 -186h361l-21 -125h-360l-62 -346h-176l62 346h-336z" />
<glyph unicode="&#xa6;" horiz-adv-x="557" d="M217 -102v630h156v-630h-156zM217 922v632h156v-632h-156z" />
<glyph unicode="&#xa7;" horiz-adv-x="1142" d="M53 -207q0 41 6 78h170q-4 -18 -4 -57q0 -76 51.5 -120t129.5 -44q90 0 153.5 57t63.5 148q0 84 -60 143l-352 350q-92 88 -92 223q0 205 231 330q-49 70 -49 172q0 174 115.5 278.5t290.5 104.5q133 0 234 -81t101 -210q0 -29 -8 -78h-170q6 27 6 58q0 74 -51 119 t-129 45q-94 0 -155.5 -55.5t-61.5 -149.5q0 -84 59 -143l353 -351q92 -88 92 -223q0 -205 -232 -330q49 -70 50 -172q0 -174 -116 -278.5t-292 -104.5q-137 0 -235.5 83t-98.5 208zM293 606q0 -82 49 -131l320 -323q141 70 141 202q0 80 -49 129l-320 324 q-141 -70 -141 -201z" />
<glyph unicode="&#xa8;" horiz-adv-x="585" d="M106 1227l33 188h189l-33 -188h-189zM467 1227l33 188h188l-33 -188h-188z" />
<glyph unicode="&#xa9;" horiz-adv-x="1757" d="M139 725q0 317 212 535.5t527.5 218.5t527.5 -217.5t212 -534.5t-212 -535.5t-527.5 -218.5t-527.5 217.5t-212 534.5zM276 725q0 -272 167 -446.5t435.5 -174.5t435.5 175.5t167 447.5t-167 446.5t-435.5 174.5t-435.5 -175.5t-167 -447.5zM524 725q0 170 99.5 287.5 t267.5 117.5q141 0 235.5 -82.5t104.5 -211.5h-156q-10 80 -60 120.5t-124 40.5q-94 0 -152 -71q-61 -76 -61 -201q0 -127 59 -201q57 -72 154 -71q74 0 124 41t60 120h156q-12 -131 -107.5 -213t-232.5 -82q-186 0 -289 148q-78 111 -78 258z" />
<glyph unicode="&#xaa;" horiz-adv-x="983" d="M141 862q0 92 69 166t216 84l231 14v54q0 86 -36 118q-43 39 -127 39q-94 0 -140 -45q-37 -37 -37 -98h-137q2 129 91 193.5t223 64.5q217 0 280 -154q20 -45 21 -122v-381q0 -49 41 -50l36 5v-105q-39 -20 -90 -20t-82.5 32.5t-35.5 81.5q-76 -123 -248 -123 q-129 0 -202 73t-73 173zM285 866q0 -55 36.5 -93t114.5 -38q96 0 156 62q66 66 65 176v43l-204 -12q-70 -4 -119 -38t-49 -100z" />
<glyph unicode="&#xab;" horiz-adv-x="1118" d="M68 614l419 467l103 -88l-311 -387l172 -399l-127 -70zM547 614l418 467l102 -88l-309 -387l170 -399l-125 -70z" />
<glyph unicode="&#xac;" horiz-adv-x="1271" d="M109 541v157h993v-495h-160v338h-833z" />
<glyph unicode="&#xad;" horiz-adv-x="886" d="M106 537l29 161h608l-28 -161h-609z" />
<glyph unicode="&#xae;" horiz-adv-x="1757" d="M139 725q0 317 212 535.5t527.5 218.5t527.5 -217.5t212 -534.5t-212 -535.5t-527.5 -218.5t-527.5 217.5t-212 534.5zM276 725q0 -272 167 -446.5t435.5 -174.5t435.5 175.5t167 447.5t-167 446.5t-435.5 174.5t-435.5 -175.5t-167 -447.5zM623 346v784h288 q119 0 199 -65.5t80 -179.5q0 -164 -141 -228l145 -311h-150l-131 289h-153v-289h-137zM758 762h153q135 0 136 123q0 57 -38 88t-98 31h-153v-242z" />
<glyph unicode="&#xaf;" horiz-adv-x="598" d="M106 1204l25 139h569l-24 -139h-570z" />
<glyph unicode="&#xb0;" horiz-adv-x="935" d="M203 1142.5q0 147.5 96 242t241.5 94.5t243 -95.5t97.5 -241t-97.5 -240.5t-243 -95t-241.5 94t-96 241.5zM356 1143q0 -84 52.5 -137.5t132.5 -53.5t133 53.5t53 137.5t-53 137t-133 53t-132.5 -53t-52.5 -137z" />
<glyph unicode="&#xb1;" horiz-adv-x="1157" d="M129 0v141h899v-141h-899zM129 680v143h379v379h143v-379h377v-143h-377v-383h-143v383h-379z" />
<glyph unicode="&#xb2;" horiz-adv-x="935" d="M176 702l23 129l360 267q104 78 105 147q0 43 -32 67.5t-75 24.5q-66 0 -110 -38.5t-56 -104.5h-145q25 125 114 198.5t215 73.5q98 0 167 -57t69 -149q0 -63 -34 -121t-69.5 -88.5t-101.5 -77.5l-186 -135h340l-23 -136h-561z" />
<glyph unicode="&#xb3;" horiz-adv-x="872" d="M193 913q0 20 2 31h137q-2 -8 -2 -26q0 -53 41 -84q37 -29 94 -29q63 0 111.5 31.5t48.5 91.5q0 100 -174 100l20 117q43 0 67.5 2t59.5 11t52.5 35t17.5 64q0 43 -33 70t-84 27q-135 0 -160 -129h-145q23 119 100 178q84 66 217 65q139 0 209 -84q43 -53 43 -114 q0 -66 -41 -117t-106 -68q43 -12 72.5 -56t29.5 -85q0 -125 -93 -190.5t-224 -65.5q-106 0 -183 61.5t-77 163.5z" />
<glyph unicode="&#xb4;" horiz-adv-x="491" d="M106 1231l394 250l71 -150l-413 -203z" />
<glyph unicode="&#xb5;" horiz-adv-x="1200" d="M170 -410v1446h174v-655q0 -123 51 -185.5t170 -62.5q98 0 172 78q86 88 86 287v538h174v-1036h-151l-15 158q-39 -86 -124.5 -134.5t-182.5 -48.5q-113 0 -180 54v-439h-174z" />
<glyph unicode="&#xb6;" horiz-adv-x="1337" d="M172 1014q0 193 132 315.5t337 122.5h664l-25 -141h-141l-275 -1567h-149l274 1567h-229l-275 -1567h-153l164 936q-133 0 -228.5 98.5t-95.5 235.5z" />
<glyph unicode="&#xb7;" horiz-adv-x="602" d="M141 506l43 244h242l-43 -244h-242z" />
<glyph unicode="&#xb8;" horiz-adv-x="348" d="M-137 -397l211 276h159l-204 -360z" />
<glyph unicode="&#xb9;" horiz-adv-x="688" d="M186 1155l29 160l223 137h133l-133 -745h-143l102 577z" />
<glyph unicode="&#xba;" horiz-adv-x="983" d="M190 1034q0 211 113 324q94 94 238 94q145 0 239 -94q111 -111 111 -324q0 -215 -111 -325q-94 -94 -239 -95q-143 0 -238 95q-113 112 -113 325zM336 1034q0 -172 70 -243q49 -53 135 -54q88 0 137 54q70 72 70 243q0 170 -70 242q-49 53 -137 53q-86 0 -135 -53 q-70 -72 -70 -242z" />
<glyph unicode="&#xbb;" horiz-adv-x="1118" d="M18 227l312 387l-176 398l127 67l260 -473l-420 -467zM498 227l309 387l-174 398l127 67l258 -473l-418 -467z" />
<glyph unicode="&#xbc;" horiz-adv-x="1763" d="M162 43l1308 1442l101 -82l-1313 -1446zM244 1155l28 160l224 137h133l-133 -745h-144l103 577zM897 154l25 141l376 461h166l-389 -482h211l27 160h139l-27 -160h121l-22 -120h-121l-27 -154h-139l27 154h-367z" />
<glyph unicode="&#xbd;" horiz-adv-x="1828" d="M162 43l1308 1442l101 -82l-1313 -1446zM244 1155l28 160l224 137h133l-133 -745h-144l103 577zM967 0l22 129l361 266q104 78 104 148q0 43 -31.5 67.5t-74.5 24.5q-66 0 -110 -39t-56 -104h-146q25 125 114 198.5t216 73.5q98 0 167 -57.5t69 -149.5q0 -63 -34 -120.5 t-70 -88.5t-101 -78l-187 -135h340l-22 -135h-561z" />
<glyph unicode="&#xbe;" horiz-adv-x="1867" d="M193 913q0 20 2 31h137q-2 -8 -2 -26q0 -53 41 -84q37 -29 94 -29q63 0 111.5 31.5t48.5 91.5q0 100 -174 100l20 117q43 0 67.5 2t59.5 11t52.5 35t17.5 64q0 43 -33 70t-84 27q-135 0 -160 -129h-145q23 119 100 178q84 66 217 65q139 0 209 -84q43 -53 43 -114 q0 -66 -41 -117t-106 -68q43 -12 72.5 -56t29.5 -85q0 -125 -93 -190.5t-224 -65.5q-106 0 -183 61.5t-77 163.5zM266 43l1309 1442l100 -82l-1313 -1446zM1001 154l25 141l377 461h166l-389 -482h211l26 160h139l-26 -160h121l-23 -120h-121l-26 -154h-140l27 154h-367z " />
<glyph unicode="&#xbf;" horiz-adv-x="1013" d="M20 -94q0 168 130 303q47 49 143 111.5t133 101.5q66 70 84 176l8 51h160l-8 -71q-16 -156 -101 -246q-41 -45 -133 -105.5t-129 -97.5q-37 -35 -53 -54.5t-34.5 -63.5t-18.5 -97q0 -70 45 -125q61 -74 184 -74q127 0 205 75t98 196h187q-33 -182 -142 -291 q-137 -137 -358 -137q-186 0 -301 110q-99 95 -99 238zM512 811l39 225h219l-39 -225h-219z" />
<glyph unicode="&#xc0;" horiz-adv-x="1259" d="M-115 0l768 1452h213l260 -1452h-182l-57 344h-633l-176 -344h-193zM342 516h514l-127 754zM580 1753l110 141l305 -252l-71 -92z" />
<glyph unicode="&#xc1;" horiz-adv-x="1259" d="M-115 0l768 1452h213l260 -1452h-182l-57 344h-633l-176 -344h-193zM342 516h514l-127 754zM549 1647l393 249l72 -149l-414 -203z" />
<glyph unicode="&#xc2;" horiz-adv-x="1259" d="M-115 0l768 1452h213l260 -1452h-182l-57 344h-633l-176 -344h-193zM342 516h514l-127 754zM461 1649l303 231h117l217 -235l-109 -101l-182 201l-260 -199z" />
<glyph unicode="&#xc3;" horiz-adv-x="1259" d="M-115 0l768 1452h213l260 -1452h-182l-57 344h-633l-176 -344h-193zM342 516h514l-127 754zM440 1712q119 111 228 111q59 0 134 -45t120 -45q74 0 139 61l61 -86q-106 -111 -227 -111q-66 0 -140.5 43t-113.5 43q-68 0 -135 -57z" />
<glyph unicode="&#xc4;" horiz-adv-x="1259" d="M-115 0l768 1452h213l260 -1452h-182l-57 344h-633l-176 -344h-193zM342 516h514l-127 754zM506 1616l33 188h188l-33 -188h-188zM866 1616l33 188h188l-32 -188h-189z" />
<glyph unicode="&#xc5;" horiz-adv-x="1259" d="M-115 0l733 1384q-94 72 -94 193q0 98 67.5 170t180.5 72t181.5 -72t68.5 -170q0 -70 -37 -129t-102 -90l243 -1358h-182l-57 344h-633l-176 -344h-193zM342 516h514l-127 754zM649 1577q0 -45 26.5 -81t72.5 -44h49q45 8 71.5 44t26.5 81q0 53 -34 90t-89 37t-89 -37 t-34 -90z" />
<glyph unicode="&#xc6;" horiz-adv-x="1863" d="M-129 0l913 1452h1102l-31 -170h-681l-74 -420h586l-31 -172h-586l-92 -518h692l-31 -172h-876l69 387h-516l-237 -387h-207zM422 559h440l127 729h-119z" />
<glyph unicode="&#xc7;" horiz-adv-x="1265" d="M82 518q0 219 68.5 442.5t205.5 356.5q168 162 400 162q221 0 362 -148q133 -139 133 -338h-188q0 141 -92 230q-84 82 -226 82q-147 0 -262 -115q-102 -102 -158.5 -297t-56.5 -365q0 -168 85 -274.5t249 -106.5q152 0 246 95q88 84 113 184h190q-43 -203 -205 -332 q-152 -121 -354 -121q-233 0 -371.5 153.5t-138.5 391.5zM264 -391l211 276h160l-205 -360z" />
<glyph unicode="&#xc8;" horiz-adv-x="1265" d="M76 0l254 1452h958l-28 -168h-775l-79 -442h686l-31 -170h-682l-90 -504h782l-27 -168h-968zM631 1761l110 142l306 -252l-72 -92z" />
<glyph unicode="&#xc9;" horiz-adv-x="1265" d="M76 0l254 1452h958l-28 -168h-775l-79 -442h686l-31 -170h-682l-90 -504h782l-27 -168h-968zM637 1647l393 249l72 -149l-414 -203z" />
<glyph unicode="&#xca;" horiz-adv-x="1265" d="M76 0l254 1452h958l-28 -168h-775l-79 -442h686l-31 -170h-682l-90 -504h782l-27 -168h-968zM496 1649l303 231h116l218 -235l-109 -101l-182 201l-260 -199z" />
<glyph unicode="&#xcb;" horiz-adv-x="1265" d="M76 0l254 1452h958l-28 -168h-775l-79 -442h686l-31 -170h-682l-90 -504h782l-27 -168h-968zM561 1616l33 188h188l-32 -188h-189zM922 1616l32 188h189l-33 -188h-188z" />
<glyph unicode="&#xcc;" horiz-adv-x="595" d="M76 0l256 1452h188l-256 -1452h-188zM238 1753l110 141l305 -252l-71 -92z" />
<glyph unicode="&#xcd;" horiz-adv-x="595" d="M70 0l256 1452h188l-256 -1452h-188zM199 1647l393 249l72 -149l-414 -203z" />
<glyph unicode="&#xce;" horiz-adv-x="595" d="M76 0l256 1452h188l-256 -1452h-188zM135 1649l303 231h117l217 -235l-108 -101l-183 201l-260 -199z" />
<glyph unicode="&#xcf;" horiz-adv-x="595" d="M70 0l256 1452h188l-256 -1452h-188zM170 1616l33 188h188l-33 -188h-188zM530 1616l33 188h189l-33 -188h-189z" />
<glyph unicode="&#xd0;" horiz-adv-x="1378" d="M76 0l121 686h-105l25 135h104l111 631h465q227 0 361 -147.5t134 -376.5q0 -215 -66.5 -430t-199.5 -344q-160 -154 -422 -154h-528zM289 168h338q168 0 274 106q100 98 154.5 288t54.5 356q0 160 -88 263t-246 103h-291l-82 -463h345l-25 -135h-342z" />
<glyph unicode="&#xd1;" horiz-adv-x="1503" d="M70 0l256 1452h209l497 -1192l205 1192h184l-256 -1452h-209l-497 1188l-205 -1188h-184zM547 1700q119 111 227 110q59 0 134 -45t120 -45q74 0 139 62l62 -86q-106 -111 -228 -111q-66 0 -140.5 43t-112.5 43q-68 0 -136 -57z" />
<glyph unicode="&#xd2;" horiz-adv-x="1341" d="M82 518q0 219 69.5 442.5t206.5 356.5q168 162 392 162q238 0 371.5 -155t133.5 -390q0 -221 -66.5 -443.5t-203.5 -355.5q-168 -162 -393 -162q-233 0 -371.5 153.5t-138.5 391.5zM268 528q0 -168 85 -274.5t249 -106.5q143 0 256 113q102 102 155.5 296t53.5 368 q0 168 -83 274.5t-245 106.5q-139 0 -254 -115q-102 -102 -159.5 -297t-57.5 -365zM635 1769l110 142l306 -252l-72 -92z" />
<glyph unicode="&#xd3;" horiz-adv-x="1341" d="M82 518q0 219 69.5 442.5t206.5 356.5q168 162 392 162q238 0 371.5 -155t133.5 -390q0 -221 -66.5 -443.5t-203.5 -355.5q-168 -162 -393 -162q-233 0 -371.5 153.5t-138.5 391.5zM268 528q0 -168 85 -274.5t249 -106.5q143 0 256 113q102 102 155.5 296t53.5 368 q0 168 -83 274.5t-245 106.5q-139 0 -254 -115q-102 -102 -159.5 -297t-57.5 -365zM580 1657l393 250l71 -150l-413 -203z" />
<glyph unicode="&#xd4;" horiz-adv-x="1341" d="M82 518q0 219 69.5 442.5t206.5 356.5q168 162 392 162q238 0 371.5 -155t133.5 -390q0 -221 -66.5 -443.5t-203.5 -355.5q-168 -162 -393 -162q-233 0 -371.5 153.5t-138.5 391.5zM268 528q0 -168 85 -274.5t249 -106.5q143 0 256 113q102 102 155.5 296t53.5 368 q0 168 -83 274.5t-245 106.5q-139 0 -254 -115q-102 -102 -159.5 -297t-57.5 -365zM496 1649l303 231h116l218 -235l-109 -101l-182 201l-260 -199z" />
<glyph unicode="&#xd5;" horiz-adv-x="1341" d="M82 518q0 219 69.5 442.5t206.5 356.5q168 162 392 162q238 0 371.5 -155t133.5 -390q0 -221 -66.5 -443.5t-203.5 -355.5q-168 -162 -393 -162q-233 0 -371.5 153.5t-138.5 391.5zM268 528q0 -168 85 -274.5t249 -106.5q143 0 256 113q102 102 155.5 296t53.5 368 q0 168 -83 274.5t-245 106.5q-139 0 -254 -115q-102 -102 -159.5 -297t-57.5 -365zM494 1712q119 111 227 111q59 0 134 -45t120 -45q74 0 139 61l62 -86q-106 -111 -228 -111q-66 0 -140.5 43t-113.5 43q-68 0 -135 -57z" />
<glyph unicode="&#xd6;" horiz-adv-x="1341" d="M82 518q0 219 69.5 442.5t206.5 356.5q168 162 392 162q238 0 371.5 -155t133.5 -390q0 -221 -66.5 -443.5t-203.5 -355.5q-168 -162 -393 -162q-233 0 -371.5 153.5t-138.5 391.5zM268 528q0 -168 85 -274.5t249 -106.5q143 0 256 113q102 102 155.5 296t53.5 368 q0 168 -83 274.5t-245 106.5q-139 0 -254 -115q-102 -102 -159.5 -297t-57.5 -365zM545 1620l33 188h188l-33 -188h-188zM905 1620l33 188h188l-32 -188h-189z" />
<glyph unicode="&#xd7;" horiz-adv-x="1388" d="M129 156l455 454l-455 455l111 111l452 -455l457 455l111 -111l-457 -455l457 -454l-111 -111l-455 455l-454 -455z" />
<glyph unicode="&#xd8;" horiz-adv-x="1341" d="M82 518q0 219 69.5 442.5t206.5 356.5q168 162 392 162q162 0 282 -78l109 172l102 -51l-123 -197q135 -147 135 -391q0 -223 -66.5 -444.5t-203.5 -354.5q-168 -162 -393 -162q-156 0 -279 76l-118 -190l-105 53l133 211q-141 151 -141 395zM268 528q0 -145 60 -239 l606 958q-76 57 -195 58q-139 0 -254 -115q-102 -102 -159.5 -297t-57.5 -365zM412 203q78 -55 190 -56q143 0 256 113q102 102 155.5 296t53.5 368q0 141 -53 233z" />
<glyph unicode="&#xd9;" horiz-adv-x="1417" d="M141 428q0 82 11 141l155 883h185l-160 -903q-8 -49 -8 -115q0 -139 75 -213q80 -78 242 -78q152 0 251 100.5t126 248.5l170 960h184l-170 -965q-51 -295 -270 -432q-127 -82 -303 -82q-244 0 -379 146q-109 119 -109 309zM639 1753l111 141l305 -252l-72 -92z" />
<glyph unicode="&#xda;" horiz-adv-x="1417" d="M141 428q0 82 11 141l155 883h185l-160 -903q-8 -49 -8 -115q0 -139 75 -213q80 -78 242 -78q152 0 251 100.5t126 248.5l170 960h184l-170 -965q-51 -295 -270 -432q-127 -82 -303 -82q-244 0 -379 146q-109 119 -109 309zM637 1647l393 249l72 -149l-414 -203z" />
<glyph unicode="&#xdb;" horiz-adv-x="1417" d="M139 432q0 70 13 137l155 883h185l-160 -903q-10 -61 -10 -111q0 -143 85 -217t236.5 -74t249.5 95.5t125 249.5l170 960h184l-170 -965q-41 -233 -189.5 -373.5t-379.5 -140.5q-221 0 -357.5 125t-136.5 334zM547 1649l303 231h117l217 -235l-109 -101l-182 201 l-260 -199z" />
<glyph unicode="&#xdc;" horiz-adv-x="1417" d="M141 428q0 82 11 141l155 883h185l-160 -903q-8 -49 -8 -115q0 -139 75 -213q80 -78 242 -78q152 0 251 100.5t126 248.5l170 960h184l-170 -965q-51 -295 -270 -432q-127 -82 -303 -82q-244 0 -379 146q-109 119 -109 309zM582 1618l32 188h189l-33 -188h-188zM942 1618 l33 188h188l-33 -188h-188z" />
<glyph unicode="&#xdd;" horiz-adv-x="1136" d="M113 1452h186l260 -690l500 690h207l-641 -864l-103 -588h-186l106 588zM496 1632l393 250l72 -149l-414 -203z" />
<glyph unicode="&#xde;" horiz-adv-x="1234" d="M72 0l256 1454h184l-47 -272h297q182 0 303 -98.5t121 -276.5q0 -240 -152.5 -377t-392.5 -137h-334l-51 -293h-184zM336 459h311q158 0 253 89t95 245q0 113 -75.5 168t-192.5 55h-293z" />
<glyph unicode="&#xdf;" horiz-adv-x="1224" d="M70 874l26 156h176l7 35q33 195 154.5 311.5t305.5 116.5q166 0 270.5 -96.5t104.5 -241.5q0 -131 -75.5 -236.5t-200.5 -125.5q119 -25 187.5 -121.5t68.5 -220.5q0 -205 -135.5 -339.5t-344.5 -134.5q-111 0 -219 35l25 144q84 -25 176 -25q150 0 234.5 88t84.5 238 q0 123 -79.5 192.5t-198.5 69.5h-55l26 151h76q109 0 180.5 84t71.5 195q0 94 -56.5 145.5t-150.5 51.5q-111 0 -182.5 -80t-91.5 -205l-185 -1061h-176l152 874h-176z" />
<glyph unicode="&#xe0;" horiz-adv-x="1161" d="M53 416q0 145 50.5 283.5t146.5 232.5q135 131 315 131q86 0 162 -39q84 -43 121 -121l51 133h143l-182 -1036h-133v154q-43 -78 -131 -129.5t-176 -51.5q-156 0 -252 103q-115 121 -115 340zM231 416q0 -147 66 -223q59 -70 149 -70q102 0 183.5 84t121.5 200.5 t40 235.5q0 113 -37 170q-61 100 -179 100q-109 0 -196 -88q-72 -74 -110 -188.5t-38 -220.5zM436 1335l111 142l305 -252l-72 -92z" />
<glyph unicode="&#xe1;" horiz-adv-x="1161" d="M53 416q0 145 50.5 283.5t146.5 232.5q135 131 315 131q86 0 162 -39q84 -43 121 -121l51 133h143l-182 -1036h-133v154q-43 -78 -131 -129.5t-176 -51.5q-156 0 -252 103q-115 121 -115 340zM231 416q0 -147 66 -223q59 -70 149 -70q102 0 183.5 84t121.5 200.5 t40 235.5q0 113 -37 170q-61 100 -179 100q-109 0 -196 -88q-72 -74 -110 -188.5t-38 -220.5zM412 1239l393 250l72 -150l-414 -202z" />
<glyph unicode="&#xe2;" horiz-adv-x="1161" d="M53 416q0 145 50.5 283.5t146.5 232.5q135 131 315 131q86 0 162 -39q84 -43 121 -121l51 133h143l-182 -1036h-133v154q-43 -78 -131 -129.5t-176 -51.5q-156 0 -252 103q-115 121 -115 340zM231 416q0 -147 66 -223q59 -70 149 -70q102 0 183.5 84t121.5 200.5 t40 235.5q0 102 -39 170q-59 100 -177 100q-109 0 -196 -88q-72 -74 -110 -188.5t-38 -220.5zM336 1239l266 236h113l186 -244l-106 -82l-150 188l-223 -192z" />
<glyph unicode="&#xe3;" horiz-adv-x="1161" d="M53 416q0 145 50.5 283.5t146.5 232.5q135 131 315 131q86 0 162 -39q84 -43 121 -121l51 133h143l-182 -1036h-133v154q-43 -78 -131 -129.5t-176 -51.5q-156 0 -252 103q-115 121 -115 340zM231 416q0 -147 66 -223q59 -70 149 -70q102 0 183.5 84t121.5 200.5 t40 235.5q0 113 -37 170q-61 100 -179 100q-109 0 -196 -88q-72 -74 -110 -188.5t-38 -220.5zM328 1329q119 111 227 111q59 0 134 -45t120 -45q74 0 139 61l62 -86q-106 -111 -228 -111q-66 0 -140.5 43t-113.5 43q-68 0 -135 -57z" />
<glyph unicode="&#xe4;" horiz-adv-x="1161" d="M53 416q0 145 50.5 283.5t146.5 232.5q135 131 315 131q86 0 162 -39q84 -43 121 -121l51 133h143l-182 -1036h-133v154q-43 -78 -131 -129.5t-176 -51.5q-156 0 -252 103q-115 121 -115 340zM231 416q0 -147 66 -223q59 -70 149 -70q102 0 183.5 84t121.5 200.5 t40 235.5q0 113 -37 170q-61 100 -179 100q-109 0 -196 -88q-72 -74 -110 -188.5t-38 -220.5zM381 1233l33 188h188l-33 -188h-188zM741 1233l33 188h189l-33 -188h-189z" />
<glyph unicode="&#xe5;" horiz-adv-x="1161" d="M53 416q0 145 50.5 283.5t146.5 232.5q135 131 315 131q86 0 162 -39q84 -43 121 -121l51 133h143l-182 -1036h-133v154q-43 -78 -131 -129.5t-176 -51.5q-156 0 -252 103q-115 121 -115 340zM231 416q0 -147 66 -223q59 -70 149 -70q102 0 183.5 84t121.5 200.5 t40 235.5q0 113 -37 170q-61 100 -179 100q-109 0 -196 -88q-72 -74 -110 -188.5t-38 -220.5zM453 1374q0 88 61 153.5t163.5 65.5t164 -65.5t61.5 -153.5t-61.5 -153.5t-164 -65.5t-163.5 65.5t-61 153.5zM565 1374q0 -47 32 -79.5t81 -32.5t79.5 32.5t30.5 79.5t-30.5 81 t-79.5 34t-81 -34t-32 -81z" />
<glyph unicode="&#xe6;" horiz-adv-x="1730" d="M16 248q0 164 116 263t280 99h325q14 70 15 127q0 80 -43 125q-51 55 -140 56q-94 0 -155 -35q-88 -53 -111 -152h-170q35 162 160 247t295 85q92 0 175 -42t116 -116q49 57 98 86q117 72 244 72q178 0 284 -119q109 -121 109 -313q0 -86 -21 -168h-712q-2 -18 -2 -55 q0 -129 67.5 -207t186.5 -78q78 0 140 45t97 123h174q-47 -147 -162.5 -232.5t-265.5 -85.5q-113 0 -210 57.5t-142 157.5q-102 -145 -268 -194q-70 -20 -156 -21q-162 0 -252 103q-72 82 -72 172zM195 270q0 -68 50 -107.5t120 -39.5q119 0 208 76q113 94 144 274h-287 q-102 0 -168.5 -55.5t-66.5 -147.5zM903 612h539q2 14 2 39q0 113 -62.5 188.5t-171.5 75.5q-117 0 -202 -92q-70 -76 -105 -211z" />
<glyph unicode="&#xe7;" horiz-adv-x="1067" d="M53 399q0 166 53.5 312.5t175 249t291.5 102.5t283 -99.5t113 -269.5q0 -6 -1 -16t-1 -16h-179q0 4 1.5 11t1.5 11q0 102 -61.5 165.5t-164.5 63.5q-113 0 -196 -88q-70 -72 -104 -187.5t-34 -231.5q0 -143 78 -220q68 -63 168 -63q94 0 162 55t98 148h174 q-25 -154 -151.5 -253.5t-290.5 -99.5q-184 0 -300 118t-116 308zM147 -397l211 276h160l-205 -360z" />
<glyph unicode="&#xe8;" horiz-adv-x="1103" d="M53 432q0 139 50.5 271.5t142.5 222.5q137 137 338 137q182 0 293 -119q113 -121 112 -313q0 -86 -20 -168h-736q-2 -18 -2 -55q0 -129 70 -207t193 -78q80 0 144 45t99 123h181q-47 -147 -167 -232.5t-276 -85.5q-236 0 -350 185q-72 118 -72 274zM256 612h555 q2 14 2 39q0 113 -63.5 188.5t-176.5 75.5q-117 0 -208 -96q-74 -74 -109 -207zM457 1335l110 142l305 -252l-71 -92z" />
<glyph unicode="&#xe9;" horiz-adv-x="1103" d="M53 432q0 139 50.5 271.5t142.5 222.5q137 137 338 137q182 0 293 -119q113 -121 112 -313q0 -86 -20 -168h-736q-2 -18 -2 -55q0 -129 70 -207t193 -78q80 0 144 45t99 123h181q-47 -147 -167 -232.5t-276 -85.5q-236 0 -350 185q-72 118 -72 274zM256 612h555 q2 14 2 39q0 113 -63.5 188.5t-176.5 75.5q-117 0 -208 -96q-74 -74 -109 -207zM442 1235l394 250l71 -150l-413 -202z" />
<glyph unicode="&#xea;" horiz-adv-x="1103" d="M53 432q0 139 50.5 271.5t142.5 222.5q137 137 338 137q182 0 293 -119q113 -121 112 -313q0 -86 -20 -168h-736q-2 -18 -2 -55q0 -129 70 -207t193 -78q80 0 144 45t99 123h181q-47 -147 -167 -232.5t-276 -85.5q-236 0 -350 185q-72 118 -72 274zM256 612h555 q2 14 2 39q0 113 -63.5 188.5t-176.5 75.5q-117 0 -208 -96q-74 -74 -109 -207zM330 1239l266 236h113l186 -244l-107 -82l-149 188l-223 -192z" />
<glyph unicode="&#xeb;" horiz-adv-x="1103" d="M53 432q0 139 50.5 271.5t142.5 222.5q137 137 338 137q182 0 293 -119q113 -121 112 -313q0 -86 -20 -168h-736q-2 -18 -2 -55q0 -129 70 -207t193 -78q80 0 144 45t99 123h181q-47 -147 -167 -232.5t-276 -85.5q-236 0 -350 185q-72 118 -72 274zM256 612h555 q2 14 2 39q0 113 -63.5 188.5t-176.5 75.5q-117 0 -208 -96q-74 -74 -109 -207zM367 1227l32 188h189l-33 -188h-188zM727 1227l33 188h188l-33 -188h-188z" />
<glyph unicode="&#xec;" horiz-adv-x="548" d="M57 0l185 1036h178l-184 -1036h-179zM145 1335l111 142l305 -252l-72 -92z" />
<glyph unicode="&#xed;" horiz-adv-x="548" d="M57 0l185 1036h180l-184 -1036h-181zM152 1231l393 250l71 -150l-413 -203z" />
<glyph unicode="&#xee;" horiz-adv-x="548" d="M57 0l185 1036h180l-184 -1036h-181zM82 1239l266 236h113l186 -244l-106 -82l-150 188l-223 -192z" />
<glyph unicode="&#xef;" horiz-adv-x="548" d="M57 0l185 1036h178l-184 -1036h-179zM86 1227l33 188h188l-33 -188h-188zM446 1227l33 188h189l-33 -188h-189z" />
<glyph unicode="&#xf0;" horiz-adv-x="1120" d="M61 406q0 121 32 234.5t93.5 209.5t165 154.5t232.5 58.5q55 0 114 -16l-55 157h-246l23 121h174l-55 154h168l59 -154h209l-23 -121h-137l148 -405q29 -76 28 -168q0 -121 -31.5 -234.5t-93 -210t-165 -155t-232.5 -58.5q-193 0 -309 140q-99 117 -99 293zM240 410 q0 -121 62.5 -204t180.5 -83q115 0 194 88t107.5 195.5t28.5 220.5q0 121 -62.5 203.5t-181.5 82.5q-115 0 -193.5 -88t-107 -195t-28.5 -220z" />
<glyph unicode="&#xf1;" horiz-adv-x="1177" d="M57 0l183 1036h141v-143q55 78 148.5 124t187.5 46q145 0 227 -82q72 -72 72 -199q0 -43 -17 -147l-112 -635h-174l110 623q14 78 15 114q0 86 -39 125q-47 47 -135 47q-72 0 -139.5 -45t-110.5 -110q-68 -102 -92 -248l-91 -506h-174zM367 1329q119 111 227 111 q59 0 134 -45t120 -45q74 0 139 61l62 -86q-106 -111 -228 -111q-66 0 -140.5 43t-113.5 43q-68 0 -135 -57z" />
<glyph unicode="&#xf2;" horiz-adv-x="1110" d="M53 406q0 121 32 234.5t93.5 209.5t164.5 154.5t232 58.5q193 0 308 -137q100 -119 100 -295q0 -121 -31.5 -234.5t-93 -210t-165 -155t-232.5 -58.5q-193 0 -307 138q-101 119 -101 295zM231 410q0 -123 61.5 -205t182.5 -82q115 0 194 88t107.5 195.5t28.5 220.5 q0 123 -61.5 204.5t-182.5 81.5q-115 0 -193.5 -88t-107.5 -195t-29 -220zM444 1335l111 142l305 -252l-72 -92z" />
<glyph unicode="&#xf3;" horiz-adv-x="1110" d="M53 406q0 121 32 234.5t93.5 209.5t164.5 154.5t232 58.5q193 0 308 -137q100 -119 100 -295q0 -121 -31.5 -234.5t-93 -210t-165 -155t-232.5 -58.5q-193 0 -307 138q-101 119 -101 295zM231 410q0 -123 61.5 -205t182.5 -82q115 0 194 88t107.5 195.5t28.5 220.5 q0 123 -61.5 204.5t-182.5 81.5q-115 0 -193.5 -88t-107.5 -195t-29 -220zM432 1237l393 250l72 -150l-414 -202z" />
<glyph unicode="&#xf4;" horiz-adv-x="1110" d="M53 406q0 121 32 234.5t93.5 209.5t164.5 154.5t232 58.5q193 0 308 -137q100 -119 100 -295q0 -121 -31.5 -234.5t-93 -210t-165 -155t-232.5 -58.5q-193 0 -307 138q-101 119 -101 295zM231 410q0 -123 61.5 -205t182.5 -82q115 0 194 88t107.5 195.5t28.5 220.5 q0 123 -61.5 204.5t-182.5 81.5q-115 0 -193.5 -88t-107.5 -195t-29 -220zM336 1239l266 236h113l186 -244l-106 -82l-150 188l-223 -192z" />
<glyph unicode="&#xf5;" horiz-adv-x="1110" d="M53 406q0 121 32 234.5t93.5 209.5t164.5 154.5t232 58.5q193 0 308 -137q100 -119 100 -295q0 -121 -31.5 -234.5t-93 -210t-165 -155t-232.5 -58.5q-193 0 -307 138q-101 119 -101 295zM231 410q0 -123 61.5 -205t182.5 -82q115 0 194 88t107.5 195.5t28.5 220.5 q0 123 -61.5 204.5t-182.5 81.5q-115 0 -193.5 -88t-107.5 -195t-29 -220zM336 1341q119 111 227 111q59 0 134 -45t120 -45q74 0 139 61l62 -86q-106 -111 -227 -110q-66 0 -141 43t-113 43q-68 0 -136 -58z" />
<glyph unicode="&#xf6;" horiz-adv-x="1110" d="M53 406q0 121 32 234.5t93.5 209.5t164.5 154.5t232 58.5q193 0 308 -137q100 -119 100 -295q0 -121 -31.5 -234.5t-93 -210t-165 -155t-232.5 -58.5q-193 0 -307 138q-101 119 -101 295zM231 410q0 -123 61.5 -205t182.5 -82q115 0 194 88t107.5 195.5t28.5 220.5 q0 123 -61.5 204.5t-182.5 81.5q-115 0 -193.5 -88t-107.5 -195t-29 -220zM358 1227l33 188h189l-33 -188h-189zM719 1227l33 188h188l-33 -188h-188z" />
<glyph unicode="&#xf7;" horiz-adv-x="1327" d="M133 535v159h1028v-159h-1028zM526 98v242h234v-242h-234zM526 905v242h234v-242h-234z" />
<glyph unicode="&#xf8;" horiz-adv-x="1118" d="M53 406q0 121 32 234.5t93.5 209.5t164.5 154.5t232 58.5q113 0 207 -53l121 188l88 -57l-125 -197q117 -119 117 -313q0 -121 -31.5 -234.5t-93 -210t-165 -155t-232.5 -58.5q-98 0 -185 41l-110 -172l-90 60l110 174q-12 10 -32 35q-101 119 -101 295zM231 410 q0 -111 50 -189l415 653q-55 39 -135 39q-115 0 -193.5 -88t-107.5 -195t-29 -220zM360 150q53 -27 115 -27q115 0 194 88t107.5 195.5t28.5 220.5q0 96 -35 164z" />
<glyph unicode="&#xf9;" horiz-adv-x="1175" d="M100 287q0 53 9 102l114 647h174l-112 -637q-6 -39 -6 -77q0 -90 49 -144q47 -51 137 -51q125 0 225 147q57 84 88 256l90 506h174l-182 -1036h-143v133q-49 -76 -134 -118t-171 -42q-131 0 -215 74q-97 84 -97 240zM436 1335l111 142l305 -252l-72 -92z" />
<glyph unicode="&#xfa;" horiz-adv-x="1175" d="M100 287q0 53 9 102l114 647h174l-112 -637q-6 -39 -6 -77q0 -90 49 -144q47 -51 137 -51q125 0 225 147q57 84 88 256l90 506h174l-182 -1036h-143v133q-49 -76 -134 -118t-171 -42q-131 0 -215 74q-97 84 -97 240zM459 1235l393 250l72 -150l-414 -202z" />
<glyph unicode="&#xfb;" horiz-adv-x="1175" d="M100 287q0 53 9 102l114 647h174l-112 -637q-6 -39 -6 -77q0 -90 49 -144q47 -51 137 -51q125 0 225 147q57 84 88 256l90 506h174l-182 -1036h-143v133q-49 -76 -134 -118t-171 -42q-131 0 -215 74q-97 84 -97 240zM358 1239l304 268h112l209 -268l-102 -92l-181 235 l-260 -235z" />
<glyph unicode="&#xfc;" horiz-adv-x="1175" d="M100 287q0 53 9 102l114 647h174l-112 -637q-6 -39 -6 -77q0 -90 49 -144q47 -51 137 -51q125 0 225 147q57 84 88 256l90 506h174l-182 -1036h-143v133q-49 -76 -134 -118t-171 -42q-131 0 -215 74q-97 84 -97 240zM401 1227l33 188h189l-33 -188h-189zM762 1227l33 188 h188l-33 -188h-188z" />
<glyph unicode="&#xfd;" horiz-adv-x="1017" d="M-131 -377l29 148q80 -49 153 -50q88 0 133 82l115 209l-227 1024h182l168 -811l432 811h193l-711 -1296q-98 -178 -256 -178q-117 0 -211 61zM406 1235l393 250l71 -150l-413 -202z" />
<glyph unicode="&#xfe;" horiz-adv-x="1191" d="M-20 -444l337 1923h175l-95 -545q104 129 289 129q82 0 158 -37t123 -100q92 -123 92 -305q0 -158 -52.5 -301.5t-169 -245t-276.5 -101.5q-94 0 -179 44t-128 128l-102 -589h-172zM313 422q0 -127 59.5 -212t184.5 -85q98 0 180 78q143 135 144 418q0 125 -56.5 212 t-175.5 87q-86 0 -157 -56q-139 -104 -173 -360q-6 -41 -6 -82z" />
<glyph unicode="&#xff;" horiz-adv-x="1017" d="M-131 -375l25 135q80 -49 151 -49q88 0 133 82l121 219l-227 1024h182l168 -811l432 811h193l-711 -1296q-98 -178 -266 -178q-107 0 -201 63zM307 1227l33 188h188l-32 -188h-189zM668 1227l32 188h189l-33 -188h-188z" />
<glyph unicode="&#x100;" horiz-adv-x="1259" d="M-115 0l768 1452h213l260 -1452h-182l-57 344h-633l-176 -344h-193zM342 516h514l-127 754zM479 1585l25 139h569l-24 -139h-570z" />
<glyph unicode="&#x101;" horiz-adv-x="1161" d="M53 416q0 145 50.5 283.5t146.5 232.5q135 131 315 131q86 0 162 -39q84 -43 121 -121l51 133h143l-182 -1036h-133v154q-43 -78 -131 -129.5t-176 -51.5q-156 0 -252 103q-115 121 -115 340zM231 416q0 -147 66 -223q59 -70 149 -70q102 0 183.5 84t121.5 200.5 t40 235.5q0 102 -39 170q-59 100 -177 100q-109 0 -196 -88q-72 -74 -110 -188.5t-38 -220.5zM365 1204l24 139h569l-24 -139h-569z" />
<glyph unicode="&#x102;" horiz-adv-x="1259" d="M-115 0l768 1452h213l260 -1452h-182l-57 344h-633l-176 -344h-193zM342 516h514l-127 754zM481 1821q0 29 2 43h135v-23q0 -74 46.5 -120t119.5 -46q172 0 228 189h145q-37 -147 -138 -233.5t-251 -86.5q-123 0 -205 77t-82 200z" />
<glyph unicode="&#x103;" horiz-adv-x="1161" d="M53 416q0 145 50.5 283.5t146.5 232.5q135 131 315 131q86 0 162 -39q84 -43 121 -121l51 133h143l-182 -1036h-133v154q-43 -78 -131 -129.5t-176 -51.5q-156 0 -252 103q-115 121 -115 340zM231 416q0 -147 66 -223q59 -70 149 -70q102 0 183.5 84t121.5 200.5 t40 235.5q0 102 -39 170q-59 100 -177 100q-109 0 -196 -88q-72 -74 -110 -188.5t-38 -220.5zM344 1411q0 29 2 43h135v-22q0 -74 46 -120t120 -46q172 0 227 188h146q-37 -147 -138.5 -233t-250.5 -86q-123 0 -205 76.5t-82 199.5z" />
<glyph unicode="&#x104;" horiz-adv-x="1259" d="M-115 0l768 1452h213l260 -1452h-4q-68 -25 -127 -82t-59 -117q0 -68 78 -67l61 2l-18 -119q-51 -12 -88 -14h-21q-82 0 -127 43t-45 112q0 61 55.5 135t122.5 107h-10l-57 344h-633l-176 -344h-193zM342 516h514l-127 754z" />
<glyph unicode="&#x105;" horiz-adv-x="1161" d="M53 416q0 145 50.5 283.5t146.5 232.5q135 131 315 131q86 0 162 -39q84 -43 121 -121l51 133h143l-182 -1036q-68 -25 -127 -82t-59 -117q0 -68 78 -67l61 2l-18 -119q-51 -12 -88 -14h-21q-82 0 -127 43t-45 112q0 61 55.5 135t122.5 107l35 16v138 q-43 -78 -131 -129.5t-176 -51.5q-156 0 -252 103q-115 121 -115 340zM231 416q0 -147 66 -223q59 -70 149 -70q102 0 183.5 84t121.5 200.5t40 235.5q0 102 -39 170q-59 100 -177 100q-109 0 -196 -88q-72 -74 -110 -188.5t-38 -220.5z" />
<glyph unicode="&#x106;" horiz-adv-x="1265" d="M82 518q0 219 68.5 442.5t205.5 356.5q168 162 400 162q221 0 362 -148q133 -139 133 -338h-188q0 141 -92 230q-84 82 -226 82q-147 0 -262 -115q-102 -102 -158.5 -297t-56.5 -365q0 -168 85 -274.5t249 -106.5q152 0 246 95q88 84 113 184h190q-43 -203 -205 -332 q-152 -121 -354 -121q-233 0 -371.5 153.5t-138.5 391.5zM651 1647l393 249l72 -149l-414 -203z" />
<glyph unicode="&#x107;" horiz-adv-x="1067" d="M53 399q0 166 53.5 312.5t175 249t291.5 102.5t283 -99.5t113 -269.5q0 -6 -1 -16t-1 -16h-179q0 4 1.5 11t1.5 11q0 102 -61.5 165.5t-164.5 63.5q-113 0 -196 -88q-70 -72 -104 -187.5t-34 -231.5q0 -143 78 -220q68 -63 168 -63q94 0 162 55t98 148h174 q-25 -154 -151.5 -253.5t-290.5 -99.5q-184 0 -300 118t-116 308zM483 1231l394 250l71 -150l-413 -203z" />
<glyph unicode="&#x108;" horiz-adv-x="1265" d="M82 518q0 219 68.5 442.5t205.5 356.5q168 162 400 162q221 0 362 -148q133 -139 133 -338h-188q0 141 -92 230q-84 82 -226 82q-147 0 -262 -115q-102 -102 -158.5 -297t-56.5 -365q0 -168 85 -274.5t249 -106.5q152 0 246 95q88 84 113 184h190q-43 -203 -205 -332 q-152 -121 -354 -121q-233 0 -371.5 153.5t-138.5 391.5zM483 1649l303 231h117l217 -235l-108 -101l-183 201l-260 -199z" />
<glyph unicode="&#x109;" horiz-adv-x="1067" d="M53 399q0 166 53.5 312.5t175 249t291.5 102.5t283 -99.5t113 -269.5q0 -6 -1 -16t-1 -16h-179q0 4 1.5 11t1.5 11q0 102 -61.5 165.5t-164.5 63.5q-113 0 -196 -88q-70 -72 -104 -187.5t-34 -231.5q0 -143 78 -220q68 -63 168 -63q94 0 162 55t98 148h174 q-25 -154 -151.5 -253.5t-290.5 -99.5q-184 0 -300 118t-116 308zM352 1239l266 236h113l187 -244l-107 -82l-149 188l-224 -192z" />
<glyph unicode="&#x10a;" horiz-adv-x="1265" d="M82 518q0 219 68.5 442.5t205.5 356.5q168 162 400 162q221 0 362 -148q133 -139 133 -338h-188q0 141 -92 230q-84 82 -226 82q-147 0 -262 -115q-102 -102 -158.5 -297t-56.5 -365q0 -168 85 -274.5t249 -106.5q152 0 246 95q88 84 113 184h190q-43 -203 -205 -332 q-152 -121 -354 -121q-233 0 -371.5 153.5t-138.5 391.5zM702 1616l33 188h189l-33 -188h-189z" />
<glyph unicode="&#x10b;" horiz-adv-x="1067" d="M53 399q0 166 53.5 312.5t175 249t291.5 102.5t283 -99.5t113 -269.5q0 -6 -1 -16t-1 -16h-179q0 4 1.5 11t1.5 11q0 102 -61.5 165.5t-164.5 63.5q-113 0 -196 -88q-70 -72 -104 -187.5t-34 -231.5q0 -143 78 -220q68 -63 168 -63q94 0 162 55t98 148h174 q-25 -154 -151.5 -253.5t-290.5 -99.5q-184 0 -300 118t-116 308zM528 1227l33 188h189l-33 -188h-189z" />
<glyph unicode="&#x10c;" horiz-adv-x="1265" d="M82 518q0 219 68.5 442.5t205.5 356.5q168 162 400 162q221 0 362 -148q133 -139 133 -338h-188q0 141 -92 230q-84 82 -226 82q-147 0 -262 -115q-102 -102 -158.5 -297t-56.5 -365q0 -168 85 -274.5t249 -106.5q152 0 246 95q88 84 113 184h190q-43 -203 -205 -332 q-152 -121 -354 -121q-233 0 -371.5 153.5t-138.5 391.5zM504 1780l108 100l183 -201l260 199l86 -102l-303 -232h-117z" />
<glyph unicode="&#x10d;" horiz-adv-x="1067" d="M53 399q0 166 53.5 312.5t175 249t291.5 102.5t283 -99.5t113 -269.5q0 -6 -1 -16t-1 -16h-179q0 4 1.5 11t1.5 11q0 102 -61.5 165.5t-164.5 63.5q-113 0 -196 -88q-70 -72 -104 -187.5t-34 -231.5q0 -143 78 -220q68 -63 168 -63q94 0 162 55t98 148h174 q-25 -154 -151.5 -253.5t-290.5 -99.5q-184 0 -300 118t-116 308zM383 1384l113 82l141 -188l223 192l86 -94l-266 -235h-113z" />
<glyph unicode="&#x10e;" horiz-adv-x="1378" d="M76 0l256 1452h465q227 0 361 -147.5t134 -376.5q0 -215 -66.5 -430t-199.5 -344q-160 -154 -422 -154h-528zM289 168h338q168 0 274 106q100 98 154.5 288t54.5 356q0 160 -88 263t-246 103h-291zM487 1780l109 100l182 -201l260 199l86 -102l-303 -232h-116z" />
<glyph unicode="&#x10f;" horiz-adv-x="1193" d="M61 416q0 139 48.5 274t138.5 230q137 143 332 143q92 0 176 -44t116 -126l103 586h176l-260 -1479h-146v131q-51 -78 -135 -118t-176 -40q-168 0 -274 133q-99 122 -99 310zM242 416q0 -123 57 -208t176 -85q84 0 156 55q117 88 157 256q25 102 25 180q0 129 -55.5 214 t-179.5 85q-98 0 -181 -77q-76 -72 -115.5 -187.5t-39.5 -232.5zM1153 1163q80 37 92 117l2 12h-67l32 187h158l-31 -174q-25 -147 -168 -209z" />
<glyph unicode="&#x110;" horiz-adv-x="1378" d="M76 0l121 686h-105l25 135h104l111 631h465q227 0 361 -147.5t134 -376.5q0 -215 -66.5 -430t-199.5 -344q-160 -154 -422 -154h-528zM289 168h338q168 0 274 106q100 98 154.5 288t54.5 356q0 160 -88 263t-246 103h-291l-82 -463h345l-25 -135h-342z" />
<glyph unicode="&#x111;" horiz-adv-x="1193" d="M61 416q0 139 48.5 274t138.5 230q137 143 332 143q92 0 176 -44t116 -126l46 264h-324l22 129h324l35 193h176l-35 -193h127l-22 -129h-127l-203 -1157h-146v131q-51 -78 -135 -118t-176 -40q-168 0 -274 133q-99 122 -99 310zM242 416q0 -123 57 -208t176 -85 q84 0 156 55q117 88 157 256q25 102 25 180q0 129 -55.5 214t-179.5 85q-98 0 -181 -77q-76 -72 -115.5 -187.5t-39.5 -232.5z" />
<glyph unicode="&#x112;" horiz-adv-x="1265" d="M76 0l254 1452h958l-28 -168h-775l-79 -442h686l-31 -170h-682l-90 -504h782l-27 -168h-968zM530 1585l25 139h569l-24 -139h-570z" />
<glyph unicode="&#x113;" horiz-adv-x="1103" d="M53 432q0 139 50.5 271.5t142.5 222.5q137 137 338 137q182 0 293 -119q113 -121 112 -313q0 -86 -20 -168h-736q-2 -18 -2 -55q0 -129 70 -207t193 -78q80 0 144 45t99 123h181q-47 -147 -167 -232.5t-276 -85.5q-236 0 -350 185q-72 118 -72 274zM256 612h555 q2 14 2 39q0 113 -63.5 188.5t-176.5 75.5q-117 0 -208 -96q-74 -74 -109 -207zM336 1204l24 139h570l-25 -139h-569z" />
<glyph unicode="&#x116;" horiz-adv-x="1265" d="M76 0l254 1452h958l-28 -168h-775l-79 -442h686l-31 -170h-682l-90 -504h782l-27 -168h-968zM717 1616l33 188h188l-33 -188h-188z" />
<glyph unicode="&#x117;" horiz-adv-x="1103" d="M53 432q0 139 50.5 271.5t142.5 222.5q137 137 338 137q182 0 293 -119q113 -121 112 -313q0 -86 -20 -168h-736q-2 -18 -2 -55q0 -129 70 -207t193 -78q80 0 144 45t99 123h181q-47 -147 -167 -232.5t-276 -85.5q-236 0 -350 185q-72 118 -72 274zM256 612h555 q2 14 2 39q0 113 -63.5 188.5t-176.5 75.5q-117 0 -208 -96q-74 -74 -109 -207zM518 1227l33 188h188l-32 -188h-189z" />
<glyph unicode="&#x118;" horiz-adv-x="1265" d="M76 0l254 1452h958l-28 -168h-775l-79 -442h686l-31 -170h-682l-90 -504h782l-27 -168q-68 -25 -127 -82t-59 -117q0 -68 78 -67l61 2l-18 -119q-51 -12 -88 -14h-21q-82 0 -127 43t-45 112q0 61 55.5 135t123.5 107h-801z" />
<glyph unicode="&#x119;" horiz-adv-x="1103" d="M53 432q0 139 50.5 271.5t142.5 222.5q137 137 338 137q182 0 293 -119q113 -121 112 -313q0 -86 -20 -168h-736q-2 -18 -2 -55q0 -129 70 -207t193 -78q80 0 144 45t99 123h181q-29 -92 -93 -164l-2 -2v-2q-57 -66 -98 -154t-41 -168q0 -68 80 -67l61 2l-18 -119 q-51 -12 -88 -14h-21q-82 0 -128 43t-46 112q0 121 99 238q-74 -23 -148 -23q-236 0 -350 185q-72 118 -72 274zM256 612h555q2 14 2 39q0 113 -63.5 188.5t-176.5 75.5q-117 0 -208 -96q-74 -74 -109 -207z" />
<glyph unicode="&#x11a;" horiz-adv-x="1265" d="M76 0l254 1452h958l-28 -168h-775l-79 -442h686l-31 -170h-682l-90 -504h782l-27 -168h-968zM539 1780l108 100l182 -201l261 199l86 -102l-304 -232h-116z" />
<glyph unicode="&#x11b;" horiz-adv-x="1103" d="M53 432q0 139 50.5 271.5t142.5 222.5q137 137 338 137q182 0 293 -119q113 -121 112 -313q0 -86 -20 -168h-736q-2 -18 -2 -55q0 -129 70 -207t193 -78q80 0 144 45t99 123h181q-47 -147 -167 -232.5t-276 -85.5q-236 0 -350 185q-72 118 -72 274zM256 612h555 q2 14 2 39q0 113 -63.5 188.5t-176.5 75.5q-117 0 -208 -96q-74 -74 -109 -207zM383 1384l113 82l141 -188l223 192l86 -94l-266 -235h-113z" />
<glyph unicode="&#x11c;" horiz-adv-x="1353" d="M82 518q0 225 66.5 444.5t205.5 352.5q170 164 406 164q219 0 362 -140q68 -66 105 -155.5t37 -177.5h-185q0 78 -36.5 146.5t-102.5 107.5q-76 45 -195 45q-147 0 -264 -117q-104 -104 -158.5 -296t-54.5 -364q0 -199 103 -295q90 -86 233 -86q186 0 295 129.5 t143 325.5h-385l31 168h551l-137 -770h-133v141q-66 -82 -166.5 -125t-210.5 -43q-215 0 -352 131q-158 148 -158 414zM498 1649l303 231h117l217 -235l-109 -101l-182 201l-260 -199z" />
<glyph unicode="&#x11d;" horiz-adv-x="1077" d="M-41 -176q0 80 52 150.5t132 101.5q-80 55 -80 135q0 92 74 164q33 31 99 61q-94 98 -95 232q0 184 148 303q115 92 282 92q127 0 220 -55q70 131 215 131q41 0 73 -9l-24 -141q-18 6 -54 6q-86 0 -118 -65q70 -84 69 -205q0 -184 -141 -305q-113 -96 -291 -96 q-102 0 -178 34q-61 -14 -98 -55q-25 -25 -25 -59q0 -31 24.5 -52.5t65.5 -25.5l297 -31q133 -14 216 -84.5t83 -179.5q0 -129 -92 -221q-133 -131 -428 -131q-240 0 -354 123q-72 76 -72 182zM117 -158q0 -55 43 -102q72 -74 235 -74q207 0 289 82q47 47 47 111 q0 115 -178 133l-262 28q-78 -12 -126 -57t-48 -121zM313 668q0 -96 60.5 -150.5t156.5 -54.5q106 0 177 74.5t71 183.5q0 94 -61.5 147.5t-157.5 53.5q-109 0 -177.5 -75t-68.5 -179zM319 1239l267 236h112l187 -244l-107 -82l-149 188l-223 -192z" />
<glyph unicode="&#x11e;" horiz-adv-x="1353" d="M82 518q0 225 66.5 444.5t205.5 352.5q170 164 406 164q219 0 362 -140q68 -66 105 -155.5t37 -177.5h-185q0 78 -36.5 146.5t-102.5 107.5q-76 45 -195 45q-147 0 -264 -117q-104 -104 -158.5 -296t-54.5 -364q0 -199 103 -295q90 -86 233 -86q186 0 295 129.5 t143 325.5h-385l31 168h551l-137 -770h-133v141q-66 -82 -166.5 -125t-210.5 -43q-215 0 -352 131q-158 148 -158 414zM504 1821q0 29 2 43h135v-23q0 -74 46 -120t120 -46q172 0 227 189h146q-37 -147 -138.5 -233.5t-250.5 -86.5q-123 0 -205 77t-82 200z" />
<glyph unicode="&#x11f;" horiz-adv-x="1077" d="M-41 -176q0 80 52 150.5t132 101.5q-80 55 -80 135q0 92 74 164q33 31 99 61q-94 98 -95 232q0 184 148 303q115 92 282 92q127 0 220 -55q70 131 215 131q41 0 73 -9l-24 -141q-18 6 -54 6q-86 0 -118 -65q70 -84 69 -205q0 -184 -141 -305q-113 -96 -291 -96 q-102 0 -178 34q-61 -14 -98 -55q-25 -25 -25 -59q0 -31 24.5 -52.5t65.5 -25.5l297 -31q133 -14 216 -84.5t83 -179.5q0 -129 -92 -221q-133 -131 -428 -131q-240 0 -354 123q-72 76 -72 182zM117 -158q0 -55 43 -102q72 -74 235 -74q207 0 289 82q47 47 47 111 q0 115 -178 133l-262 28q-78 -12 -126 -57t-48 -121zM305 1411q0 29 2 43h135v-22q0 -74 46.5 -120t119.5 -46q172 0 228 188h145q-37 -147 -138.5 -233t-250.5 -86q-123 0 -205 76.5t-82 199.5zM313 668q0 -96 60.5 -150.5t156.5 -54.5q106 0 177 74.5t71 183.5 q0 94 -61.5 147.5t-157.5 53.5q-109 0 -177.5 -75t-68.5 -179z" />
<glyph unicode="&#x120;" horiz-adv-x="1353" d="M82 518q0 225 66.5 444.5t205.5 352.5q170 164 406 164q219 0 362 -140q68 -66 105 -155.5t37 -177.5h-185q0 78 -36.5 146.5t-102.5 107.5q-76 45 -195 45q-147 0 -264 -117q-104 -104 -158.5 -296t-54.5 -364q0 -199 103 -295q90 -86 233 -86q186 0 295 129.5 t143 325.5h-385l31 168h551l-137 -770h-133v141q-66 -82 -166.5 -125t-210.5 -43q-215 0 -352 131q-158 148 -158 414zM707 1616l32 188h189l-33 -188h-188z" />
<glyph unicode="&#x121;" horiz-adv-x="1077" d="M-41 -176q0 80 52 150.5t132 101.5q-80 55 -80 135q0 92 74 164q33 31 99 61q-94 98 -95 232q0 184 148 303q115 92 282 92q127 0 220 -55q70 131 215 131q41 0 73 -9l-24 -141q-18 6 -54 6q-86 0 -118 -65q70 -84 69 -205q0 -184 -141 -305q-113 -96 -291 -96 q-102 0 -178 34q-61 -14 -98 -55q-25 -25 -25 -59q0 -31 24.5 -52.5t65.5 -25.5l297 -31q133 -14 216 -84.5t83 -179.5q0 -129 -92 -221q-133 -131 -428 -131q-240 0 -354 123q-72 76 -72 182zM117 -158q0 -55 43 -102q72 -74 235 -74q207 0 289 82q47 47 47 111 q0 115 -178 133l-262 28q-78 -12 -126 -57t-48 -121zM313 668q0 -96 60.5 -150.5t156.5 -54.5q106 0 177 74.5t71 183.5q0 94 -61.5 147.5t-157.5 53.5q-109 0 -177.5 -75t-68.5 -179zM510 1227l33 188h188l-33 -188h-188z" />
<glyph unicode="&#x122;" horiz-adv-x="1353" d="M82 518q0 225 66.5 444.5t205.5 352.5q170 164 406 164q219 0 362 -140q68 -66 105 -155.5t37 -177.5h-185q0 78 -36.5 146.5t-102.5 107.5q-76 45 -195 45q-147 0 -264 -117q-104 -104 -158.5 -296t-54.5 -364q0 -199 103 -295q90 -86 233 -86q186 0 295 129.5 t143 325.5h-385l31 168h551l-137 -770h-133v141q-66 -82 -166.5 -125t-210.5 -43q-215 0 -352 131q-158 148 -158 414zM424 -389q45 14 65.5 35.5t28.5 66.5h-80l31 168h174l-29 -157q-23 -135 -170 -175z" />
<glyph unicode="&#x123;" horiz-adv-x="1077" d="M-41 -176q0 80 52 150.5t132 101.5q-80 55 -80 135q0 92 74 164q33 31 99 61q-94 98 -95 232q0 184 148 303q115 92 282 92q127 0 220 -55q70 131 215 131q41 0 73 -9l-24 -141q-18 6 -54 6q-86 0 -118 -65q70 -84 69 -205q0 -184 -141 -305q-113 -96 -291 -96 q-102 0 -178 34q-61 -14 -98 -55q-25 -25 -25 -59q0 -31 24.5 -52.5t65.5 -25.5l297 -31q133 -14 216 -84.5t83 -179.5q0 -129 -92 -221q-133 -131 -428 -131q-240 0 -354 123q-72 76 -72 182zM117 -158q0 -55 43 -102q72 -74 235 -74q207 0 289 82q47 47 47 111 q0 115 -178 133l-262 28q-78 -12 -126 -57t-48 -121zM313 668q0 -96 60.5 -150.5t156.5 -54.5q106 0 177 74.5t71 183.5q0 94 -61.5 147.5t-157.5 53.5q-109 0 -177.5 -75t-68.5 -179zM508 1141l29 157q23 135 170 175l20 -62q-45 -14 -65.5 -35.5t-28.5 -66.5h80l-31 -168 h-174z" />
<glyph unicode="&#x124;" horiz-adv-x="1466" d="M76 0l256 1452h184l-106 -604h690l106 604h185l-256 -1452h-185l119 670h-690l-119 -670h-184zM567 1649l303 231h117l217 -235l-108 -101l-183 201l-260 -199z" />
<glyph unicode="&#x125;" horiz-adv-x="1177" d="M57 0l260 1479h175l-101 -572q55 72 144.5 114t181.5 42q145 0 227 -82q72 -72 72 -199q0 -43 -17 -147l-112 -635h-174l110 623q14 78 15 114q0 86 -39 125q-47 47 -135 47q-72 0 -139.5 -45t-110.5 -110q-68 -102 -92 -248l-91 -506h-174zM182 1602l267 235h112 l187 -244l-107 -82l-149 189l-224 -193z" />
<glyph unicode="&#x126;" horiz-adv-x="1466" d="M76 0l188 1069h-125l27 139h123l43 244h184l-43 -244h690l43 244h185l-43 -244h122l-26 -139h-121l-188 -1069h-185l119 670h-690l-119 -670h-184zM410 848h690l39 221h-690z" />
<glyph unicode="&#x127;" horiz-adv-x="1177" d="M57 0l201 1147h-121l23 129h121l36 203h175l-37 -203h331l-22 -129h-332l-41 -240q55 72 144.5 114t181.5 42q145 0 227 -82q72 -72 72 -199q0 -43 -17 -147l-112 -635h-174l110 623q14 78 15 114q0 86 -39 125q-47 47 -135 47q-72 0 -139.5 -45t-110.5 -110 q-68 -102 -92 -248l-91 -506h-174z" />
<glyph unicode="&#x12a;" horiz-adv-x="595" d="M76 0l256 1452h188l-256 -1452h-188zM143 1585l25 139h569l-24 -139h-570z" />
<glyph unicode="&#x12b;" horiz-adv-x="548" d="M57 0l185 1036h180l-184 -1036h-181zM80 1204l24 139h570l-25 -139h-569z" />
<glyph unicode="&#x12e;" horiz-adv-x="595" d="M-82 -242q0 61 55.5 135t122.5 107h-20l256 1452h188l-256 -1452q-68 -25 -127 -82t-59 -117q0 -68 78 -67l61 2l-18 -119q-51 -12 -88 -14h-21q-82 0 -127 42.5t-45 112.5z" />
<glyph unicode="&#x12f;" horiz-adv-x="548" d="M-111 -242q0 61 55.5 135t123.5 107h-11l185 1036h178l-184 -1036q-68 -25 -127.5 -82t-59.5 -117q0 -68 78 -67l61 2l-18 -119q-51 -12 -88 -14h-21q-82 0 -127 42.5t-45 112.5zM270 1274l37 205h203l-37 -205h-203z" />
<glyph unicode="&#x130;" horiz-adv-x="595" d="M76 0l256 1452h188l-256 -1452h-188zM358 1616l33 188h189l-33 -188h-189z" />
<glyph unicode="&#x131;" horiz-adv-x="550" d="M57 0l185 1036h180l-184 -1036h-181z" />
<glyph unicode="&#x134;" horiz-adv-x="1038" d="M-41 340q0 53 10 100h181q-8 -53 -9 -82q0 -211 205 -211q100 0 169 69t87 171l189 1065h184l-191 -1081q-31 -180 -150.5 -289t-301.5 -109q-168 0 -273 105q-100 100 -100 262zM549 1649l303 231h117l217 -235l-109 -101l-182 201l-260 -199z" />
<glyph unicode="&#x135;" horiz-adv-x="571" d="M-242 -387l25 135q63 -37 133 -37q109 0 129 111l215 1214h176l-217 -1229q-20 -117 -90 -181t-178 -64q-97 0 -193 51zM49 1239l266 236h113l186 -244l-106 -82l-150 188l-223 -192z" />
<glyph unicode="&#x136;" horiz-adv-x="1355" d="M76 0l256 1452h184l-135 -766l788 766h238l-571 -553l364 -899h-201l-305 762l-360 -350l-74 -412h-184zM492 -389q45 14 65.5 35.5t28.5 66.5h-80l31 168h174l-29 -157q-23 -135 -170 -175z" />
<glyph unicode="&#x137;" horiz-adv-x="1101" d="M57 0l262 1479h175l-168 -953l546 510h220q-188 -174 -447 -413l303 -623h-186l-246 504l-233 -219l-52 -285h-174zM342 -389q45 14 65.5 35.5t28.5 66.5h-80l31 168h174l-29 -157q-23 -135 -170 -175z" />
<glyph unicode="&#x139;" horiz-adv-x="1097" d="M76 0l256 1452h184l-225 -1282h698l-31 -170h-882zM365 1647l393 249l71 -149l-413 -203z" />
<glyph unicode="&#x13a;" horiz-adv-x="587" d="M92 176q0 29 12 98l213 1205h175l-222 -1246q-2 -8 -2 -22q0 -72 78 -72q43 0 82 13l-25 -142q-55 -23 -122 -22q-94 0 -144 55q-45 51 -45 133zM332 1649l393 249l72 -149l-414 -203z" />
<glyph unicode="&#x13b;" horiz-adv-x="1097" d="M76 0l256 1452h184l-225 -1282h698l-31 -170h-882zM391 -389q45 14 65.5 35.5t28.5 66.5h-79l30 168h174l-28 -157q-23 -135 -170 -175z" />
<glyph unicode="&#x13c;" horiz-adv-x="587" d="M61 -389q45 14 65.5 35.5t29.5 66.5h-80l30 168h175l-29 -157q-23 -135 -170 -175zM92 176q0 29 12 98l213 1205h175l-222 -1246q-2 -8 -2 -22q0 -72 78 -72q43 0 82 13l-25 -142q-55 -23 -122 -22q-94 0 -144 55q-45 51 -45 133z" />
<glyph unicode="&#x13d;" horiz-adv-x="1097" d="M76 0l256 1452h184l-225 -1282h698l-31 -170h-882zM586 1266q80 37 92 116l2 13h-68l33 186h158l-31 -174q-25 -147 -168 -209z" />
<glyph unicode="&#x13e;" horiz-adv-x="587" d="M92 176q0 29 12 98l213 1205h175l-222 -1246q-2 -8 -2 -22q0 -72 78 -72q43 0 82 13l-25 -142q-55 -23 -122 -22q-94 0 -144 55q-45 51 -45 133zM494 1163q80 37 92 117l2 12h-68l33 187h158l-31 -174q-25 -147 -168 -209z" />
<glyph unicode="&#x141;" horiz-adv-x="1089" d="M-14 631l219 123l123 698h184l-102 -584l288 162l50 -108l-365 -203l-96 -549h698l-31 -170h-882l106 604l-143 -80z" />
<glyph unicode="&#x142;" horiz-adv-x="690" d="M51 737l203 115l111 627h174l-90 -518l182 102l49 -109l-258 -143l-100 -575q-8 -43 11 -69t62 -26t82 13l-24 -144q-55 -23 -123 -22q-109 0 -156 70.5t-29 170.5l84 473l-129 -71z" />
<glyph unicode="&#x143;" horiz-adv-x="1503" d="M76 0l256 1452h209l497 -1192l205 1192h184l-256 -1452h-208l-498 1188l-205 -1188h-184zM764 1647l393 249l72 -149l-414 -203z" />
<glyph unicode="&#x144;" horiz-adv-x="1177" d="M57 0l183 1036h141v-143q55 78 148.5 124t187.5 46q145 0 227 -82q72 -72 72 -199q0 -43 -17 -147l-112 -635h-174l110 623q14 78 15 114q0 86 -39 125q-47 47 -135 47q-72 0 -139.5 -45t-110.5 -110q-68 -102 -92 -248l-91 -506h-174zM541 1231l393 250l72 -150 l-414 -203z" />
<glyph unicode="&#x145;" horiz-adv-x="1503" d="M76 0l256 1452h209l497 -1192l205 1192h184l-256 -1452h-208l-498 1188l-205 -1188h-184zM514 -389q45 14 65.5 35.5t28.5 66.5h-80l31 168h174l-28 -157q-23 -135 -170 -175z" />
<glyph unicode="&#x146;" horiz-adv-x="1177" d="M57 0l183 1036h141v-143q55 78 148.5 124t187.5 46q145 0 227 -82q72 -72 72 -199q0 -43 -17 -147l-112 -635h-174l110 623q14 78 15 114q0 86 -39 125q-47 47 -135 47q-72 0 -139.5 -45t-110.5 -110q-68 -102 -92 -248l-91 -506h-174zM338 -389q45 14 65.5 35.5 t28.5 66.5h-80l31 168h174l-29 -157q-23 -135 -170 -175z" />
<glyph unicode="&#x147;" horiz-adv-x="1503" d="M76 0l256 1452h209l497 -1192l205 1192h184l-256 -1452h-208l-498 1188l-205 -1188h-184zM610 1780l109 100l182 -201l260 199l86 -102l-303 -232h-117z" />
<glyph unicode="&#x148;" horiz-adv-x="1177" d="M57 0l183 1036h141v-143q55 78 148.5 124t187.5 46q145 0 227 -82q72 -72 72 -199q0 -43 -17 -147l-112 -635h-174l110 623q14 78 15 114q0 86 -39 125q-47 47 -135 47q-72 0 -139.5 -45t-110.5 -110q-68 -102 -92 -248l-91 -506h-174zM442 1384l113 82l141 -188l224 192 l86 -94l-267 -235h-112z" />
<glyph unicode="&#x14c;" horiz-adv-x="1341" d="M82 518q0 219 69.5 442.5t206.5 356.5q168 162 392 162q238 0 371.5 -155t133.5 -390q0 -221 -66.5 -443.5t-203.5 -355.5q-168 -162 -393 -162q-233 0 -371.5 153.5t-138.5 391.5zM268 528q0 -168 85 -274.5t249 -106.5q143 0 256 113q102 102 155.5 296t53.5 368 q0 168 -83 274.5t-245 106.5q-139 0 -254 -115q-102 -102 -159.5 -297t-57.5 -365zM526 1585l25 139h569l-24 -139h-570z" />
<glyph unicode="&#x14d;" horiz-adv-x="1110" d="M53 406q0 121 32 234.5t93.5 209.5t164.5 154.5t232 58.5q193 0 308 -137q100 -119 100 -295q0 -121 -31.5 -234.5t-93 -210t-165 -155t-232.5 -58.5q-193 0 -307 138q-101 119 -101 295zM231 410q0 -123 61.5 -205t182.5 -82q115 0 194 88t107.5 195.5t28.5 220.5 q0 123 -61.5 204.5t-182.5 81.5q-115 0 -193.5 -88t-107.5 -195t-29 -220zM340 1204l25 139h569l-25 -139h-569z" />
<glyph unicode="&#x150;" horiz-adv-x="1341" d="M82 518q0 219 69.5 442.5t206.5 356.5q168 162 392 162q238 0 371.5 -155t133.5 -390q0 -221 -66.5 -443.5t-203.5 -355.5q-168 -162 -393 -162q-233 0 -371.5 153.5t-138.5 391.5zM268 528q0 -168 85 -274.5t249 -106.5q143 0 256 113q102 102 155.5 296t53.5 368 q0 168 -83 274.5t-245 106.5q-139 0 -254 -115q-102 -102 -159.5 -297t-57.5 -365zM524 1640l396 265l75 -148l-422 -213zM899 1640l395 265l76 -148l-422 -213z" />
<glyph unicode="&#x151;" horiz-adv-x="1110" d="M53 406q0 121 32 234.5t93.5 209.5t164.5 154.5t232 58.5q193 0 308 -137q100 -119 100 -295q0 -121 -31.5 -234.5t-93 -210t-165 -155t-232.5 -58.5q-193 0 -307 138q-101 119 -101 295zM231 410q0 -123 61.5 -205t182.5 -82q115 0 194 88t107.5 195.5t28.5 220.5 q0 123 -61.5 204.5t-182.5 81.5q-115 0 -193.5 -88t-107.5 -195t-29 -220zM307 1229l395 264l76 -147l-422 -213zM682 1229l395 264l76 -147l-422 -213z" />
<glyph unicode="&#x152;" horiz-adv-x="2076" d="M82 518q0 127 22.5 255t73.5 257t126 227.5t190.5 160t257.5 61.5q121 0 224 -51.5t159 -147.5l30 172h934l-28 -168h-750l-80 -442h641l-31 -172h-637l-90 -502h758l-27 -168h-944l19 106q-127 -133 -340 -133q-236 0 -372 153.5t-136 391.5zM268 528q0 -168 84 -274.5 t248 -106.5q127 0 222.5 80t144.5 206t72.5 250t23.5 241q0 168 -80 274.5t-242 106.5q-123 0 -220 -81t-149.5 -205t-78 -251t-25.5 -240z" />
<glyph unicode="&#x153;" horiz-adv-x="1806" d="M53 406q0 154 49.5 296t145.5 234q131 127 321 127q90 0 179 -47q109 -61 155 -170q51 82 133 137q115 80 258 80q176 0 287 -119t111 -313q0 -94 -19 -168h-723q-2 -18 -2 -55q0 -131 66.5 -208t189.5 -77q164 0 238 168h180q-47 -147 -165 -232.5t-271 -85.5 q-117 0 -214.5 61.5t-137.5 166.5q-70 -117 -166 -172q-100 -55 -222 -56q-178 0 -294 140q-99 117 -99 293zM231 410q0 -123 60.5 -205t177.5 -82q86 0 162 61q82 68 122 193t40 250q0 123 -60.5 204.5t-177.5 81.5q-88 0 -153.5 -49t-101.5 -129t-52.5 -161.5 t-16.5 -163.5zM971 612h545q2 14 2 39q0 115 -60.5 189.5t-173.5 74.5q-119 0 -209 -94q-73 -74 -104 -209z" />
<glyph unicode="&#x154;" horiz-adv-x="1355" d="M76 0l256 1452h547q188 0 304.5 -108.5t116.5 -276.5q0 -199 -133 -322q-84 -78 -213 -112l199 -633h-192l-189 608h-405l-107 -608h-184zM397 772h377q158 0 246 77t88 218q0 100 -67.5 159.5t-188.5 59.5h-365zM631 1647l393 249l72 -149l-414 -203z" />
<glyph unicode="&#x155;" horiz-adv-x="784" d="M57 0l183 1036h141v-149q49 80 130 121t175 41q66 0 117 -15l-29 -170q-49 18 -108 19q-96 0 -181 -64q-123 -94 -166 -323l-88 -496h-174zM426 1231l393 250l72 -150l-414 -203z" />
<glyph unicode="&#x156;" horiz-adv-x="1355" d="M76 0l256 1452h547q188 0 304.5 -108.5t116.5 -276.5q0 -199 -133 -322q-84 -78 -213 -112l199 -633h-192l-189 608h-405l-107 -608h-184zM397 772h377q158 0 246 77t88 218q0 100 -67.5 159.5t-188.5 59.5h-365zM469 -389q45 14 65.5 35.5t28.5 66.5h-80l31 168h174 l-29 -157q-23 -135 -170 -175z" />
<glyph unicode="&#x157;" horiz-adv-x="784" d="M0 -389q45 14 65.5 35.5t28.5 66.5h-80l31 168h174l-29 -157q-23 -135 -170 -175zM57 0l183 1036h141v-149q49 80 130 121t175 41q66 0 117 -15l-29 -170q-49 18 -108 19q-96 0 -181 -64q-123 -94 -166 -323l-88 -496h-174z" />
<glyph unicode="&#x158;" horiz-adv-x="1355" d="M76 0l256 1452h547q188 0 304.5 -108.5t116.5 -276.5q0 -199 -133 -322q-84 -78 -213 -112l199 -633h-192l-189 608h-405l-107 -608h-184zM397 772h377q158 0 246 77t88 218q0 100 -67.5 159.5t-188.5 59.5h-365zM516 1780l109 100l182 -201l260 199l86 -102l-303 -232 h-117z" />
<glyph unicode="&#x159;" horiz-adv-x="784" d="M57 0l183 1036h141v-149q49 80 130 121t175 41q66 0 117 -15l-29 -170q-49 18 -108 19q-96 0 -181 -64q-123 -94 -166 -323l-88 -496h-174zM311 1384l113 82l141 -188l223 192l86 -94l-266 -235h-112z" />
<glyph unicode="&#x15a;" horiz-adv-x="1288" d="M43 483h190q0 -135 74 -223q100 -119 309 -119q164 0 258 92q72 68 72 168q0 76 -51 134.5t-154 85.5l-221 55q-147 37 -234 126t-87 234q0 207 178 336q143 104 348 105q268 0 405 -183q88 -117 89 -278h-191q0 88 -43 158q-84 135 -278 135q-145 0 -236 -82 q-82 -72 -82 -174q0 -156 182 -199l232 -57q156 -39 246 -137.5t90 -235.5q0 -182 -119 -297q-154 -154 -426 -154q-291 0 -442 185q-109 135 -109 325zM610 1647l394 249l71 -149l-413 -203z" />
<glyph unicode="&#x15b;" horiz-adv-x="1046" d="M33 311v37h174v-29q0 -78 67 -137q72 -63 201 -63q106 0 178 61q53 47 54 113q0 102 -132 133l-196 47q-102 25 -160 80q-74 70 -76 168q-2 152 121 252q113 90 285 90q104 0 198.5 -42t141.5 -124q49 -86 49 -172h-176q0 66 -41 117q-61 78 -189 78q-115 0 -176 -68 q-41 -45 -41 -102q0 -49 33 -80t78 -41q121 -27 242 -60q96 -25 155.5 -92t59.5 -162q0 -152 -119 -247q-115 -94 -299 -95q-248 0 -367 150q-65 82 -65 188zM444 1231l394 250l71 -150l-413 -203z" />
<glyph unicode="&#x15c;" horiz-adv-x="1288" d="M43 483h190q0 -135 74 -223q100 -119 309 -119q164 0 258 92q72 68 72 168q0 76 -51 134.5t-154 85.5l-221 55q-147 37 -234 126t-87 234q0 207 178 336q143 104 348 105q268 0 405 -183q88 -117 89 -278h-191q0 88 -43 158q-84 135 -278 135q-145 0 -236 -82 q-82 -72 -82 -174q0 -156 182 -199l232 -57q156 -39 246 -137.5t90 -235.5q0 -182 -119 -297q-154 -154 -426 -154q-291 0 -442 185q-109 135 -109 325zM461 1649l303 231h117l217 -235l-109 -101l-182 201l-260 -199z" />
<glyph unicode="&#x15d;" horiz-adv-x="1046" d="M33 311v37h174v-29q0 -78 67 -137q72 -63 201 -63q106 0 178 61q53 47 54 113q0 102 -132 133l-196 47q-102 25 -160 80q-74 70 -76 168q-2 152 121 252q113 90 285 90q104 0 198.5 -42t141.5 -124q49 -86 49 -172h-176q0 66 -41 117q-61 78 -189 78q-115 0 -176 -68 q-41 -45 -41 -102q0 -49 33 -80t78 -41q121 -27 242 -60q96 -25 155.5 -92t59.5 -162q0 -152 -119 -247q-115 -94 -299 -95q-248 0 -367 150q-65 82 -65 188zM324 1239l266 236h112l187 -244l-107 -82l-149 188l-223 -192z" />
<glyph unicode="&#x15e;" horiz-adv-x="1288" d="M43 483h190q0 -135 74 -223q100 -119 309 -119q164 0 258 92q72 68 72 168q0 76 -51 134.5t-154 85.5l-221 55q-147 37 -234 126t-87 234q0 207 178 336q143 104 348 105q268 0 405 -183q88 -117 89 -278h-191q0 88 -43 158q-84 135 -278 135q-145 0 -236 -82 q-82 -72 -82 -174q0 -156 182 -199l232 -57q156 -39 246 -137.5t90 -235.5q0 -182 -119 -297q-154 -154 -426 -154q-291 0 -442 185q-109 135 -109 325zM315 -397l211 276h160l-205 -360z" />
<glyph unicode="&#x15f;" horiz-adv-x="1046" d="M33 311v37h174v-29q0 -78 67 -137q72 -63 201 -63q106 0 178 61q53 47 54 113q0 102 -132 133l-196 47q-102 25 -160 80q-74 70 -76 168q-2 152 121 252q113 90 285 90q104 0 198.5 -42t141.5 -124q49 -86 49 -172h-176q0 66 -41 117q-61 78 -189 78q-115 0 -176 -68 q-41 -45 -41 -102q0 -49 33 -80t78 -41q121 -27 242 -60q96 -25 155.5 -92t59.5 -162q0 -152 -119 -247q-115 -94 -299 -95q-248 0 -367 150q-65 82 -65 188zM154 -397l211 276h159l-205 -360z" />
<glyph unicode="&#x160;" horiz-adv-x="1288" d="M43 483h190q0 -135 74 -223q100 -119 309 -119q164 0 258 92q72 68 72 168q0 76 -51 134.5t-154 85.5l-221 55q-147 37 -234 126t-87 234q0 207 178 336q143 104 348 105q268 0 405 -183q88 -117 89 -278h-191q0 88 -43 158q-84 135 -278 135q-145 0 -236 -82 q-82 -72 -82 -174q0 -156 182 -199l232 -57q156 -39 246 -137.5t90 -235.5q0 -182 -119 -297q-154 -154 -426 -154q-291 0 -442 185q-109 135 -109 325zM506 1780l108 100l183 -201l260 199l86 -102l-303 -232h-117z" />
<glyph unicode="&#x161;" horiz-adv-x="1046" d="M33 311v37h174v-29q0 -78 67 -137q72 -63 201 -63q106 0 178 61q53 47 54 113q0 102 -132 133l-196 47q-102 25 -160 80q-74 70 -76 168q-2 152 121 252q113 90 285 90q104 0 198.5 -42t141.5 -124q49 -86 49 -172h-176q0 66 -41 117q-61 78 -189 78q-115 0 -176 -68 q-41 -45 -41 -102q0 -49 33 -80t78 -41q121 -27 242 -60q96 -25 155.5 -92t59.5 -162q0 -152 -119 -247q-115 -94 -299 -95q-248 0 -367 150q-65 82 -65 188zM328 1384l112 82l142 -188l223 192l86 -94l-266 -235h-113z" />
<glyph unicode="&#x162;" horiz-adv-x="1097" d="M121 1282l31 170h1048l-31 -170h-432l-223 -1282h-186l225 1282h-432zM272 -389q45 14 65.5 35.5t29.5 66.5h-80l30 168h175l-29 -157q-23 -135 -170 -175z" />
<glyph unicode="&#x163;" horiz-adv-x="784" d="M59 887l27 149h205l47 264l184 54l-57 -318h305l-29 -149h-303l-96 -549q-10 -61 -10 -94q0 -106 129 -107q88 0 176 39l-27 -145q-92 -45 -210.5 -45t-186.5 73q-57 63 -57 162q0 49 10 107l98 559h-205zM176 -389q45 14 65.5 35.5t28.5 66.5h-80l31 168h174l-28 -157 q-23 -135 -170 -175z" />
<glyph unicode="&#x164;" horiz-adv-x="1097" d="M121 1282l31 170h1048l-31 -170h-432l-223 -1282h-186l225 1282h-432zM408 1780l108 100l182 -201l260 199l86 -102l-303 -232h-116z" />
<glyph unicode="&#x165;" horiz-adv-x="784" d="M59 887l27 149h205l47 264l184 54l-57 -318h305l-29 -149h-303l-96 -549q-10 -61 -10 -94q0 -106 129 -107q88 0 176 39l-27 -145q-92 -45 -210.5 -45t-186.5 73q-57 63 -57 162q0 49 10 107l98 559h-205zM625 1184q80 37 92 116l2 13h-68l33 186h158l-31 -174 q-25 -147 -168 -209z" />
<glyph unicode="&#x16a;" horiz-adv-x="1417" d="M139 432q0 70 13 137l155 883h185l-160 -903q-10 -61 -10 -111q0 -143 85 -217t236.5 -74t249.5 95.5t125 249.5l170 960h184l-170 -965q-41 -233 -189.5 -373.5t-379.5 -140.5q-221 0 -357.5 125t-136.5 334zM573 1585l25 139h569l-24 -139h-570z" />
<glyph unicode="&#x16b;" horiz-adv-x="1175" d="M100 287q0 53 9 102l114 647h174l-112 -637q-6 -39 -6 -77q0 -90 49 -144q47 -51 137 -51q96 0 180 88q96 106 133 315l90 506h174l-182 -1036h-143v133q-49 -76 -134 -118t-171 -42q-131 0 -215 74q-97 84 -97 240zM381 1204l25 139h569l-25 -139h-569z" />
<glyph unicode="&#x16c;" horiz-adv-x="1417" d="M139 432q0 70 13 137l155 883h185l-160 -903q-10 -61 -10 -111q0 -143 85 -217t236.5 -74t249.5 95.5t125 249.5l170 960h184l-170 -965q-41 -233 -189.5 -373.5t-379.5 -140.5q-221 0 -357.5 125t-136.5 334zM571 1821q0 29 2 43h136v-23q0 -74 46 -120t119 -46 q172 0 228 189h145q-37 -147 -138 -233.5t-251 -86.5q-123 0 -205 77t-82 200z" />
<glyph unicode="&#x16d;" horiz-adv-x="1175" d="M100 287q0 53 9 102l114 647h174l-112 -637q-6 -39 -6 -77q0 -90 49 -144q47 -51 137 -51q96 0 180 88q96 106 133 315l90 506h174l-182 -1036h-143v133q-49 -76 -134 -118t-171 -42q-131 0 -215 74q-97 84 -97 240zM356 1411q0 29 2 43h136v-22q0 -74 46 -120t119 -46 q172 0 228 188h145q-37 -147 -138 -233t-251 -86q-123 0 -205 76.5t-82 199.5z" />
<glyph unicode="&#x16e;" horiz-adv-x="1417" d="M139 432q0 70 13 137l155 883h185l-160 -903q-10 -61 -10 -111q0 -143 85 -217t236.5 -74t249.5 95.5t125 249.5l170 960h184l-170 -965q-41 -233 -189.5 -373.5t-379.5 -140.5q-221 0 -357.5 125t-136.5 334zM635 1620q0 100 80 178t186 78q90 0 140.5 -52t50.5 -130 q0 -100 -79 -178t-188 -78q-90 0 -140 52t-50 130zM750 1634q0 -39 25.5 -64.5t68.5 -25.5q51 0 92 39t41 94q0 39 -25.5 67t-68.5 28q-51 0 -92 -40.5t-41 -97.5z" />
<glyph unicode="&#x16f;" horiz-adv-x="1175" d="M100 287q0 53 9 102l114 647h174l-112 -637q-6 -39 -6 -77q0 -90 49 -144q47 -51 137 -51q96 0 180 88q96 106 133 315l90 506h174l-182 -1036h-143v133q-49 -76 -134 -118t-171 -42q-131 0 -215 74q-97 84 -97 240zM465 1311q0 102 79 181t187 79q90 0 140.5 -52.5 t50.5 -129.5q0 -100 -79 -178t-188 -78q-90 0 -140 51t-50 127zM580 1329q0 -39 25.5 -64.5t68.5 -25.5q51 0 92 39t41 94q0 39 -25.5 66.5t-68.5 27.5q-51 0 -92 -40t-41 -97z" />
<glyph unicode="&#x170;" horiz-adv-x="1417" d="M139 432q0 70 13 137l155 883h185l-160 -903q-10 -61 -10 -111q0 -143 85 -217t236.5 -74t249.5 95.5t125 249.5l170 960h184l-170 -965q-41 -233 -189.5 -373.5t-379.5 -140.5q-221 0 -357.5 125t-136.5 334zM541 1640l395 265l76 -148l-422 -213zM915 1640l396 265 l75 -148l-421 -213z" />
<glyph unicode="&#x171;" horiz-adv-x="1175" d="M100 287q0 53 9 102l114 647h174l-112 -637q-6 -39 -6 -77q0 -90 49 -144q47 -51 137 -51q96 0 180 88q96 106 133 315l90 506h174l-182 -1036h-143v133q-49 -76 -134 -118t-171 -42q-131 0 -215 74q-97 84 -97 240zM317 1229l396 264l75 -147l-421 -213zM692 1229 l395 264l76 -147l-422 -213z" />
<glyph unicode="&#x172;" horiz-adv-x="1417" d="M139 432q0 70 13 137l155 883h185l-160 -903q-10 -61 -10 -111q0 -143 85 -217t236.5 -74t249.5 95.5t125 249.5l170 960h184l-170 -965q-41 -231 -182 -366q-143 -166 -143 -320q0 -68 86 -67l61 2l-18 -119q-51 -12 -88 -14h-21q-82 0 -131 44t-49 111q0 127 108 244 q-92 -29 -192 -29q-221 0 -357.5 125t-136.5 334z" />
<glyph unicode="&#x173;" horiz-adv-x="1175" d="M100 287q0 53 9 102l114 647h174l-112 -637q-6 -39 -6 -77q0 -90 49 -144q47 -51 137 -51q96 0 180 88q96 106 133 315l90 506h174l-182 -1036q-68 -25 -127 -82t-59 -117q0 -68 78 -67l61 2l-18 -119q-51 -12 -88 -14h-21q-82 0 -127 43t-45 112q0 61 55.5 135 t122.5 107l25 10v123q-49 -76 -134 -118t-171 -42q-131 0 -215 74q-97 84 -97 240z" />
<glyph unicode="&#x174;" horiz-adv-x="1748" d="M178 1452h172l23 -1178l534 1158h164l139 -1151l430 1171h175l-545 -1452h-187l-135 1171l-530 -1171h-203zM698 1649l303 231h117l217 -235l-108 -101l-183 201l-260 -199z" />
<glyph unicode="&#x175;" horiz-adv-x="1556" d="M129 1036h170l55 -786l396 774h141l131 -778l342 790h180l-463 -1036h-163l-134 788l-403 -788h-170zM578 1239l266 236h112l187 -244l-107 -82l-149 188l-223 -192z" />
<glyph unicode="&#x176;" horiz-adv-x="1136" d="M113 1452h186l260 -690l500 690h207l-641 -864l-103 -588h-186l106 588zM393 1649l303 231h117l217 -235l-108 -101l-183 201l-260 -199z" />
<glyph unicode="&#x177;" horiz-adv-x="1017" d="M-131 -375l25 135q80 -49 151 -49q88 0 133 82l121 219l-227 1024h182l168 -811l432 811h193l-711 -1296q-98 -178 -266 -178q-107 0 -201 63zM299 1239l266 236h113l186 -244l-106 -82l-150 188l-223 -192z" />
<glyph unicode="&#x178;" horiz-adv-x="1136" d="M109 1452h186l260 -690l500 690h207l-641 -864l-103 -588h-186l106 588zM410 1593l32 189h189l-33 -189h-188zM770 1593l33 189h188l-33 -189h-188z" />
<glyph unicode="&#x179;" horiz-adv-x="1253" d="M-39 0l33 182l1010 1100h-809l30 170h1030l-32 -184l-1014 -1100h840l-31 -168h-1057zM549 1647l393 249l72 -149l-414 -203z" />
<glyph unicode="&#x17a;" horiz-adv-x="1007" d="M-29 0l29 154l717 731h-588l27 151h807l-29 -153l-717 -731h602l-28 -152h-820zM350 1231l393 250l72 -150l-414 -203z" />
<glyph unicode="&#x17b;" horiz-adv-x="1253" d="M-39 0l33 182l1010 1100h-809l30 170h1030l-32 -184l-1014 -1100h840l-31 -168h-1057zM651 1616l33 188h188l-32 -188h-189z" />
<glyph unicode="&#x17c;" horiz-adv-x="1007" d="M-29 0l29 154l717 731h-588l27 151h807l-29 -153l-717 -731h602l-28 -152h-820zM479 1227l33 188h188l-32 -188h-189z" />
<glyph unicode="&#x17d;" horiz-adv-x="1253" d="M-39 0l33 182l1010 1100h-809l30 170h1030l-32 -184l-1014 -1100h840l-31 -168h-1057zM473 1780l109 100l182 -201l260 199l86 -102l-303 -232h-117z" />
<glyph unicode="&#x17e;" horiz-adv-x="1007" d="M-29 0l29 154l717 731h-588l27 151h807l-29 -153l-717 -731h602l-28 -152h-820zM332 1384l112 82l142 -188l223 192l86 -94l-266 -235h-113z" />
<glyph unicode="&#x192;" horiz-adv-x="1071" d="M29 -66q86 -12 118 -12q137 0 175 182l127 637h-209v154h239l58 293q27 129 110.5 205.5t192.5 76.5q80 0 153 -16v-154q-86 12 -119 13q-137 0 -174 -183l-47 -235h289v-154h-319l-138 -694q-27 -129 -110.5 -206t-192.5 -77q-80 0 -153 17v153z" />
<glyph unicode="&#x218;" horiz-adv-x="1288" d="M43 483h190q0 -135 74 -223q100 -119 309 -119q164 0 258 92q72 68 72 168q0 76 -51 134.5t-154 85.5l-221 55q-147 37 -234 126t-87 234q0 207 178 336q143 104 348 105q268 0 405 -183q88 -117 89 -278h-191q0 88 -43 158q-84 135 -278 135q-145 0 -236 -82 q-82 -72 -82 -174q0 -156 182 -199l232 -57q156 -39 246 -137.5t90 -235.5q0 -182 -119 -297q-154 -154 -426 -154q-291 0 -442 185q-109 135 -109 325zM432 -389q45 14 65.5 35.5t28.5 66.5h-80l31 168h174l-28 -157q-23 -135 -170 -175z" />
<glyph unicode="&#x219;" horiz-adv-x="1046" d="M33 311v37h174v-29q0 -78 67 -137q72 -63 201 -63q106 0 178 61q53 47 54 113q0 102 -132 133l-196 47q-102 25 -160 80q-74 70 -76 168q-2 152 121 252q113 90 285 90q104 0 198.5 -42t141.5 -124q49 -86 49 -172h-176q0 66 -41 117q-61 78 -189 78q-115 0 -176 -68 q-41 -45 -41 -102q0 -49 33 -80t78 -41q121 -27 242 -60q96 -25 155.5 -92t59.5 -162q0 -152 -119 -247q-115 -94 -299 -95q-248 0 -367 150q-65 82 -65 188zM303 -389q45 14 65.5 35.5t28.5 66.5h-80l31 168h174l-28 -157q-23 -135 -170 -175z" />
<glyph unicode="&#x2c6;" horiz-adv-x="718" d="M164 1239l266 236h113l186 -244l-106 -82l-150 188l-223 -192z" />
<glyph unicode="&#x2c7;" horiz-adv-x="745" d="M242 1384l112 82l142 -188l223 192l86 -94l-266 -235h-113z" />
<glyph unicode="&#x2d8;" horiz-adv-x="712" d="M141 1411q0 29 2 43h136v-22q0 -74 46 -120t119 -46q172 0 228 188h145q-37 -147 -138 -233t-251 -86q-123 0 -205 76.5t-82 199.5z" />
<glyph unicode="&#x2d9;" horiz-adv-x="555" d="M270 1227l33 188h189l-33 -188h-189z" />
<glyph unicode="&#x2da;" horiz-adv-x="442" d="M100 1311q0 102 79 181t188 79q90 0 140 -52.5t50 -129.5q0 -100 -79 -178t-187 -78q-90 0 -140.5 51t-50.5 127zM215 1329q0 -39 25.5 -64.5t68.5 -25.5q51 0 92 39t41 94q0 39 -25.5 66.5t-68.5 27.5q-51 0 -92 -40t-41 -97z" />
<glyph unicode="&#x2db;" horiz-adv-x="348" d="M90 -242q0 61 55.5 135t122.5 107q8 4 23.5 11t24 11.5t18.5 11.5t17 16t14 20l71 -70q-68 -25 -127 -82t-59 -117q0 -68 78 -67l61 2l-18 -119q-51 -12 -88 -14h-21q-82 0 -127 42.5t-45 112.5z" />
<glyph unicode="&#x2dc;" horiz-adv-x="729" d="M129 1329q119 111 227 111q59 0 134 -45t120 -45q74 0 140 61l61 -86q-106 -111 -227 -111q-66 0 -140.5 43t-113.5 43q-68 0 -135 -57z" />
<glyph unicode="&#x2dd;" horiz-adv-x="931" d="M178 1229l395 264l76 -147l-422 -213zM553 1229l395 264l76 -147l-422 -213z" />
<glyph unicode="&#x394;" horiz-adv-x="1204" d="M100 252v508q0 84 54.5 138t136.5 54q61 0 112 -34v145q0 84 54.5 138t136.5 54t136 -54t54 -138v-127h129q82 0 136.5 -54.5t54.5 -136.5q0 -84 -54.5 -138t-136.5 -54h-147q35 -47 35 -111q0 -82 -54.5 -136t-136.5 -54h-510zM438 588h475q70 0 113 44t43 113.5 t-43 112.5t-113 43h-161v162q0 70 -44 114t-114 44t-113 -44t-43 -114v-475z" />
<glyph unicode="&#x2206;" horiz-adv-x="1204" d="M100 252v508q0 84 54.5 138t136.5 54q61 0 112 -34v145q0 84 54.5 138t136.5 54t136 -54t54 -138v-127h129q82 0 136.5 -54.5t54.5 -136.5q0 -84 -54.5 -138t-136.5 -54h-147q35 -47 35 -111q0 -82 -54.5 -136t-136.5 -54h-510zM438 588h475q70 0 113 44t43 113.5 t-43 112.5t-113 43h-161v162q0 70 -44 114t-114 44t-113 -44t-43 -114v-475z" />
<glyph unicode="&#x3c0;" horiz-adv-x="1302" d="M113 897v139h1005v-139h-157v-635q0 -127 94 -127q68 0 92 10v-137q-57 -23 -137 -22q-115 0 -169.5 73.5t-54.5 182.5v655h-342v-899h-172v899h-159z" />
<glyph unicode="&#x1e80;" horiz-adv-x="1748" d="M178 1452h172l23 -1178l534 1158h164l139 -1151l430 1171h175l-545 -1452h-187l-135 1171l-530 -1171h-203zM836 1761l110 142l305 -252l-71 -92z" />
<glyph unicode="&#x1e81;" horiz-adv-x="1556" d="M129 1036h170l55 -786l396 774h141l131 -778l342 790h180l-463 -1036h-163l-134 788l-403 -788h-170zM651 1335l111 142l305 -252l-72 -92z" />
<glyph unicode="&#x2000;" horiz-adv-x="954" />
<glyph unicode="&#x2001;" horiz-adv-x="1910" />
<glyph unicode="&#x2002;" horiz-adv-x="954" />
<glyph unicode="&#x2003;" horiz-adv-x="1910" />
<glyph unicode="&#x2004;" horiz-adv-x="636" />
<glyph unicode="&#x2005;" horiz-adv-x="477" />
<glyph unicode="&#x2006;" horiz-adv-x="317" />
<glyph unicode="&#x2007;" horiz-adv-x="317" />
<glyph unicode="&#x2008;" horiz-adv-x="237" />
<glyph unicode="&#x2009;" horiz-adv-x="380" />
<glyph unicode="&#x200a;" horiz-adv-x="104" />
<glyph unicode="&#x2010;" horiz-adv-x="886" d="M106 537l29 161h608l-28 -161h-609z" />
<glyph unicode="&#x2011;" horiz-adv-x="886" d="M106 537l29 161h608l-28 -161h-609z" />
<glyph unicode="&#x2012;" horiz-adv-x="886" d="M106 537l29 161h608l-28 -161h-609z" />
<glyph unicode="&#x2013;" horiz-adv-x="1333" d="M106 537l29 161h1055l-29 -161h-1055z" />
<glyph unicode="&#x2014;" horiz-adv-x="2295" d="M106 537l29 161h2017l-28 -161h-2018z" />
<glyph unicode="&#x2018;" horiz-adv-x="555" d="M164 911l43 240q41 236 258 322l37 -97q-143 -57 -172 -225h129l-43 -240h-252z" />
<glyph unicode="&#x2019;" horiz-adv-x="534" d="M188 987q84 35 120 85t52 140h-129l43 240h252l-43 -240q-41 -236 -258 -321z" />
<glyph unicode="&#x201a;" horiz-adv-x="563" d="M-6 -225q84 35 120 85t52 140h-129l43 240h252l-43 -240q-41 -236 -258 -322z" />
<glyph unicode="&#x201c;" horiz-adv-x="958" d="M168 911l43 240q41 236 258 322l37 -97q-143 -57 -172 -225h129l-43 -240h-252zM571 911l43 240q41 236 258 322l37 -97q-143 -57 -172 -225h129l-43 -240h-252z" />
<glyph unicode="&#x201d;" horiz-adv-x="937" d="M186 987q84 35 120 85t52 140h-129l43 240h252l-43 -240q-41 -236 -258 -321zM590 987q84 35 119.5 85t52.5 140h-129l43 240h252l-43 -240q-41 -236 -258 -321z" />
<glyph unicode="&#x201e;" horiz-adv-x="999" d="M2 -225q84 35 120 85t52 140h-129l43 240h252l-43 -240q-41 -236 -258 -322zM408 -225q84 35 119.5 85t52.5 140h-129l43 240h251l-43 -240q-41 -236 -258 -322z" />
<glyph unicode="&#x2020;" horiz-adv-x="1150" d="M137 887l27 149h383l74 416h170l-74 -416h381l-27 -149h-381l-203 -1143h-170l203 1143h-383z" />
<glyph unicode="&#x2021;" horiz-adv-x="1150" d="M0 160l27 149h383l102 578h-383l25 149h383l73 416h168l-73 -416h382l-24 -149h-383l-102 -578h383l-27 -149h-383l-74 -416h-168l74 416h-383z" />
<glyph unicode="&#x2022;" horiz-adv-x="903" d="M166 598q0 111 76.5 189.5t185.5 78.5t184.5 -78.5t75.5 -189.5t-75.5 -189.5t-184.5 -78.5t-185.5 78.5t-76.5 189.5z" />
<glyph unicode="&#x2026;" horiz-adv-x="1640" d="M25 0l43 236h235l-43 -236h-235zM573 0l43 236h236l-43 -236h-236zM1122 0l43 236h238l-43 -236h-238z" />
<glyph unicode="&#x202f;" horiz-adv-x="380" />
<glyph unicode="&#x2030;" horiz-adv-x="2398" d="M152 41l1316 1450l91 -88l-1317 -1452zM182 1036q0 90 28 182.5t81 149.5q104 113 246 113q129 0 206.5 -83t77.5 -212q0 -213 -108 -330q-104 -113 -244 -113q-129 0 -208 82t-79 211zM328 1042q0 -76 36.5 -123t112.5 -47q57 0 101 37q47 39 71.5 118t24.5 155 q0 78 -37 124t-111 46q-57 0 -100 -37q-47 -41 -72.5 -120t-25.5 -153zM866 268q0 88 29 180.5t82 151.5q104 111 244 111q129 0 207.5 -83t78.5 -212q0 -90 -28.5 -181.5t-81.5 -148.5q-104 -113 -244 -113q-129 0 -208 83t-79 212zM1014 272.5q0 -75.5 36.5 -123 t112.5 -47.5q55 0 99 37q47 39 71.5 118t24.5 155q0 78 -37 124t-111 46q-57 0 -100 -37q-47 -39 -71.5 -118t-24.5 -154.5zM1587 268q0 90 27.5 182.5t81.5 149.5q104 111 246 111q129 0 206.5 -83t77.5 -212q0 -213 -108 -330q-104 -113 -244 -113q-129 0 -208 83t-79 212 zM1733 272q0 -76 36.5 -123t112.5 -47q57 0 100 37q47 39 72 118t25 155q0 78 -37 124t-111 46q-57 0 -100 -37q-47 -41 -72.5 -120t-25.5 -153z" />
<glyph unicode="&#x2039;" horiz-adv-x="641" d="M68 614l419 467l103 -88l-311 -387l174 -399l-125 -70z" />
<glyph unicode="&#x203a;" horiz-adv-x="641" d="M18 227l312 387l-174 398l127 67l258 -473l-420 -467z" />
<glyph unicode="&#x2044;" horiz-adv-x="1196" d="M14 41l1055 1442l113 -80l-1057 -1446z" />
<glyph unicode="&#x205f;" horiz-adv-x="477" />
<glyph unicode="&#x20ac;" horiz-adv-x="1191" d="M12 506l23 125h151q0 61 23 162h-146l23 125h152q59 221 204 362q174 170 414 170q250 0 404 -154l-93 -141q-127 131 -321 131q-172 0 -295 -129q-82 -88 -129 -239h584l-78 -125h-539q-14 -59 -22 -162h471l-78 -125h-400q0 -168 101.5 -269.5t271.5 -101.5 q145 0 271 78l40 -152q-150 -90 -321 -90q-242 0 -389.5 147.5t-153.5 387.5h-168z" />
<glyph unicode="&#x2122;" horiz-adv-x="1705" d="M143 1325l23 127h594l-23 -127h-225l-119 -674h-141l119 674h-228zM731 651l141 801h215l87 -573l290 573h222l-142 -801h-141l115 656l-328 -635h-100l-103 633l-115 -654h-141z" />
<glyph unicode="&#x2126;" horiz-adv-x="1757" d="M139 725q0 317 212 535.5t527.5 218.5t527.5 -217.5t212 -534.5t-212 -535.5t-527.5 -218.5t-527.5 217.5t-212 534.5zM276 725q0 -272 167 -446.5t435.5 -174.5t435.5 175.5t167 447.5t-167 446.5t-435.5 174.5t-435.5 -175.5t-167 -447.5zM647 330v784h289 q117 0 197.5 -68.5t80.5 -183.5q0 -117 -80.5 -186.5t-197.5 -69.5h-152v-276h-137zM782 733h154q63 0 99 33t36 96q0 57 -39 91t-96 34h-154v-254z" />
<glyph unicode="&#x2190;" horiz-adv-x="1746" d="M92 625l656 651l98 -102l-481 -476h1237v-147h-1237l481 -475l-98 -103z" />
<glyph unicode="&#x2192;" horiz-adv-x="1746" d="M113 551v147h1237l-480 476l99 102l653 -651l-653 -652l-99 103l480 475h-1237z" />
<glyph unicode="&#x2196;" horiz-adv-x="1349" d="M162 532v920h923v-137h-675l874 -875l-104 -104l-875 874v-678h-143z" />
<glyph unicode="&#x2197;" horiz-adv-x="1349" d="M82 440l874 875h-677v137h925v-920h-143v678l-875 -874z" />
<glyph unicode="&#x2202;" d="M111 0l28 160h305l187 1059l-379 -238l33 201l393 241h170l-223 -1263h297l-29 -160h-782z" />
<glyph unicode="&#x220f;" horiz-adv-x="1654" d="M129 483.5q0 16.5 12.5 28.5t28.5 12t29.5 -12t13.5 -28.5t-13.5 -30t-29.5 -13.5t-28.5 13.5t-12.5 30zM129 -548.5q0 16.5 13.5 28.5t29.5 12t29.5 -12t13.5 -28.5t-13.5 -30t-29.5 -13.5t-29.5 13.5t-13.5 30zM131 -32.5q0 16.5 12.5 29.5t28.5 13t29.5 -13 t13.5 -29.5t-13.5 -30t-29.5 -13.5t-28.5 13.5t-12.5 30zM133 995.5q0 16.5 13.5 29.5t30 13t29.5 -13t13 -29.5t-13 -30t-29.5 -13.5t-30 13.5t-13.5 30zM135 1509.5q0 16.5 13.5 29.5t30 13t29.5 -13t13 -29.5t-13 -29t-29.5 -12.5t-30 12.5t-13.5 29zM389 747.5 q0 16.5 12.5 28.5t28.5 12t29.5 -12t13.5 -28.5t-13.5 -29.5t-29.5 -13t-28.5 13t-12.5 29.5zM391 231.5q0 16.5 13.5 29.5t30 13t28.5 -13t12 -29.5t-12 -30t-28.5 -13.5t-30 13.5t-13.5 30zM391 -284.5q0 16.5 12.5 29.5t29 13t29.5 -13t13 -29.5t-13 -30t-29.5 -13.5 t-29 13.5t-12.5 30zM393 1259.5q0 16.5 13.5 30t30 13.5t29.5 -13.5t13 -30t-13 -29.5t-29.5 -13t-30 13t-13.5 29.5zM397 1775.5q0 16.5 12.5 29t29 12.5t29.5 -12.5t13 -29t-13 -29.5t-29.5 -13t-29 13t-12.5 29.5zM649 483.5q0 16.5 13.5 28.5t30 12t29.5 -12t13 -28.5 t-13 -30t-29.5 -13.5t-30 13.5t-13.5 30zM651 -32.5q0 16.5 13.5 29.5t30 13t29.5 -13t13 -29.5t-13 -30t-29.5 -13.5t-30 13.5t-13.5 30zM651 -548.5q0 16.5 13.5 28.5t30 12t29.5 -12t13 -28.5t-13 -30t-29.5 -13.5t-30 13.5t-13.5 30zM655 995.5q0 16.5 13.5 29.5t30 13 t28.5 -13t12 -29.5t-12 -30t-28.5 -13.5t-30 13.5t-13.5 30zM657 1509.5q0 16.5 13.5 29.5t30 13t29.5 -13t13 -29.5t-13 -29t-29.5 -12.5t-30 12.5t-13.5 29zM909 747.5q0 16.5 13.5 28.5t30 12t29.5 -12t13 -28.5t-13 -29.5t-29.5 -13t-30 13t-13.5 29.5zM911 231.5 q0 16.5 13.5 29.5t30 13t29.5 -13t13 -29.5t-13 -30t-29.5 -13.5t-30 13.5t-13.5 30zM911 -284.5q0 16.5 13.5 29.5t30 13t29.5 -13t13 -29.5t-13 -30t-29.5 -13.5t-30 13.5t-13.5 30zM915 1259.5q0 16.5 13.5 30t30 13.5t29.5 -13.5t13 -30t-13 -29.5t-29.5 -13t-30 13 t-13.5 29.5zM918 1775.5q0 16.5 13 29t29.5 12.5t30 -12.5t13.5 -29t-13.5 -29.5t-30 -13t-29.5 13t-13 29.5zM1174 483.5q0 16.5 13 28.5t29.5 12t28.5 -12t12 -28.5t-12 -30t-28.5 -13.5t-29.5 13.5t-13 30zM1176 -32.5q0 16.5 13 29.5t29.5 13t29 -13t12.5 -29.5 t-12.5 -30t-29 -13.5t-29.5 13.5t-13 30zM1176 -548.5q0 16.5 13 28.5t29.5 12t29 -12t12.5 -28.5t-12.5 -30t-29 -13.5t-29.5 13.5t-13 30zM1180 995.5q0 16.5 12 29.5t28.5 13t30 -13t13.5 -29.5t-13.5 -30t-30 -13.5t-28.5 13.5t-12 30zM1182 1509.5q0 16.5 13 29.5 t29.5 13t29 -13t12.5 -29.5t-12.5 -29t-29 -12.5t-29.5 12.5t-13 29zM1434 747.5q0 16.5 13 28.5t29.5 12t30 -12t13.5 -28.5t-13.5 -29.5t-30 -13t-29.5 13t-13 29.5zM1436 231.5q0 16.5 13 29.5t29.5 13t30 -13t13.5 -29.5t-13.5 -30t-30 -13.5t-29.5 13.5t-13 30z M1436 -284.5q0 16.5 13 29.5t29.5 13t30 -13t13.5 -29.5t-13.5 -30t-30 -13.5t-29.5 13.5t-13 30zM1440 1260q0 16 13 29.5t29.5 13.5t29 -13.5t12.5 -29.5q0 -18 -13.5 -30.5t-31.5 -12.5q-39 0 -39 43zM1442 1775.5q0 16.5 13 29t29.5 12.5t29 -12.5t12.5 -29t-12.5 -29.5 t-29 -13t-29.5 13t-13 29.5z" />
<glyph unicode="&#x2211;" horiz-adv-x="1892" d="M35 -150v453h96v-358h1399v358h94v-453h-1589z" />
<glyph unicode="&#x2212;" horiz-adv-x="1312" d="M90 537v161h1055v-161h-1055z" />
<glyph unicode="&#x221a;" horiz-adv-x="1314" d="M145 1032h187l260 -788l471 1460h362v-135h-225l-530 -1585h-158z" />
<glyph unicode="&#x221e;" horiz-adv-x="1468" d="M131 354q0 137 90 248t225 160q-78 35 -126 111.5t-48 168.5q0 156 111 267q143 143 395 143q70 0 176 -27l-28 -157q-98 23 -164 22q-127 0 -213 -66.5t-86 -189.5q0 -96 71.5 -152.5t176.5 -56.5h239l41 236h176l-41 -236h228l-27 -153h-227l-92 -516h225l-27 -156 h-651q-176 0 -300 91t-124 263zM313 369q0 -106 78 -159.5t191 -53.5h252l90 516h-275q-139 0 -237.5 -89t-98.5 -214z" />
<glyph unicode="&#x222b;" horiz-adv-x="1204" d="M100 252v508q0 84 54.5 138t136.5 54q61 0 112 -34v145q0 84 54.5 138t136.5 54t136 -54t54 -138v-127h129q82 0 136.5 -54.5t54.5 -136.5q0 -84 -54.5 -138t-136.5 -54h-147q35 -47 35 -111q0 -82 -54.5 -136t-136.5 -54h-510zM438 588h475q70 0 113 44t43 113.5 t-43 112.5t-113 43h-161v162q0 70 -44 114t-114 44t-113 -44t-43 -114v-475z" />
<glyph unicode="&#x2248;" horiz-adv-x="1333" d="M133 348q96 94 164 127t149 33q78 0 168 -35q18 -6 73.5 -29.5t86.5 -33.5q43 -16 80 -17q51 0 95 17.5t108 78.5l110 -112q-96 -94 -163.5 -127t-149.5 -33q-86 0 -236 68q-117 51 -174 51q-51 0 -95 -18.5t-107 -79.5zM133 739q96 94 164 127t149 33q72 0 168 -37 q18 -6 73.5 -29.5t86.5 -33.5q37 -14 80 -15q51 0 95 17.5t108 79.5l110 -115q-96 -94 -163.5 -127t-149.5 -33q-80 0 -236 70q-113 49 -174 49q-51 0 -95 -18.5t-107 -79.5z" />
<glyph unicode="&#x2260;" horiz-adv-x="1409" d="M211 274v158h291l190 273h-481v157h592l162 232l102 -72l-113 -160h244v-157h-352l-193 -273h545v-158h-653l-170 -241l-103 71l119 170h-180z" />
<glyph unicode="&#x2264;" horiz-adv-x="1204" d="M100 252v508q0 84 54.5 138t136.5 54q61 0 112 -34v145q0 84 54.5 138t136.5 54t136 -54t54 -138v-127h129q82 0 136.5 -54.5t54.5 -136.5q0 -84 -54.5 -138t-136.5 -54h-147q35 -47 35 -111q0 -82 -54.5 -136t-136.5 -54h-510zM438 588h475q70 0 113 44t43 113.5 t-43 112.5t-113 43h-161v162q0 70 -44 114t-114 44t-113 -44t-43 -114v-475z" />
<glyph unicode="&#x2265;" horiz-adv-x="1204" d="M100 252v508q0 84 54.5 138t136.5 54q61 0 112 -34v145q0 84 54.5 138t136.5 54t136 -54t54 -138v-127h129q82 0 136.5 -54.5t54.5 -136.5q0 -84 -54.5 -138t-136.5 -54h-147q35 -47 35 -111q0 -82 -54.5 -136t-136.5 -54h-510zM438 588h475q70 0 113 44t43 113.5 t-43 112.5t-113 43h-161v162q0 70 -44 114t-114 44t-113 -44t-43 -114v-475z" />
<glyph unicode="&#x25ca;" d="M66 442q0 119 34 312q25 141 47.5 228t81 197.5t144.5 178.5q119 94 276 94q190 0 305 -121q119 -125 119 -348q0 -129 -33 -311q-39 -213 -95 -359.5t-179 -244.5q-121 -94 -277 -95q-166 0 -284 105q-139 124 -139 364zM246 500l647 561q-12 100 -74.5 165.5 t-173.5 65.5q-76 0 -136 -36.5t-95 -86t-63.5 -132.5t-40 -137t-25.5 -138q-2 -16 -4 -25q-29 -153 -35 -237zM256 322q12 -84 75.5 -136.5t164.5 -52.5q76 0 136 37t95 86t63.5 132t40 137.5t25.5 138.5q2 16 4 24q20 123 29 184z" />
<glyph unicode="&#xe000;" horiz-adv-x="1035" d="M0 1035h1035v-1035h-1035v1035z" />
<glyph unicode="&#xf8ff;" horiz-adv-x="1204" d="M100 252v508q0 84 54.5 138t136.5 54q61 0 112 -34v145q0 84 54.5 138t136.5 54t136 -54t54 -138v-127h129q82 0 136.5 -54.5t54.5 -136.5q0 -84 -54.5 -138t-136.5 -54h-147q35 -47 35 -111q0 -82 -54.5 -136t-136.5 -54h-510zM438 588h475q70 0 113 44t43 113.5 t-43 112.5t-113 43h-161v162q0 70 -44 114t-114 44t-113 -44t-43 -114v-475z" />
<glyph horiz-adv-x="483" d="M631 1761l110 142l306 -252l-72 -92z" />
<glyph horiz-adv-x="454" d="M-4 1647l393 249l72 -149l-414 -203z" />
<glyph horiz-adv-x="718" d="M127 1649l303 231h117l217 -235l-109 -101l-182 201l-260 -199z" />
<glyph horiz-adv-x="454" d="M-96 1780l108 100l183 -201l260 199l86 -102l-303 -232h-117z" />
<glyph horiz-adv-x="454" d="M-70 1585l25 139h569l-24 -139h-570z" />
<glyph horiz-adv-x="454" d="M-109 1821q0 29 3 43h135v-23q0 -74 46 -120t120 -46q172 0 227 189h145q-37 -147 -138 -233.5t-251 -86.5q-123 0 -205 77t-82 200z" />
<glyph horiz-adv-x="454" d="M-2 1620q0 100 80 178t186 78q90 0 140.5 -52t50.5 -130q0 -100 -79 -178t-188 -78q-90 0 -140 52t-50 130zM113 1634q0 -39 25.5 -64.5t68.5 -25.5q51 0 92 39t41 94q0 39 -25.5 67t-68.5 28q-51 0 -92 -40.5t-41 -97.5z" />
<glyph horiz-adv-x="454" d="M-164 1640l395 265l76 -148l-422 -213zM211 1640l395 265l76 -148l-422 -213z" />
<glyph horiz-adv-x="454" d="M115 1616l32 188h189l-33 -188h-188z" />
<glyph horiz-adv-x="454" d="M133 -389q45 14 65.5 35.5t28.5 66.5h-80l31 168h174l-28 -157q-23 -135 -170 -175z" />
<glyph horiz-adv-x="454" d="M133 -377l29 158q23 135 170 174l20 -61q-45 -14 -65.5 -36t-28.5 -67h80l-31 -168h-174z" />
<glyph horiz-adv-x="454" d="M86 1163q80 37 92 117l2 12h-67l32 187h158l-31 -174q-25 -147 -168 -209z" />
</font>
</defs>
</svg>
