<svg xmlns="http://www.w3.org/2000/svg" width="296.788" height="46.752" viewBox="0 0 296.788 46.752"><path fill="#817E7E" d="M28.564 40.988l-24.986-38.025h-3.578v42.999h3.154v-38.086l24.926 38.086h3.578v-42.999h-3.094zM43.969 2.963h4.246v4.246h-4.246zM44.517 15.639h3.215v30.324h-3.215zM70.534 43.778c-2.91 0-5.155-.909-6.731-2.546-2.73-2.851-3.336-6.49-3.336-10.431 0-3.943.606-7.52 3.336-10.371 1.576-1.639 3.821-2.609 6.731-2.609 4.61 0 7.885 3.095 8.552 7.28h3.154c-.729-6.127-5.398-10.251-11.706-10.251-3.758 0-6.792 1.456-8.915 3.579-3.153 3.152-4.245 7.217-4.245 12.372 0 5.154 1.092 9.217 4.245 12.371 2.123 2.123 5.157 3.579 8.915 3.579 6.368 0 11.037-4.488 11.826-10.371h-3.214c-.728 4.125-3.941 7.398-8.612 7.398"/><path fill="#817E7E" d="M101.707 14.851c-4.244 0-7.762 1.82-10.31 5.276-2.365 3.215-2.971 6.975-2.971 10.796 0 4.608 1.393 8.611 3.882 11.522 2.182 2.487 5.275 4.306 9.642 4.306 3.457 0 6.489-1.334 8.673-3.517 1.698-1.639 2.971-3.762 3.396-6.369h-3.153c-.365 1.82-1.215 3.153-2.305 4.306-1.637 1.698-3.941 2.67-6.611 2.67-3.275 0-5.64-1.214-7.338-3.215-1.942-2.306-3.093-5.579-3.154-9.098h23.167l.061-2.001c0-7.641-4.791-14.676-12.979-14.676m-10.188 13.887c0-6.002 3.941-11.037 10.188-11.037 6.187 0 9.766 5.275 9.886 11.037h-20.074zM154.046 22.613l-8.126-1.031c-3.942-.484-7.58-2.426-7.58-7.52 0-2.789 1.273-4.79 2.91-6.246 2.123-1.82 5.095-2.609 8.188-2.609 3.941 0 7.459 1.395 9.338 3.701 1.396 1.637 2.063 3.275 2.366 5.457h3.214c-.243-3.092-1.455-5.336-3.274-7.46-2.425-2.849-7.035-4.73-11.644-4.73-4.004 0-7.946 1.334-10.614 3.76-2.182 2.003-3.76 4.549-3.76 8.127 0 6.611 4.488 10.068 10.552 10.855l8.005 1.033c5.154.667 8.37 4.244 8.37 8.367 0 2.73-1.031 4.731-2.548 6.188-2.363 2.243-6.064 3.213-9.765 3.213-3.578 0-7.156-1.15-9.46-3.516-1.637-1.7-2.851-4.065-3.154-6.611h-3.274c.303 3.276 1.759 6.307 3.88 8.551 2.851 3.033 7.096 4.609 12.008 4.609 4.973 0 9.28-1.335 12.191-4.184 2.001-2.003 3.396-4.488 3.396-8.25.001-6.063-4.548-10.854-11.219-11.704M187.767 14.851c-4.244 0-8.552 2.487-10.249 6.368v-19.044h-3.031v43.787h3.031v-15.161c0-6.55 2.607-13.101 10.067-13.101 5.518 0 7.823 3.154 7.823 8.431v19.831h3.031v-20.013c.001-6.793-3.697-11.098-10.672-11.098"/><path fill="#817E7E" d="M209.6 2.963h4.246v4.246h-4.246zM210.147 15.639h3.213v30.324h-3.213zM228.643 21.765l-.362-6.126h-2.67v30.324h3.032v-14.556c0-6.369 2.063-13.161 9.645-13.161.97 0 2.001.061 2.971.303v-3.032c-.97-.182-2.001-.182-2.971-.182-4.246 0-8.309 2.245-9.645 6.43M253.874 37.411v-18.982h9.4v-2.791h-9.4v-9.096l-3.032.728v8.368h-6.063v2.791h6.063v19.102c0 5.277 2.185 8.856 7.823 8.856 1.699 0 3.336-.364 5.034-.729v-2.668c-1.637.303-3.153.546-4.792.546-4.063.001-5.033-2.546-5.033-6.125M283.895 0c-7.121 0-12.893 5.773-12.893 12.894 0 7.122 5.771 12.894 12.893 12.894s12.893-5.771 12.893-12.894c0-7.121-5.772-12.894-12.893-12.894m0 23.26c-5.717 0-10.367-4.65-10.367-10.366 0-5.717 4.65-10.367 10.367-10.367 5.716 0 10.367 4.65 10.367 10.367 0 5.716-4.651 10.366-10.367 10.366M279.926 8.924c-.7.7-.7 1.834 0 2.532.697.7 1.831.7 2.531 0 .7-.698.7-1.832 0-2.532s-1.833-.7-2.531 0M285.333 14.332c-.7.698-.7 1.832 0 2.532s1.834.7 2.531 0c.7-.7.7-1.834 0-2.532-.697-.7-1.831-.7-2.531 0M285.333 8.924c-.699.698-.699 1.832 0 2.532.698.7 1.832.7 2.532 0s.7-1.834 0-2.532c-.7-.699-1.834-.699-2.532 0M279.925 14.331c-.7.7-.7 1.832 0 2.532s1.834.7 2.532 0c.7-.698.7-1.832 0-2.532-.698-.7-1.832-.7-2.532 0"/></svg>