<?xml version="1.0" encoding="utf-8"?>
<!-- Generator: Adobe Illustrator 15.1.0, SVG Export Plug-In . SVG Version: 6.00 Build 0)  -->
<!DOCTYPE svg PUBLIC "-//W3C//DTD SVG 1.1//EN" "http://www.w3.org/Graphics/SVG/1.1/DTD/svg11.dtd">
<svg version="1.1"  xmlns="http://www.w3.org/2000/svg" xmlns:xlink="http://www.w3.org/1999/xlink" x="0px" y="0px"
	 width="175.472px" height="28.346px" viewBox="0 0 175.472 28.346" enable-background="new 0 0 175.472 28.346"
	 xml:space="preserve">
<path d="M42.145,11.509c0-1.62-1.08-2.25-2.592-2.25h-3.401v4.481h3.401C41.064,13.74,42.145,13.129,42.145,11.509"/>
<path d="M119.236,9.241h-3.096v4.895h3.113c1.711,0,2.574-0.792,2.574-2.501C121.828,10.015,120.82,9.241,119.236,9.241"/>
<path d="M103.378,11.509c0-1.62-1.08-2.25-2.592-2.25h-3.402v4.481h3.402C102.298,13.74,103.378,13.129,103.378,11.509"/>
<path d="M86.982,9.079c-0.864,0-1.71,0.324-2.322,0.954c-1.044,1.08-1.098,2.807-1.098,4.139c0,1.332,0.054,3.06,1.098,4.14
	c0.612,0.63,1.458,0.953,2.322,0.953c0.864,0,1.709-0.323,2.322-0.953c1.043-1.08,1.098-2.809,1.098-4.14
	c0-1.332-0.055-3.059-1.098-4.139C88.691,9.403,87.846,9.079,86.982,9.079"/>
<path d="M0,28.346h175.472V0H0V28.346z M23.222,19.266c-0.9,0.864-2.106,1.278-3.348,1.278h-4.445V7.783h4.445
	c1.242,0,2.448,0.433,3.348,1.296c1.404,1.332,1.637,3.24,1.637,5.076C24.859,15.99,24.607,17.934,23.222,19.266 M30.213,20.544
	h-1.638V7.784h1.638V20.544z M42.09,20.544l-2.411-5.309h-3.528v5.309h-1.602V7.783h5.004c1.493,0,2.537,0.414,3.24,1.134
	c0.611,0.648,1.007,1.476,1.007,2.592c0,1.116-0.36,1.872-0.971,2.52c-0.379,0.396-0.918,0.702-1.531,0.899l2.556,5.616H42.09z
	 M55.943,9.259h-6.929v3.888h6.083v1.511h-6.083v4.411h6.929v1.476h-8.531V7.783h8.531V9.259z M67.056,19.428
	c-0.774,0.773-2.034,1.368-3.419,1.368c-1.278,0-2.538-0.468-3.456-1.368c-1.386-1.35-1.602-3.222-1.602-5.255
	c0-2.034,0.216-3.906,1.602-5.256c0.918-0.9,2.178-1.367,3.456-1.367c1.385,0,2.627,0.54,3.401,1.313
	c0.738,0.756,1.206,1.728,1.26,2.916h-1.656c-0.018-0.702-0.287-1.314-0.702-1.782c-0.503-0.558-1.332-0.936-2.303-0.936
	c-0.864,0-1.71,0.342-2.322,0.972c-1.044,1.08-1.08,2.808-1.08,4.14s0.036,3.06,1.08,4.14c0.612,0.629,1.458,0.971,2.322,0.971
	c0.971,0,1.818-0.413,2.322-0.971c0.413-0.469,0.683-1.135,0.701-1.836h1.656C68.262,17.664,67.794,18.672,67.056,19.428
	 M79.766,9.277h-3.798v11.267h-1.619V9.277h-3.798V7.783h9.215V9.277z M90.419,19.428c-0.918,0.9-2.16,1.368-3.438,1.368
	c-1.277,0-2.52-0.468-3.437-1.368c-1.386-1.35-1.638-3.222-1.638-5.255c0-2.034,0.252-3.906,1.638-5.256
	c0.917-0.9,2.16-1.367,3.437-1.367c1.278,0,2.52,0.467,3.438,1.367c1.387,1.35,1.639,3.222,1.639,5.256
	C92.058,16.206,91.806,18.078,90.419,19.428 M103.324,20.544l-2.411-5.309h-3.528v5.309h-1.602V7.783h5.004
	c1.493,0,2.537,0.414,3.239,1.134c0.612,0.648,1.008,1.476,1.008,2.592c0,1.116-0.36,1.872-0.972,2.52
	c-0.379,0.396-0.918,0.702-1.53,0.899l2.556,5.616H103.324z M122.421,14.532c-0.684,0.685-1.728,1.062-3.132,1.062h-3.149v4.95
	h-1.602V7.783h4.733c1.493,0,2.556,0.414,3.239,1.152c0.613,0.666,0.972,1.584,0.972,2.7
	C123.483,12.877,123.105,13.849,122.421,14.532 M133.821,20.544l-1.044-3.024h-5.543l-1.025,3.024h-1.621l4.5-12.761h1.873
	l4.517,12.761H133.821z M147.427,20.544h-1.116l-0.271-1.53c-0.63,1.044-2.033,1.782-3.473,1.782c-1.278,0-2.52-0.414-3.438-1.313
	c-1.297-1.261-1.656-3.024-1.656-5.31c0-2.034,0.27-3.906,1.656-5.256c0.918-0.9,2.159-1.367,3.438-1.367
	c1.439,0,2.771,0.503,3.652,1.439c0.613,0.648,1.045,1.458,1.099,2.484h-1.674c-0.054-0.594-0.253-1.008-0.576-1.404
	c-0.576-0.684-1.458-1.008-2.501-1.008c-0.864,0-1.71,0.342-2.322,0.972c-1.044,1.08-1.115,2.808-1.115,4.14
	c0,1.277,0.09,3.112,1.151,4.192c0.612,0.631,1.422,0.918,2.286,0.918c0.898,0,1.746-0.305,2.32-0.881
	c0.847-0.828,1.099-2.07,1.099-3.24h-3.419v-1.493h4.859V20.544z M160.042,9.259h-6.929v3.888h6.083v1.511h-6.083v4.411h6.929v1.476
	h-8.531V7.783h8.531V9.259z"/>
<polygon points="127.738,16.008 132.255,16.008 129.988,9.384 "/>
<path d="M19.874,9.259H17.03v9.81h2.844c0.828,0,1.674-0.289,2.268-0.883c1.007-1.025,1.098-2.664,1.098-4.031
	c0-1.368-0.091-2.97-1.098-4.014C21.548,9.547,20.702,9.259,19.874,9.259"/>
</svg>
