<svg class="director-label" xmlns="http://www.w3.org/2000/svg" width="175.472" height="28.346" viewBox="0 0 175.472 28.346"><path d="M42.145 11.509c0-1.62-1.08-2.25-2.592-2.25h-3.401v4.481h3.401c1.511 0 2.592-.611 2.592-2.231M119.236 9.241h-3.096v4.895h3.113c1.711 0 2.574-.792 2.574-2.501.001-1.62-1.007-2.394-2.591-2.394M103.378 11.509c0-1.62-1.08-2.25-2.592-2.25h-3.402v4.481h3.402c1.512 0 2.592-.611 2.592-2.231M86.982 9.079c-.864 0-1.71.324-2.322.954-1.044 1.08-1.098 2.807-1.098 4.139 0 1.332.054 3.06 1.098 4.14.612.63 1.458.953 2.322.953.864 0 1.709-.323 2.322-.953 1.043-1.08 1.098-2.809 1.098-4.14 0-1.332-.055-3.059-1.098-4.139-.613-.63-1.458-.954-2.322-.954"/><path d="M0 28.346h175.472v-28.346h-175.472v28.346zm23.222-9.08c-.9.864-2.106 1.278-3.348 1.278h-4.445v-12.761h4.445c1.242 0 2.448.433 3.348 1.296 1.404 1.332 1.637 3.24 1.637 5.076 0 1.835-.252 3.779-1.637 5.111m6.991 1.278h-1.638v-12.76h1.638v12.76zm11.877 0l-2.411-5.309h-3.528v5.309h-1.602v-12.761h5.004c1.493 0 2.537.414 3.24 1.134.611.648 1.007 1.476 1.007 2.592s-.36 1.872-.971 2.52c-.379.396-.918.702-1.531.899l2.556 5.616h-1.764zm13.853-11.285h-6.929v3.888h6.083v1.511h-6.083v4.411h6.929v1.476h-8.531v-12.762h8.531v1.476zm11.113 10.169c-.774.773-2.034 1.368-3.419 1.368-1.278 0-2.538-.468-3.456-1.368-1.386-1.35-1.602-3.222-1.602-5.255 0-2.034.216-3.906 1.602-5.256.918-.9 2.178-1.367 3.456-1.367 1.385 0 2.627.54 3.401 1.313.738.756 1.206 1.728 1.26 2.916h-1.656c-.018-.702-.287-1.314-.702-1.782-.503-.558-1.332-.936-2.303-.936-.864 0-1.71.342-2.322.972-1.044 1.08-1.08 2.808-1.08 4.14s.036 3.06 1.08 4.14c.612.629 1.458.971 2.322.971.971 0 1.818-.413 2.322-.971.413-.469.683-1.135.701-1.836h1.656c-.054 1.187-.522 2.195-1.26 2.951m12.71-10.151h-3.798v11.267h-1.619v-11.267h-3.798v-1.494h9.215v1.494zm10.653 10.151c-.918.9-2.16 1.368-3.438 1.368-1.277 0-2.52-.468-3.437-1.368-1.386-1.35-1.638-3.222-1.638-5.255 0-2.034.252-3.906 1.638-5.256.917-.9 2.16-1.367 3.437-1.367 1.278 0 2.52.467 3.438 1.367 1.387 1.35 1.639 3.222 1.639 5.256 0 2.033-.252 3.905-1.639 5.255m12.905 1.116l-2.411-5.309h-3.528v5.309h-1.602v-12.761h5.004c1.493 0 2.537.414 3.239 1.134.612.648 1.008 1.476 1.008 2.592s-.36 1.872-.972 2.52c-.379.396-.918.702-1.53.899l2.556 5.616h-1.764zm19.097-6.012c-.684.685-1.728 1.062-3.132 1.062h-3.149v4.95h-1.602v-12.761h4.733c1.493 0 2.556.414 3.239 1.152.613.666.972 1.584.972 2.7.001 1.242-.377 2.214-1.061 2.897m11.4 6.012l-1.044-3.024h-5.543l-1.025 3.024h-1.621l4.5-12.761h1.873l4.517 12.761h-1.657zm13.606 0h-1.116l-.271-1.53c-.63 1.044-2.033 1.782-3.473 1.782-1.278 0-2.52-.414-3.438-1.313-1.297-1.261-1.656-3.024-1.656-5.31 0-2.034.27-3.906 1.656-5.256.918-.9 2.159-1.367 3.438-1.367 1.439 0 2.771.503 3.652 1.439.613.648 1.045 1.458 1.099 2.484h-1.674c-.054-.594-.253-1.008-.576-1.404-.576-.684-1.458-1.008-2.501-1.008-.864 0-1.71.342-2.322.972-1.044 1.08-1.115 2.808-1.115 4.14 0 1.277.09 3.112 1.151 4.192.612.631 1.422.918 2.286.918.898 0 1.746-.305 2.32-.881.847-.828 1.099-2.07 1.099-3.24h-3.419v-1.493h4.859v6.875zm12.615-11.285h-6.929v3.888h6.083v1.511h-6.083v4.411h6.929v1.476h-8.531v-12.762h8.531v1.476zM127.738 16.008h4.517l-2.267-6.624zM19.874 9.259h-2.844v9.81h2.844c.828 0 1.674-.289 2.268-.883 1.007-1.025 1.098-2.664 1.098-4.031 0-1.368-.091-2.97-1.098-4.014-.594-.594-1.44-.882-2.268-.882"/></svg>