<?xml version="1.0" encoding="utf-8"?>
<!-- Generator: Adobe Illustrator 15.1.0, SVG Export Plug-In . SVG Version: 6.00 Build 0)  -->
<!DOCTYPE svg PUBLIC "-//W3C//DTD SVG 1.1//EN" "http://www.w3.org/Graphics/SVG/1.1/DTD/svg11.dtd">
<svg version="1.1" xmlns="http://www.w3.org/2000/svg" xmlns:xlink="http://www.w3.org/1999/xlink" x="0px" y="0px"
	 width="35.635px" height="35.635px" viewBox="0 0 35.635 35.635" enable-background="new 0 0 35.635 35.635" xml:space="preserve">
<path d="M17.81,0C7.981,0,0,7.98,0,17.809c0,9.847,7.981,17.826,17.81,17.826c9.843,0,17.825-7.979,17.825-17.826
	C35.635,7.97,27.653,0,17.81,0z M22.422,17.809h-2.926V28.5h-4.003V17.809h-2.675v-3.674l2.675-0.01l-0.012-2.164
	c0-3.001,0.815-4.838,4.362-4.838h2.949v3.686h-1.852c-1.37,0-1.445,0.521-1.445,1.479v1.837h3.316L22.422,17.809z"/>
</svg>
