<?xml version="1.0" encoding="utf-8"?>
<!-- Generator: Adobe Illustrator 19.1.0, SVG Export Plug-In . SVG Version: 6.00 Build 0)  -->
<!DOCTYPE svg PUBLIC "-//W3C//DTD SVG 1.1//EN" "http://www.w3.org/Graphics/SVG/1.1/DTD/svg11.dtd">
<svg version="1.1" id="Layer_1" xmlns="http://www.w3.org/2000/svg" xmlns:xlink="http://www.w3.org/1999/xlink" x="0px" y="0px"
	 viewBox="-239 346.9 35.6 35.6" style="enable-background:new -239 346.9 35.6 35.6;" xml:space="preserve">
<path d="M-215,364.7c0-3.2-2.6-5.8-5.8-5.8c-3.2,0-5.8,2.5-5.8,5.8c0,3.2,2.6,5.8,5.8,5.8C-217.6,370.4-215,367.9-215,364.7
	 M-207.8,355.2c0,0.4-0.4,0.9-0.9,0.9h-2.6c-0.4,0-0.9-0.4-0.9-0.9v-2.6c0-0.5,0.4-0.9,0.9-0.9h2.6c0.5,0,0.9,0.4,0.9,0.9V355.2z
	 M-210.1,349.2h-21.3c-2.7,0-4.8,2.2-4.8,4.8v5.3h7.8c1.7-2.4,4.5-4,7.6-4c3.2,0,5.9,1.5,7.6,4h7.8V354
	C-205.3,351.4-207.5,349.2-210.1,349.2 M-211.4,364.7c0,5.1-4.2,9.4-9.4,9.4c-5.2,0-9.4-4.2-9.4-9.4c0-0.6,0.1-1.2,0.1-1.8h-6.3
	v12.4c0,2.7,2.2,4.9,4.8,4.9h21.3c2.7,0,4.8-2.2,4.8-4.9v-12.4h-6.3C-211.5,363.5-211.4,364-211.4,364.7"/>
</svg>
