<?xml version="1.0" encoding="utf-8"?>
<!-- Generator: Adobe Illustrator 15.1.0, SVG Export Plug-In . SVG Version: 6.00 Build 0)  -->
<!DOCTYPE svg PUBLIC "-//W3C//DTD SVG 1.1//EN" "http://www.w3.org/Graphics/SVG/1.1/DTD/svg11.dtd">
<svg version="1.1" id="Layer_1" xmlns="http://www.w3.org/2000/svg" xmlns:xlink="http://www.w3.org/1999/xlink" x="0px" y="0px"
	 width="275.457px" height="56.693px" viewBox="0 0 275.457 56.693" enable-background="new 0 0 275.457 56.693"
	 xml:space="preserve">
<polygon fill="#FFFFFF" points="83.529,32.612 94.508,32.612 88.964,18.178 "/>
<path fill="#FFFFFF" d="M114.707,17.422h-6.587v21.85h6.587c1.908,0,3.779-0.684,5.075-1.908c2.376-2.303,2.556-5.976,2.556-9.034
	c0-3.06-0.18-6.731-2.556-8.999C118.486,18.106,116.615,17.422,114.707,17.422"/>
<path fill="#FFFFFF" d="M185.018,16.954c-1.979,0-3.852,0.685-5.184,1.979c-2.52,2.412-2.629,6.372-2.629,9.396
	s0.109,7.02,2.629,9.431c1.332,1.296,3.205,1.979,5.184,1.979c1.979,0,3.853-0.684,5.185-1.979c2.521-2.411,2.627-6.407,2.627-9.431
	s-0.106-6.983-2.627-9.396C188.869,17.638,186.996,16.954,185.018,16.954"/>
<path fill="#FFFFFF" d="M212.003,17.35h-7.45v11.157h7.45c4.211,0,6.659-1.942,6.659-5.578
	C218.662,19.293,216.214,17.35,212.003,17.35"/>
<path fill="#FFFFFF" d="M0,56.693h275.457V0H0V56.693z M48.815,41.107h-2.051l-5.003-10.87H32.87v10.87h-1.872V15.586h9.323
	c5.579,0,8.603,2.916,8.603,7.344c0,3.348-2.088,5.976-5.291,6.84L48.815,41.107z M72.777,17.386H58.344v9.358H71.05v1.8H58.344
	v10.763h14.433v1.8H56.436V15.586h16.341V17.386z M97.783,41.107l-2.592-6.731H82.845l-2.52,6.731h-1.943l9.682-25.521H89.9
	l9.79,25.521H97.783z M121.15,38.588c-1.511,1.476-3.744,2.52-6.443,2.52h-8.459V15.586h8.459c2.699,0,4.932,1.044,6.443,2.521
	c2.808,2.7,3.096,6.659,3.096,10.223S123.958,35.887,121.15,38.588 M167.336,41.107h-1.835V18.286l-9.323,22.461h-1.656
	L145.2,18.466v22.642h-1.837V15.586h2.629l9.431,22.677l9.251-22.677h2.663L167.336,41.107L167.336,41.107z M191.568,38.984
	c-1.584,1.511-3.779,2.591-6.551,2.591c-2.772,0-4.968-1.08-6.552-2.591c-2.88-2.772-3.202-6.983-3.202-10.655
	s0.322-7.847,3.202-10.619c1.584-1.511,3.779-2.592,6.552-2.592c2.771,0,4.967,1.081,6.551,2.592
	c2.879,2.772,3.203,6.947,3.203,10.619S194.447,36.211,191.568,38.984 M220.497,41.107h-2.052l-5.004-10.87h-8.89v10.87h-1.872
	V15.586h9.322c5.579,0,8.604,2.916,8.604,7.344c0,3.348-2.088,5.976-5.291,6.84L220.497,41.107z M244.459,17.386h-14.436v9.358
	h12.707v1.8h-12.707v10.763h14.436v1.8h-16.342V15.586h16.342V17.386z"/>
<path fill="#FFFFFF" d="M40.321,17.35H32.87v11.157h7.451c4.211,0,6.659-1.942,6.659-5.578C46.98,19.293,44.532,17.35,40.321,17.35"
	/>
</svg>
