<?xml version="1.0" encoding="utf-8"?>
<!-- Generator: Adobe Illustrator 15.1.0, SVG Export Plug-In . SVG Version: 6.00 Build 0)  -->
<!DOCTYPE svg PUBLIC "-//W3C//DTD SVG 1.1//EN" "http://www.w3.org/Graphics/SVG/1.1/DTD/svg11.dtd">
<svg version="1.1" xmlns="http://www.w3.org/2000/svg" xmlns:xlink="http://www.w3.org/1999/xlink" x="0px" y="0px"
	 width="39.594px" height="24.747px" viewBox="0 0 39.594 24.747" enable-background="new 0 0 39.594 24.747" xml:space="preserve">
<path d="M14.848,13.611L0,6.187v13.61h19.797v-8.661L14.848,13.611z M14.848,9.899l14.848-7.424V0H0v2.475L14.848,9.899z
	 M37.12,17.323H32.17v4.949h-2.475v-4.949h-4.949v-2.475h4.949V9.899h2.475v4.949h4.949V17.323z M39.594,22.272V9.899
	c0-1.372-1.104-2.475-2.475-2.475H24.747c-1.373,0-2.475,1.103-2.475,2.475v12.373c0,1.372,1.102,2.475,2.475,2.475H37.12
	C38.491,24.747,39.594,23.644,39.594,22.272"/>
</svg>
