<?xml version="1.0" encoding="utf-8"?>
<!-- Generator: Adobe Illustrator 15.1.0, SVG Export Plug-In . SVG Version: 6.00 Build 0)  -->
<!DOCTYPE svg PUBLIC "-//W3C//DTD SVG 1.1//EN" "http://www.w3.org/Graphics/SVG/1.1/DTD/svg11.dtd">
<svg version="1.1" xmlns="http://www.w3.org/2000/svg" xmlns:xlink="http://www.w3.org/1999/xlink" x="0px" y="0px"
	 width="159.278px" height="29.022px" viewBox="0 0 159.278 29.022" enable-background="new 0 0 159.278 29.022"
	 xml:space="preserve">
<path d="M126.561,11.848c0-1.62-1.08-2.25-2.593-2.25h-3.4v4.482h3.4C125.481,14.08,126.561,13.468,126.561,11.848"/>
<path d="M49.253,11.542c0-1.332-1.08-1.998-2.304-1.998h-3.527v4.014h3.581C48.335,13.558,49.253,12.964,49.253,11.542"/>
<path d="M47.04,14.961h-3.618v4.445h3.582c1.404,0,2.538-0.683,2.538-2.194C49.542,15.79,48.39,14.961,47.04,14.961"/>
<path d="M110.166,9.418c-0.864,0-1.711,0.324-2.322,0.954c-1.044,1.08-1.098,2.808-1.098,4.14c0,1.331,0.054,3.059,1.098,4.139
	c0.611,0.629,1.458,0.953,2.322,0.953c0.863,0,1.709-0.324,2.322-0.953c1.043-1.08,1.096-2.809,1.096-4.139
	c0-1.332-0.053-3.06-1.096-4.14C111.875,9.742,111.029,9.418,110.166,9.418"/>
<path d="M0,29.022h159.278V0H0V29.022z M23.937,19.839c-0.882,0.863-2.25,1.277-3.618,1.277c-1.548,0-2.79-0.432-3.653-1.224
	c-0.81-0.756-1.368-1.854-1.368-3.06h1.674c0,0.756,0.377,1.512,0.899,2.016c0.576,0.559,1.548,0.792,2.448,0.792
	c0.972,0,1.8-0.198,2.376-0.737c0.396-0.36,0.648-0.811,0.648-1.494c0-0.989-0.63-1.818-2.142-2.051l-2.016-0.307
	c-1.908-0.287-3.401-1.349-3.401-3.383c0-0.954,0.432-1.872,1.116-2.52c0.882-0.828,2.015-1.26,3.347-1.26
	c1.242,0,2.466,0.414,3.312,1.224c0.774,0.738,1.188,1.656,1.224,2.736h-1.674c-0.036-0.63-0.27-1.188-0.63-1.602
	c-0.486-0.558-1.26-0.882-2.25-0.882c-0.918,0-1.71,0.252-2.267,0.882c-0.324,0.378-0.522,0.81-0.522,1.386
	c0,1.152,0.953,1.674,1.907,1.8c0.72,0.09,1.422,0.216,2.124,0.324c2.124,0.306,3.545,1.602,3.545,3.617
	C25.016,18.435,24.566,19.227,23.937,19.839 M37.692,16.203c0,3.186-1.8,4.914-4.661,4.914c-2.862,0-4.662-1.728-4.662-4.914V8.122
	h1.602v8.117c0,2.034,0.846,3.384,3.06,3.384c2.213,0,3.059-1.351,3.059-3.384V8.122h1.602V16.203z M50.207,19.713
	c-0.719,0.774-1.943,1.17-3.203,1.17h-5.147V8.122h5.093c1.188,0,2.412,0.396,3.114,1.17c0.503,0.558,0.827,1.206,0.827,2.124
	c0,1.224-0.647,2.394-1.835,2.826c1.313,0.432,2.123,1.727,2.123,3.078C51.179,18.345,50.765,19.118,50.207,19.713 M67.086,20.883
	h-1.53V10.12l-3.96,10.583h-1.26L56.377,10.03v10.853h-1.53V8.122h2.304l3.851,10.385l3.834-10.385h2.25V20.883z M73.098,20.883
	H71.46V8.122h1.638V20.883z M85.449,9.616h-3.797v11.267h-1.62V9.616h-3.798V8.122h9.215V9.616z M102.585,9.598h-6.66v4.158h5.939
	v1.512h-5.939v5.615h-1.602V8.122h8.262V9.598z M113.603,19.767c-0.918,0.9-2.16,1.368-3.438,1.368
	c-1.279,0-2.521-0.468-3.438-1.368c-1.387-1.35-1.639-3.221-1.639-5.255s0.252-3.906,1.639-5.255c0.917-0.9,2.158-1.369,3.438-1.369
	c1.277,0,2.52,0.469,3.438,1.369c1.385,1.349,1.637,3.221,1.637,5.255S114.988,18.417,113.603,19.767 M126.507,20.883l-2.412-5.31
	h-3.527v5.31h-1.602V8.122h5.002c1.494,0,2.539,0.414,3.24,1.135c0.612,0.647,1.008,1.475,1.008,2.591
	c0,1.116-0.359,1.872-0.972,2.52c-0.378,0.396-0.918,0.702-1.53,0.9l2.557,5.615H126.507z M144.067,20.883h-1.53V10.12l-3.96,10.583
	h-1.259l-3.96-10.672v10.853h-1.53V8.122h2.305l3.852,10.385l3.833-10.385h2.25V20.883z"/>
</svg>
