<?xml version="1.0" encoding="utf-8"?>
<!-- Generator: Adobe Illustrator 15.1.0, SVG Export Plug-In . SVG Version: 6.00 Build 0)  -->
<!DOCTYPE svg PUBLIC "-//W3C//DTD SVG 1.1//EN" "http://www.w3.org/Graphics/SVG/1.1/DTD/svg11.dtd">
<svg version="1.1" xmlns="http://www.w3.org/2000/svg" xmlns:xlink="http://www.w3.org/1999/xlink" x="0px" y="0px"
	 width="35.635px" height="35.635px" viewBox="0 0 35.635 35.635" enable-background="new 0 0 35.635 35.635" xml:space="preserve">
<path d="M27.083,13.82l0.01,0.566c0,5.796-4.415,12.482-12.484,12.482c-2.479,0-4.782-0.728-6.721-1.98
	c0.338,0.045,0.689,0.067,1.045,0.067c2.058,0,3.948-0.707,5.448-1.88c-1.924-0.034-3.534-1.308-4.098-3.047
	c0.269,0.055,0.543,0.079,0.825,0.079c0.402,0,0.794-0.058,1.152-0.154C10.259,19.55,8.75,17.78,8.75,15.66v-0.059
	c0.588,0.329,1.261,0.525,1.979,0.547c-1.176-0.781-1.945-2.133-1.945-3.645c0-0.804,0.215-1.564,0.597-2.208
	c2.152,2.653,5.393,4.394,9.036,4.58c-0.077-0.317-0.107-0.654-0.107-1.002c0-2.413,1.956-4.381,4.381-4.381
	c1.262,0,2.401,0.534,3.207,1.38c0.99-0.194,1.935-0.553,2.784-1.056c-0.327,1.026-1.021,1.883-1.934,2.426
	c0.89-0.109,1.737-0.35,2.521-0.695C28.681,12.429,27.932,13.201,27.083,13.82 M18.208,0C8.379,0,0.399,7.98,0.399,17.809
	c0,9.847,7.98,17.826,17.81,17.826c9.843,0,17.825-7.979,17.825-17.826C36.034,7.97,28.051,0,18.208,0"/>
</svg>
