<svg id="sidebar-toggle" class="u-pointer" xmlns="http://www.w3.org/2000/svg" width="25.785" height="25.787" viewBox="0 0 25.785 25.787"><path fill="#817E7E" d="M12.893 0c-7.122 0-12.893 5.773-12.893 12.894 0 7.122 5.771 12.894 12.893 12.894s12.893-5.771 12.893-12.894c-.001-7.121-5.772-12.894-12.893-12.894m0 23.26c-5.717 0-10.367-4.65-10.367-10.366 0-5.717 4.65-10.367 10.367-10.367 5.716 0 10.367 4.65 10.367 10.367 0 5.716-4.652 10.366-10.367 10.366M8.924 8.924c-.7.7-.7 1.834 0 2.532.697.7 1.831.7 2.531 0 .7-.698.7-1.832 0-2.532s-1.834-.7-2.531 0M14.33 14.332c-.7.698-.7 1.832 0 2.532s1.834.7 2.531 0c.7-.7.7-1.834 0-2.532-.697-.7-1.831-.7-2.531 0M14.33 8.924c-.699.698-.699 1.832 0 2.532.698.7 1.832.7 2.532 0s.7-1.834 0-2.532c-.7-.699-1.834-.699-2.532 0M8.923 14.331c-.7.7-.7 1.832 0 2.532s1.834.7 2.532 0c.7-.698.7-1.832 0-2.532-.698-.7-1.832-.7-2.532 0"/></svg>