<svg xmlns="http://www.w3.org/2000/svg" width="146.368" height="58.492" viewBox="0 0 146.368 58.492"><path fill="#fff" d="M39.967 18.286h-6.982v11.447h6.982c3.744 0 6.552-1.728 6.552-5.723 0-3.996-2.808-5.724-6.552-5.724"/><path fill="#fff" d="M80.612 33.512h10.98l-5.545-14.434-5.435 14.434zm-80.612 24.98h146.368v-58.492h-146.368v58.492zm39.967-26.961h-6.982v10.476h-1.873v-25.521h8.855c4.895 0 8.495 2.376 8.495 7.523s-3.6 7.522-8.495 7.522m30.517 10.476h-15.119v-25.521h1.872v23.756h13.247v1.765zm24.382 0l-2.591-6.731h-12.347l-2.52 6.731h-1.943l9.684-25.521h1.836l9.789 25.521h-1.908zm12.683-10.114v10.114h-1.836v-10.114l-8.818-15.407h2.016l7.775 13.571 7.773-13.571h1.908l-8.818 15.407z"/></svg>