<svg xmlns="http://www.w3.org/2000/svg" width="35.635" height="35.635" viewBox="0 0 35.635 35.635"><path d="M27.083 13.82l.01.566c0 5.796-4.415 12.482-12.484 12.482-2.479 0-4.782-.728-6.721-1.98.338.045.689.067 1.045.067 2.058 0 3.948-.707 5.448-1.88-1.924-.034-3.534-1.308-4.098-3.047.269.055.543.079.825.079.402 0 .794-.058 1.152-.154-2.001-.403-3.51-2.173-3.51-4.293v-.059c.588.329 1.261.525 1.979.547-1.176-.781-1.945-2.133-1.945-3.645 0-.804.215-1.564.597-2.208 2.152 2.653 5.393 4.394 9.036 4.58-.077-.317-.107-.654-.107-1.002 0-2.413 1.956-4.381 4.381-4.381 1.262 0 2.401.534 3.207 1.38.99-.194 1.935-.553 2.784-1.056-.327 1.026-1.021 1.883-1.934 2.426.89-.109 1.737-.35 2.521-.695-.588.882-1.337 1.654-2.186 2.273m-8.875-13.82c-9.829 0-17.809 7.98-17.809 17.809 0 9.847 7.98 17.826 17.81 17.826 9.843 0 17.825-7.979 17.825-17.826 0-9.839-7.983-17.809-17.826-17.809"/></svg>