<?xml version="1.0" encoding="utf-8"?>
<!-- Generator: Adobe Illustrator 16.0.0, SVG Export Plug-In . SVG Version: 6.00 Build 0)  -->
<!DOCTYPE svg PUBLIC "-//W3C//DTD SVG 1.1//EN" "http://www.w3.org/Graphics/SVG/1.1/DTD/svg11.dtd">
<svg version="1.1" id="Layer_1" xmlns="http://www.w3.org/2000/svg" xmlns:xlink="http://www.w3.org/1999/xlink" x="0px" y="0px"
	 width="25.785px" height="25.787px" viewBox="0 0 25.785 25.787" enable-background="new 0 0 25.785 25.787" xml:space="preserve">
<path fill="#817E7E" d="M12.893,0C5.771,0,0,5.773,0,12.894c0,7.122,5.771,12.894,12.893,12.894s12.893-5.771,12.893-12.894
	C25.785,5.773,20.014,0,12.893,0 M12.893,23.26c-5.717,0-10.367-4.65-10.367-10.366c0-5.717,4.65-10.367,10.367-10.367
	c5.716,0,10.367,4.65,10.367,10.367C23.26,18.61,18.608,23.26,12.893,23.26"/>
<path fill="#817E7E" d="M8.924,8.924c-0.7,0.7-0.7,1.834,0,2.532c0.697,0.7,1.831,0.7,2.531,0c0.7-0.698,0.7-1.832,0-2.532
	C10.755,8.224,9.621,8.224,8.924,8.924"/>
<path fill="#817E7E" d="M14.33,14.332c-0.7,0.698-0.7,1.832,0,2.532c0.7,0.7,1.834,0.7,2.531,0c0.7-0.7,0.7-1.834,0-2.532
	C16.164,13.632,15.03,13.632,14.33,14.332"/>
<path fill="#817E7E" d="M14.33,8.924c-0.699,0.698-0.699,1.832,0,2.532c0.698,0.7,1.832,0.7,2.532,0s0.7-1.834,0-2.532
	C16.162,8.225,15.028,8.225,14.33,8.924"/>
<path fill="#817E7E" d="M8.923,14.331c-0.7,0.7-0.7,1.832,0,2.532c0.7,0.7,1.834,0.7,2.532,0c0.7-0.698,0.7-1.832,0-2.532
	C10.757,13.631,9.623,13.631,8.923,14.331"/>
</svg>
