<?xml version="1.0" encoding="utf-8"?>
<!-- Generator: Adobe Illustrator 15.1.0, SVG Export Plug-In . SVG Version: 6.00 Build 0)  -->
<!DOCTYPE svg PUBLIC "-//W3C//DTD SVG 1.1//EN" "http://www.w3.org/Graphics/SVG/1.1/DTD/svg11.dtd">
<svg version="1.1" id="Layer_1" xmlns="http://www.w3.org/2000/svg" xmlns:xlink="http://www.w3.org/1999/xlink" x="0px" y="0px"
	 width="146.368px" height="58.492px" viewBox="0 0 146.368 58.492" enable-background="new 0 0 146.368 58.492"
	 xml:space="preserve">
<path d="M39.967,18.286h-6.982v11.447h6.982c3.744,0,6.552-1.728,6.552-5.723C46.519,20.014,43.711,18.286,39.967,18.286"/>
<polygon points="80.612,33.512 91.592,33.512 86.047,19.078 "/>
<path d="M0,58.492h146.368V0H0V58.492z M39.967,31.531h-6.982v10.476h-1.873V16.486h8.855c4.895,0,8.495,2.376,8.495,7.523
	S44.862,31.531,39.967,31.531 M70.484,42.007H55.365V16.486h1.872v23.756h13.247V42.007z M94.866,42.007l-2.591-6.731H79.928
	l-2.52,6.731h-1.943l9.684-25.521h1.836l9.789,25.521H94.866z M107.549,31.892v10.115h-1.835V31.892l-8.819-15.406h2.016
	l7.775,13.57l7.774-13.57h1.908L107.549,31.892z"/>
</svg>
